<?xml version="1.0" encoding="UTF-8" standalone="no"?>
<!-- Created with Inkscape (http://www.inkscape.org/) -->

<svg
	 xmlns:dc="http://purl.org/dc/elements/1.1/"
	 xmlns:cc="http://creativecommons.org/ns#"
	 xmlns:rdf="http://www.w3.org/1999/02/22-rdf-syntax-ns#"
	 xmlns:svg="http://www.w3.org/2000/svg"
	 xmlns="http://www.w3.org/2000/svg"
	 version="1.1"
	 width="143.487"
	 height="144.224"
	 viewBox="0 0 143.48699 144.224"
	 id="图层_1"
	 xml:space="preserve">
	 <metadata
		 id="metadata25"><rdf:RDF><cc:Work
				 rdf:about=""><dc:format>image/svg+xml</dc:format><dc:type
					 rdf:resource="http://purl.org/dc/dcmitype/StillImage" /><dc:title></dc:title></cc:Work></rdf:RDF></metadata><defs
		 id="defs23" /><g
		 transform="translate(-47.564023,-188.514)"
		 id="g3"><path
			 d="m 151.299,329.734 c -0.208,0 -0.415,-0.021 -0.618,-0.064 -8.048,-1.695 -13.107,-4.547 -15.464,-8.719 -1.007,-1.612 -2.025,-3.249 -2.497,-4.763 -0.86,-0.349 -2.55,-0.925 -5.774,-1.73 -5.726,-1.321 -7.045,-1.562 -7.34,-1.604 -1.278,-0.082 -2.374,-0.971 -2.707,-2.223 -0.349,-1.314 0.229,-2.699 1.41,-3.375 0.544,-0.311 1.117,-0.58 1.718,-0.805 -0.508,-0.463 -0.857,-1.1 -0.953,-1.826 -0.163,-1.245 0.464,-2.431 1.521,-3.015 h -15.226 c -0.891,4.522 -1.656,9.484 -2.279,14.788 -0.643,5.449 -3.675,12.181 -14.477,13.321 -0.105,0.011 -0.21,0.017 -0.315,0.017 -0.125,0 -0.249,-0.008 -0.373,-0.023 -6.812,-0.853 -12.225,-3.898 -16.09,-9.052 -0.023,-0.03 -0.045,-0.061 -0.067,-0.092 -5.596,-8.084 -5.596,-8.492 -5.596,-9.583 0,-0.125 0.008,-0.249 0.023,-0.372 1.478,-11.832 2.227,-20.791 2.227,-26.628 v -4.013 c -3.046,1.384 -5.711,2.063 -8.071,2.063 -2.735,0 -5.024,-0.902 -6.801,-2.68 -0.046,-0.047 -0.092,-0.095 -0.135,-0.145 -3.354,-3.831 -3.749,-9.71 -1.176,-17.475 1.658,-6.016 1.507,-11.38 -0.449,-15.945 -0.523,-1.221 -0.182,-2.64 0.84,-3.489 0.553,-0.46 1.234,-0.693 1.918,-0.693 0.579,0 1.16,0.167 1.666,0.505 0.457,0.306 0.943,0.64 1.456,1.001 l -2.292,-3.667 c -0.712,-1.14 -0.58,-2.614 0.325,-3.608 0.583,-0.641 1.395,-0.981 2.22,-0.981 0.014,0 0.028,0 0.042,0 -1.808,-1.039 -3.59,-2.836 -5.007,-5.848 -3.521,-7.477 -0.74,-16.872 8.264,-27.922 0.571,-0.701 1.426,-1.105 2.326,-1.105 0.042,0 23.117,0.96 23.117,0.96 l -0.152,-0.608 c -0.387,-1.55 0.509,-3.133 2.038,-3.598 8.747,-2.661 16.296,-4.4 22.438,-5.169 0.065,-0.008 0.131,-0.015 0.197,-0.018 0.432,-0.025 0.864,-0.038 1.294,-0.038 6.441,0 12.708,2.842 18.641,8.451 3.086,-0.085 9.026,-0.454 17.705,-1.098 0.036,-0.003 0.072,-0.005 0.107,-0.006 12.551,-0.48 14.906,-1.496 15.251,-1.694 0.511,-0.383 1.099,-0.572 1.701,-0.572 0.384,0 0.774,0.077 1.153,0.229 4.071,1.63 8.541,4.662 13.287,9.011 5.125,4.7 7.723,10.553 7.723,17.399 0,0.142 -0.01,0.284 -0.03,0.424 -1.635,11.448 -7.613,13.852 -12.34,13.852 -0.313,0 -0.63,-0.011 -0.955,-0.033 -0.065,-0.004 -0.131,-0.011 -0.196,-0.02 -5.867,-0.781 -11.402,-3.411 -16.47,-7.82 l -5.251,0.128 c 8.251,3.198 15.292,6.777 20.999,10.68 3.971,2.867 6.125,6.128 6.466,9.738 0.345,3.654 -1.213,7.478 -4.636,11.379 l -1.051,31.549 c 1.351,1.728 2.85,3.741 4.467,6.003 0.092,0.128 0.173,0.263 0.244,0.404 2.075,4.151 0.356,9.56 -5.254,16.53 -2.058,3.63 -4.75,6.707 -8.004,9.148 -0.044,0.033 -0.09,0.065 -0.136,0.096 -3.795,2.53 -8.636,4.022 -14.387,4.434 -0.072,0.007 -0.143,0.009 -0.215,0.009 z M 77.297,287.991 78.51,275.252 c -0.117,-0.234 -0.382,-0.467 -1.097,-0.626 -0.199,0.044 -0.444,0.21 -0.713,0.831 l 0.597,12.534 z m 26.881,-11.723 c 0.417,0.111 1.085,0.217 2.121,0.217 h 29.022 c 0.941,-0.155 1.378,-0.39 1.587,-0.596 -0.223,-0.07 -0.641,-0.154 -1.359,-0.154 h -29.985 c -0.66,0.185 -1.098,0.374 -1.386,0.533 z m -0.412,-20.614 c 0.312,0.38 1.143,0.575 2.479,0.58 l 19.498,-0.75 h -20.567 c -0.777,0 -1.202,0.099 -1.41,0.17 z m 52.958,-14.206 c 6.654,4.032 8.802,5.505 9.649,6.178 0.082,-0.039 0.2,-0.103 0.354,-0.205 -2.344,-2.185 -5.7,-4.188 -10.003,-5.973 z M 60.676,235.91 c 2.08,1.127 3.672,2.212 4.83,3.296 0.771,-0.796 1.973,-2.186 3.798,-4.609 -2.278,1.044 -4.381,1.557 -6.363,1.557 -0.703,0 -1.469,-0.067 -2.265,-0.244 z m 112.335,-24.101 c 2.139,2.751 3.555,5.102 4.296,7.144 -0.147,-0.716 -0.377,-1.59 -0.729,-2.646 -0.464,-1.39 -1.689,-2.931 -3.567,-4.498 z"
			 id="path5"
			 style="fill:#ffffff" /><path
			 d="m 112.481,194.514 c 5.98,0 11.794,2.823 17.443,8.47 2.624,0 9,-0.374 19.125,-1.125 9.75,-0.374 15.375,-1.125 16.875,-2.25 3.749,1.501 7.875,4.313 12.375,8.438 4.5,4.126 6.75,9.189 6.75,15.188 -1.074,7.516 -4.198,11.276 -9.37,11.276 -0.248,0 -0.499,-0.009 -0.755,-0.026 -5.625,-0.749 -10.876,-3.375 -15.75,-7.875 l -46.125,1.125 -2.25,5.625 c 9.374,0 17.249,-0.187 23.625,-0.563 5.999,-0.374 9.374,-1.312 10.125,-2.813 11.25,3.751 20.437,8.064 27.563,12.938 6.75,4.876 6.937,10.688 0.563,17.438 l -1.125,33.75 c 1.499,1.876 3.186,4.126 5.063,6.75 1.499,2.999 -0.189,7.499 -5.063,13.5 -1.876,3.375 -4.313,6.188 -7.313,8.438 -3.375,2.25 -7.688,3.562 -12.938,3.938 -7.125,-1.501 -11.625,-3.938 -13.5,-7.313 -1.876,-3.001 -2.625,-4.689 -2.25,-5.063 -0.751,-0.751 -3.375,-1.688 -7.875,-2.813 -4.875,-1.125 -7.501,-1.688 -7.875,-1.688 1.499,-0.857 3.305,-1.286 5.417,-1.286 1.585,0 3.342,0.241 5.271,0.724 1.375,0.375 2.562,0.563 3.562,0.563 2,0 3.25,-0.75 3.75,-2.25 -1.5,-0.751 -4.313,-1.501 -8.438,-2.25 -4.5,-0.751 -6.939,-1.125 -7.313,-1.125 3.213,-0.857 5.999,-1.286 8.355,-1.286 1.769,0 3.296,0.241 4.583,0.724 0.793,0.353 1.453,0.529 1.977,0.529 1.704,0 1.982,-1.864 0.836,-5.591 h -34.875 c -1.125,5.249 -2.063,11.061 -2.813,17.438 -0.751,6.374 -4.689,9.936 -11.813,10.688 -6,-0.751 -10.688,-3.375 -14.063,-7.875 -3.375,-4.876 -5.063,-7.501 -5.063,-7.875 1.499,-11.999 2.25,-20.999 2.25,-27 v -9 c -4.5,2.7 -8.191,4.051 -11.071,4.051 -1.92,0 -3.479,-0.6 -4.679,-1.801 -2.625,-2.999 -2.813,-7.875 -0.563,-14.625 1.875,-6.75 1.688,-12.749 -0.563,-18 1.125,0.751 2.437,1.688 3.938,2.813 0.666,0.667 1.37,1.001 2.11,1.001 0.926,0 1.91,-0.521 2.952,-1.563 l -5.625,-9 c 3.749,1.876 5.999,3.564 6.75,5.063 0.109,0.109 0.246,0.164 0.411,0.164 1.54,0 5.528,-4.741 11.964,-14.226 l -5.625,1.125 c -3.251,2.113 -6.079,3.169 -8.484,3.169 -3.145,0 -5.566,-1.806 -7.266,-5.419 -3.001,-6.374 -0.375,-14.625 7.875,-24.75 l 27,1.125 -1.125,-4.5 c 8.625,-2.624 15.937,-4.311 21.938,-5.063 0.376,-0.026 0.75,-0.037 1.122,-0.037 m 8.051,12.73 c 0.475,0 0.98,-0.107 1.517,-0.322 1.499,-0.749 1.875,-1.688 1.125,-2.813 -0.751,-1.499 -1.876,-2.999 -3.375,-4.5 -1.5,-1.499 -4.126,-2.25 -7.875,-2.25 -2.625,0 -4.126,0.563 -4.5,1.688 -0.751,1.125 0,2.063 2.25,2.813 4.5,0.751 7.124,1.876 7.875,3.375 0.804,1.339 1.797,2.009 2.983,2.009 m 56.457,17.758 c 0.23,0 0.479,-0.027 0.748,-0.081 1.499,0 2.437,-1.312 2.813,-3.938 0,-1.499 -0.375,-3.375 -1.125,-5.625 -0.751,-2.25 -2.625,-4.5 -5.625,-6.75 -1.125,-0.675 -2.184,-1.012 -3.173,-1.012 -0.66,0 -1.29,0.15 -1.889,0.45 -1.125,0.751 -0.938,2.063 0.563,3.938 3.749,4.5 5.625,7.875 5.625,10.125 -0.002,1.929 0.686,2.893 2.063,2.893 m -10.75,25.683 c 0.765,0 1.598,-0.338 2.498,-1.013 1.125,-1.125 1.312,-2.437 0.563,-3.938 -3.001,-2.999 -7.501,-5.625 -13.5,-7.875 -1.05,-0.3 -1.951,-0.45 -2.701,-0.45 -1.125,0 -1.912,0.337 -2.362,1.012 -1.125,1.125 -0.563,2.439 1.688,3.938 7.5,4.5 11.624,7.126 12.375,7.875 0.449,0.301 0.929,0.451 1.439,0.451 m -59.94,8.549 29.25,-1.125 c 2.624,-0.374 4.125,-1.499 4.5,-3.375 0,-1.563 -1.043,-2.343 -3.128,-2.343 -0.416,0 -0.873,0.031 -1.372,0.093 h -30.375 c -3.001,0 -4.5,1.125 -4.5,3.375 0.374,2.25 2.25,3.375 5.625,3.375 m 60.256,33.301 c 0.779,0 1.319,-0.6 1.619,-1.8 V 267.11 c 0,-2.624 -0.751,-3.938 -2.25,-3.938 -0.214,-0.053 -0.42,-0.08 -0.619,-0.08 -1.194,0 -2.113,0.963 -2.756,2.893 l 1.125,23.625 c 0.374,1.501 1.125,2.439 2.25,2.813 0.225,0.074 0.436,0.112 0.631,0.112 m -89.506,8.887 c 1.125,0 1.875,-0.938 2.25,-2.813 l 2.25,-23.625 c -0.375,-1.874 -1.688,-2.999 -3.938,-3.375 -1.876,0 -3.188,1.125 -3.938,3.375 l 1.125,23.625 c 0.375,1.499 1.126,2.437 2.251,2.813 m 29.25,-21.938 h 29.25 c 2.624,-0.374 4.125,-1.499 4.5,-3.375 0,-2.25 -1.5,-3.375 -4.5,-3.375 h -30.375 c -3.001,0.751 -4.5,2.063 -4.5,3.938 0.374,1.876 2.25,2.812 5.625,2.812 m 49.499,39.562 c -0.375,0 -0.75,-0.063 -1.124,-0.187 -1.876,0 -3.001,0.563 -3.375,1.688 -0.375,1.125 0.374,2.437 2.25,3.938 1.125,0 3.375,-0.751 6.75,-2.25 3,-1.125 5.25,-3.001 6.75,-5.625 0.374,-2.25 -0.189,-3.564 -1.688,-3.938 -0.301,-0.075 -0.594,-0.113 -0.879,-0.113 -1.14,0 -2.159,0.6 -3.059,1.8 -1.874,3.125 -3.75,4.687 -5.625,4.687 M 112.481,188.514 c -0.487,0 -0.981,0.014 -1.47,0.043 -0.132,0.008 -0.264,0.02 -0.395,0.036 -6.311,0.791 -14.028,2.565 -22.938,5.276 -1.964,0.598 -3.407,2.117 -3.981,3.95 L 63.799,196.99 c -0.084,-0.003 -0.167,-0.005 -0.25,-0.005 -1.799,0 -3.509,0.808 -4.651,2.21 -9.796,12.022 -12.707,22.484 -8.652,31.096 0.806,1.712 1.722,3.101 2.695,4.226 -0.92,1.371 -1.225,3.049 -0.877,4.632 -0.478,0.217 -0.932,0.5 -1.35,0.847 -2.042,1.698 -2.726,4.536 -1.68,6.978 1.698,3.962 1.807,8.509 0.334,13.896 -2.903,8.809 -2.3,15.645 1.792,20.319 0.087,0.099 0.177,0.196 0.271,0.289 2.327,2.329 5.413,3.56 8.923,3.56 1.59,0 3.274,-0.25 5.07,-0.757 -0.025,5.721 -0.766,14.453 -2.203,25.963 -0.031,0.247 -0.046,0.495 -0.046,0.744 0,2.098 0.416,3.036 6.129,11.29 0.043,0.063 0.088,0.124 0.134,0.185 4.372,5.829 10.467,9.271 18.117,10.229 0.248,0.031 0.497,0.046 0.746,0.046 0.21,0 0.42,-0.011 0.629,-0.033 9.965,-1.051 16.053,-6.716 17.142,-15.952 0.505,-4.297 1.104,-8.361 1.787,-12.14 h 8.204 c 0.008,0.135 0.021,0.27 0.039,0.405 0.005,0.036 0.01,0.072 0.015,0.108 -1.879,1.46 -2.74,3.926 -2.115,6.278 0.651,2.448 2.759,4.203 5.243,4.433 0.396,0.068 1.856,0.354 7.029,1.547 1.981,0.497 3.305,0.887 4.176,1.173 0.635,1.429 1.47,2.778 2.192,3.934 2.817,4.932 8.519,8.242 17.422,10.118 0.407,0.086 0.821,0.129 1.237,0.129 0.143,0 0.286,-0.005 0.429,-0.015 6.276,-0.45 11.604,-2.108 15.837,-4.93 0.093,-0.062 0.183,-0.126 0.272,-0.192 3.52,-2.641 6.44,-5.951 8.687,-9.846 2.672,-3.311 9.271,-11.937 5.455,-19.573 -0.141,-0.282 -0.304,-0.552 -0.487,-0.808 -1.38,-1.929 -2.677,-3.684 -3.874,-5.24 l 0.981,-29.424 c 3.493,-4.272 5.059,-8.571 4.659,-12.803 -0.335,-3.551 -2,-6.778 -4.961,-9.626 4.454,-0.801 10.963,-4.092 12.691,-16.192 0.041,-0.281 0.061,-0.565 0.061,-0.849 0,-7.722 -2.925,-14.319 -8.695,-19.61 -5.085,-4.66 -9.73,-7.795 -14.2,-9.585 -0.721,-0.289 -1.478,-0.43 -2.23,-0.43 -1.103,0 -2.196,0.304 -3.153,0.895 -0.651,0.211 -3.638,0.964 -13.952,1.359 -0.071,0.003 -0.143,0.007 -0.214,0.012 -8.784,0.652 -13.661,0.937 -16.358,1.048 -6.24,-5.588 -12.878,-8.415 -19.768,-8.415 l 0,0 z"
			 id="path7" /></g><g
		 transform="translate(-47.564023,-188.514)"
		 id="g9" /><g
		 transform="translate(-47.564023,-188.514)"
		 id="g11" /><g
		 transform="translate(-47.564023,-188.514)"
		 id="g13" /><g
		 transform="translate(-47.564023,-188.514)"
		 id="g15" /><g
		 transform="translate(-47.564023,-188.514)"
		 id="g17" /><g
		 transform="translate(-47.564023,-188.514)"
		 id="g19" /></svg>