<?xml version="1.0" encoding="UTF-8" standalone="no"?>
<!-- Created with Inkscape (http://www.inkscape.org/) -->

<svg
   xmlns:dc="http://purl.org/dc/elements/1.1/"
   xmlns:cc="http://creativecommons.org/ns#"
   xmlns:rdf="http://www.w3.org/1999/02/22-rdf-syntax-ns#"
   xmlns:svg="http://www.w3.org/2000/svg"
   xmlns="http://www.w3.org/2000/svg"
   version="1.1"
   width="149.25195"
   height="145.843"
   viewBox="0 0 149.25195 145.843"
   id="图层_1"
   xml:space="preserve"><metadata
     id="metadata3027"><rdf:RDF><cc:Work
         rdf:about=""><dc:format>image/svg+xml</dc:format><dc:type
           rdf:resource="http://purl.org/dc/dcmitype/StillImage" /><dc:title></dc:title></cc:Work></rdf:RDF></metadata><defs
     id="defs3025" /><g
     transform="translate(-199.99906,-187.704)"
     id="g3003"><g
       id="g3005"><path
         d="m 322.776,330.537 c -15.15,-1.136 -27.862,-3.26 -37.783,-6.312 -4.885,-1.503 -8.609,-2.698 -11.069,-3.549 -0.84,-0.291 -1.587,-0.549 -2.241,-0.803 -6.957,5.665 -15.132,8.534 -24.331,8.535 -1.084,0 -2.2,-0.041 -3.315,-0.12 -0.094,-0.006 -0.188,-0.018 -0.281,-0.033 -7.166,-1.197 -9.549,-4.917 -10.286,-7.835 -2.313,2.542 -4.985,3.825 -7.987,3.825 -1.065,0 -2.162,-0.171 -3.266,-0.51 -7.243,-1.011 -11.543,-5.596 -12.446,-13.276 -0.007,-0.058 -0.012,-0.116 -0.015,-0.173 -0.337,-5.718 -2.289,-10.449 -5.967,-14.462 -0.797,-0.87 -1.01,-2.125 -0.545,-3.209 1.342,-3.128 3.311,-3.785 4.726,-3.785 1.128,0 2.089,0.434 2.866,0.995 -0.514,-0.655 -1.05,-1.355 -1.61,-2.103 l -3.375,-4.5 c -0.542,-0.722 -0.729,-1.65 -0.511,-2.525 0.942,-3.78 3.708,-4.073 4.532,-4.073 0.515,0 1.044,0.088 1.573,0.264 0.104,0.035 0.206,0.075 0.305,0.12 0.61,-3.8 1.309,-10.478 1.943,-22.185 0.917,-17.456 0.82,-23.745 0.576,-25.945 -0.072,-0.652 0.072,-1.311 0.41,-1.874 3.485,-5.809 7.043,-10.545 10.576,-14.078 2.094,-2.095 4.571,-3.157 7.36,-3.157 2.864,0 5.887,1.115 9.217,3.403 h 16.815 c 0.596,-3.554 0.653,-6.403 0.167,-8.493 l -1.623,-4.329 c -0.539,-1.438 0.094,-3.05 1.467,-3.736 4.715,-2.357 10.445,-4.146 17.033,-5.316 1.607,-0.393 3.229,-0.592 4.823,-0.592 4.928,0 9.741,1.879 14.323,5.589 15.726,-0.077 18.595,-1.819 18.98,-2.127 0.563,-0.78 1.467,-1.245 2.433,-1.245 2.856,0 5.959,2.024 10.055,6.563 2.496,2.529 2.738,4.949 2.499,6.54 -0.313,2.086 -1.597,4.012 -3.897,5.829 1.419,1.088 3.383,2.612 6.133,4.772 6.193,4.542 9.813,9.943 10.679,15.997 1.146,8.033 -1.889,11.831 -4.676,13.607 -1.954,1.373 -4.22,2.069 -6.738,2.069 -1.194,0 -2.455,-0.16 -3.768,-0.478 0.829,0.856 1.871,1.984 3.204,3.483 0.044,0.049 0.086,0.1 0.127,0.152 1.768,2.274 1.769,4.456 1.458,5.886 -0.315,1.452 -1.082,2.849 -2.336,4.228 0.663,0.081 1.284,0.382 1.76,0.86 0.196,0.197 1.096,0.988 4.423,2.886 0.089,0.051 0.176,0.106 0.259,0.166 1.563,1.118 2.486,2.66 2.671,4.459 0.275,2.687 -1.09,5.666 -4.284,9.317 -0.012,0.306 -0.021,0.593 -0.028,0.862 0.015,-0.023 0.023,-0.039 0.027,-0.046 0.549,-1.025 1.628,-1.639 2.729,-1.639 0.439,0 0.882,0.098 1.296,0.306 0.94,0.472 1.674,1.137 2.15,1.934 0.751,0.03 1.466,0.342 2,0.876 1.152,1.152 2.844,3.689 1.227,7.734 -0.098,0.245 -0.227,0.475 -0.385,0.686 -0.647,0.864 -1.229,1.731 -1.737,2.591 2.151,3.638 2.981,6.77 2.521,9.507 0.573,0.071 1.119,0.307 1.568,0.688 0.673,0.57 1.061,1.407 1.061,2.289 0,7.115 -1.028,13.001 -3.055,17.496 -2.061,5.027 -8.446,7.57 -20.083,8.002 -0.037,10e-4 -0.074,0.002 -0.111,0.002 -0.074,-0.002 -0.149,-0.005 -0.223,-0.01 z m -83.039,-22.919 c 0.53,0.127 1.045,0.192 1.541,0.192 0.876,0 1.734,-0.199 2.587,-0.602 -0.827,-0.862 -1.557,-1.82 -2.187,-2.87 -0.389,-0.648 -0.756,-1.45 -0.994,-2.401 l -0.947,5.681 z m 67.643,-8.015 c 2.025,0.247 3.749,0.414 5.162,0.5 -0.598,-1.804 -0.944,-3.861 -1.034,-6.164 -1.104,2.004 -2.481,3.894 -4.128,5.664 z m -17.586,-29.301 c 0.202,-0.576 0.578,-1.084 1.087,-1.449 l 0.257,-0.184 h -3.793 l 2.449,1.633 z m -45.431,-2.616 c 0.583,-0.236 1.235,-0.499 1.969,-0.792 3.793,-2.124 5.163,-3.508 5.643,-4.148 0.566,-0.756 1.456,-1.201 2.4,-1.201 h 3.651 c -0.311,-1.586 -0.464,-3.392 -0.464,-5.438 0,-1.304 0.019,-2.387 0.06,-3.294 -1.542,0.099 -2.966,0.421 -4.248,0.96 -1.237,0.6 -2.616,0.905 -4.099,0.905 -1.131,0 -2.312,-0.171 -3.56,-0.518 l -1.352,13.526 z m 54.449,-18.703 c -1.393,0 -2.995,0.049 -4.794,0.146 2.02,-0.03 3.854,-0.078 5.496,-0.142 -0.225,-0.002 -0.459,-0.004 -0.702,-0.004 z m -53.091,-15.895 0.732,-0.418 h -0.68 l -0.052,0.418 z"
         id="path3007"
         style="fill:#ffffff" /><path
         d="m 280.514,193.704 c 4.521,0 8.934,1.864 13.236,5.591 13.5,0 20.999,-1.125 22.5,-3.375 1.874,0 4.5,1.876 7.875,5.625 3.375,3.375 1.874,6.75 -4.5,10.125 1.125,0.751 4.311,3.188 9.563,7.313 5.625,4.126 8.811,8.813 9.563,14.063 0.749,5.251 -0.376,8.813 -3.375,10.688 -1.458,1.042 -3.148,1.563 -5.069,1.563 -1.537,0 -3.223,-0.334 -5.056,-1.001 l -3.375,3.375 c 0.749,0.376 2.624,2.25 5.625,5.625 2.624,3.375 0,7.126 -7.875,11.25 h 9 c 0.749,0.752 2.437,1.877 5.063,3.375 2.624,1.877 1.688,5.252 -2.813,10.125 -0.294,5.282 0.101,7.925 1.186,7.925 0.302,0 0.656,-0.204 1.064,-0.612 1.874,-1.874 2.999,-3.186 3.375,-3.938 1.499,0.752 1.499,2.063 0,3.938 -1.501,1.877 -1.876,3.188 -1.125,3.938 0.374,0 1.125,-0.936 2.25,-2.813 1.125,-1.874 1.874,-2.813 2.25,-2.813 1.125,1.125 1.312,2.626 0.563,4.5 -1.125,1.501 -2.063,3.002 -2.813,4.5 4.5,6.75 4.124,11.25 -1.125,13.5 l 6.75,-1.125 c 0,6.75 -0.938,12.186 -2.813,16.313 -1.501,3.748 -7.313,5.812 -17.438,6.188 -15.001,-1.125 -27.376,-3.188 -37.125,-6.188 -9.751,-3.002 -14.625,-4.689 -14.625,-5.063 -6.751,6.075 -14.719,9.112 -23.898,9.112 -1.02,0 -2.052,-0.038 -3.102,-0.112 -4.5,-0.752 -7.126,-2.626 -7.875,-5.625 -0.751,-3.002 -1.501,-4.876 -2.25,-5.625 -2.401,4.799 -5.282,7.199 -8.642,7.199 -0.839,0 -1.708,-0.15 -2.608,-0.449 -6.001,-0.752 -9.376,-4.313 -10.125,-10.688 -0.376,-6.377 -2.626,-11.813 -6.75,-16.313 0.563,-1.312 1.218,-1.967 1.968,-1.967 0.75,0 1.593,0.656 2.532,1.967 0.82,1.149 1.712,1.723 2.675,1.723 1.239,0 2.598,-0.95 4.075,-2.848 -1.501,-1.498 -3.375,-3.748 -5.625,-6.75 l -3.375,-4.5 c 0.299,-1.199 0.84,-1.799 1.622,-1.799 0.195,0 0.404,0.037 0.628,0.111 0.749,0.752 1.874,1.314 3.375,1.688 1.125,-3.748 2.061,-12.562 2.813,-26.438 0.749,-14.249 0.936,-23.063 0.563,-26.438 3.375,-5.625 6.75,-10.125 10.125,-13.5 1.519,-1.519 3.265,-2.278 5.239,-2.278 2.413,0 5.167,1.134 8.261,3.403 h 20.25 c 1.125,-5.249 1.312,-9.374 0.563,-12.375 l -1.688,-4.5 c 4.5,-2.25 9.936,-3.938 16.313,-5.063 1.409,-0.351 2.81,-0.527 4.2,-0.527 m -4.764,7.841 c 2.1,-0.6 3.9,-0.899 5.4,-0.899 2.25,0 3.825,0.674 4.725,2.024 0.563,0.376 1.125,0.563 1.688,0.563 0.563,0 1.125,-0.188 1.688,-0.563 1.125,-0.749 0.749,-1.874 -1.125,-3.375 -2.001,-2 -4.502,-2.999 -7.502,-2.999 -1.5,0 -3.124,0.25 -4.873,0.749 -2.25,0 -3.375,0.751 -3.375,2.25 0.373,1.125 1.498,1.876 3.374,2.25 m 16.875,13.5 c 9.749,0 16.313,-0.187 19.688,-0.563 3.375,-0.749 4.687,-2.061 3.938,-3.938 l -23.625,1.125 v 3.376 m 42.749,21.375 c 1.499,-0.374 1.874,-1.499 1.125,-3.375 -0.751,-4.5 -4.126,-9 -10.125,-13.5 -1.575,-0.675 -2.746,-1.012 -3.511,-1.012 -0.51,0 -0.84,0.15 -0.989,0.45 -0.376,0.751 0.374,2.063 2.25,3.938 5.249,6.001 7.875,9.751 7.875,11.25 0.749,1.5 1.874,2.249 3.375,2.249 m -41.485,-2.024 c 6.957,0 11.034,-1.2 12.235,-3.601 l 4.5,3.375 c 1.499,-3.749 1.874,-5.625 1.125,-5.625 h -23.625 v 5.625 c 2.102,0.15 4.024,0.226 5.765,0.226 m -51.89,4.274 7.875,-4.5 H 260 v -4.5 h -16.875 l -1.125,9 m 73.521,0.13 c 0.918,0 2.287,-1.169 4.104,-3.505 l -2.25,-4.5 c -3.001,3.375 -3.938,5.814 -2.813,7.313 0.231,0.461 0.55,0.692 0.959,0.692 m 3.239,7.643 c 0.917,0 2.33,-1.09 4.24,-3.273 l -2.25,-4.5 c -3.001,3.375 -3.938,5.814 -2.813,7.313 0.205,0.307 0.479,0.46 0.823,0.46 m -99.822,32.164 c 1.125,0 2.061,-0.936 2.813,-2.813 l 3.375,-29.25 c -0.376,-2.25 -1.125,-3.375 -2.25,-3.375 -1.125,0 -1.876,1.125 -2.25,3.375 l -2.25,28.125 c -0.752,2.251 -0.563,3.565 0.562,3.938 m 69.187,-26.437 c 7.875,0 13.687,-0.187 17.438,-0.563 3.749,0 5.436,-1.312 5.063,-3.938 -1.125,-0.374 -3.001,-0.749 -5.625,-1.125 -1.313,-0.375 -3.376,-0.562 -6.188,-0.562 -2.812,0 -6.375,0.187 -10.687,0.562 v 5.626 m -38.851,-0.492 c -1.758,0 -3.808,-0.586 -6.15,-1.758 l -2.25,22.5 c 0.749,-0.373 2.999,-1.312 6.75,-2.813 3.375,-1.874 5.625,-3.562 6.75,-5.063 h 7.875 c -1.125,-1.874 -1.688,-4.687 -1.688,-8.438 0,-3.748 0.187,-5.812 0.563,-6.188 -0.843,-0.093 -1.663,-0.14 -2.459,-0.14 -2.392,0 -4.572,0.421 -6.541,1.265 -0.844,0.424 -1.794,0.635 -2.85,0.635 m 26.589,11.855 c 1.499,0 2.397,-0.6 2.698,-1.8 0.374,-1.125 -0.938,-2.061 -3.938,-2.813 -3.375,0 -5.438,-0.563 -6.188,-1.688 -0.751,-1.125 -0.938,-1.688 -0.563,-1.688 -0.9,-1.35 -1.733,-2.024 -2.498,-2.024 -0.51,0 -0.99,0.3 -1.44,0.899 -1.125,1.501 -1.314,3.002 -0.563,4.5 1.874,1.877 4.124,3.188 6.75,3.938 2.624,0.376 4.124,0.563 4.5,0.563 0.454,0.075 0.867,0.113 1.242,0.113 m 24.636,2.137 h -29.25 c 2.25,2.25 3.375,4.127 3.375,5.625 0.938,0.188 1.805,0.282 2.602,0.282 2.39,0 4.147,-0.845 5.273,-2.532 l 10.125,6.75 v -4.5 l 7.875,-5.625 m -55.691,12.563 c 0.501,0 1.064,-0.063 1.691,-0.188 0.749,-1.125 2.624,-2.437 5.625,-3.938 2.999,-1.874 4.874,-2.813 5.625,-2.813 1.874,-1.498 2.437,-2.813 1.688,-3.938 -0.322,-0.482 -0.884,-0.723 -1.687,-0.723 -1.071,0 -2.571,0.429 -4.5,1.285 -1.501,1.125 -3.564,2.439 -6.188,3.938 -2.626,1.501 -3.938,2.439 -3.938,2.813 -1.125,1.125 -1.314,2.063 -0.563,2.813 0.5,0.501 1.248,0.751 2.247,0.751 m 45.566,13.312 c 1.125,0 2.061,-1.874 2.813,-5.625 1.125,-4.124 0.936,-7.123 -0.563,-9 0,7.502 -0.751,12.375 -2.25,14.625 m 24.75,-13.5 h -3.375 c 0.749,9.752 -3.001,17.627 -11.25,23.625 6.502,0.999 11.17,1.499 14.003,1.499 1.415,0 2.372,-0.125 2.872,-0.374 -2.25,-2.626 -3.188,-6.75 -2.813,-12.375 10e-4,-5.998 0.187,-10.125 0.563,-12.375 m -15.375,20.626 c 0.75,0 1.75,-0.5 3,-1.501 2.25,-2.25 4.124,-6.75 5.625,-13.5 -0.376,-2.25 -1.125,-3.562 -2.25,-3.938 -0.299,-0.074 -0.569,-0.111 -0.808,-0.111 -0.962,0 -1.442,0.6 -1.442,1.799 -0.751,6.75 -2.25,11.25 -4.5,13.5 -1.125,1.501 -1.314,2.626 -0.563,3.375 0.251,0.251 0.563,0.376 0.938,0.376 m -31.875,-11.626 h -9 l -2.25,2.25 5.625,4.5 c 3.749,-2.999 5.625,-5.249 5.625,-6.75 m 61.176,15.861 c 0.54,0 0.961,-0.6 1.262,-1.799 0.749,-1.125 0.187,-2.061 -1.688,-2.813 -1.2,0.301 -2.22,0.451 -3.06,0.451 -1.261,0 -2.115,-0.338 -2.565,-1.013 -1.125,-1.125 -1.501,-1.688 -1.125,-1.688 -0.626,-1.563 -1.513,-2.343 -2.659,-2.343 -0.229,0 -0.467,0.031 -0.716,0.093 -1.125,0 -1.501,0.752 -1.125,2.25 0.374,3.375 2.25,5.436 5.625,6.188 2.999,0.373 4.874,0.563 5.625,0.563 0.149,0.074 0.291,0.111 0.426,0.111 m -38.676,-2.361 -1.125,-6.75 -4.5,5.625 5.625,1.125 m -46.125,-4.5 h -5.625 l -2.25,13.5 c 1.687,0.843 3.321,1.265 4.903,1.265 2.637,0 5.127,-1.172 7.472,-3.515 -1.876,-1.125 -3.375,-2.626 -4.5,-4.5 -1.125,-1.877 -1.125,-4.124 0,-6.75 m 59.869,27.14 c 1.336,0 2.567,-0.42 3.693,-1.265 1.499,-1.501 0.563,-3.002 -2.813,-4.5 -6.75,-1.501 -12.938,-3.188 -18.563,-5.063 L 278,309.545 c -0.704,-0.422 -1.329,-0.633 -1.874,-0.633 -0.908,0 -1.596,0.585 -2.063,1.758 -0.751,1.874 -0.189,2.999 1.688,3.375 3.375,1.125 8.438,2.813 15.188,5.063 6.75,2.25 10.688,3.562 11.813,3.938 0.466,0.092 0.923,0.139 1.367,0.139 M 280.514,187.704 c -1.802,0 -3.631,0.22 -5.44,0.655 -6.833,1.221 -12.807,3.095 -17.757,5.57 -2.747,1.374 -4.013,4.599 -2.935,7.474 l 1.548,4.128 c 0.197,0.955 0.309,2.424 0.094,4.64 h -13.286 c -3.549,-2.287 -6.876,-3.403 -10.124,-3.403 -3.563,0 -6.842,1.396 -9.482,4.035 -3.706,3.706 -7.416,8.637 -11.027,14.656 -0.675,1.126 -0.963,2.442 -0.818,3.747 0.231,2.09 0.316,8.204 -0.591,25.462 -0.499,9.214 -1.032,15.156 -1.505,18.985 -2.682,0.25 -5.688,2.005 -6.763,6.315 -0.437,1.752 -0.062,3.607 1.022,5.052 l 1.208,1.612 c -1.464,0.745 -3.04,2.155 -4.173,4.798 -0.93,2.168 -0.503,4.68 1.091,6.419 3.193,3.484 4.889,7.61 5.184,12.612 0.007,0.116 0.017,0.232 0.031,0.347 1.055,8.98 6.295,14.594 14.779,15.864 1.312,0.38 2.625,0.573 3.913,0.573 2.015,0 4.457,-0.465 6.941,-2.044 1.777,2.511 4.999,5.037 10.837,6.013 0.186,0.031 0.374,0.053 0.562,0.067 1.186,0.084 2.373,0.127 3.529,0.127 9.322,0 17.67,-2.738 24.871,-8.147 0.24,0.084 0.48,0.167 0.72,0.25 2.493,0.863 6.25,2.068 11.167,3.582 10.136,3.118 23.069,5.284 38.441,6.437 0.149,0.011 0.299,0.017 0.449,0.017 0.074,0 0.148,-0.001 0.223,-0.004 8.146,-0.303 19.339,-1.652 22.728,-9.813 2.22,-4.944 3.3,-11.058 3.3,-18.684 0,-1.764 -0.776,-3.438 -2.122,-4.578 -0.125,-0.106 -0.254,-0.207 -0.387,-0.301 -0.073,-2.328 -0.789,-4.813 -2.155,-7.491 0.208,-0.301 0.425,-0.604 0.652,-0.906 0.316,-0.421 0.575,-0.883 0.77,-1.372 1.647,-4.122 0.958,-8.12 -1.891,-10.97 -0.681,-0.68 -1.508,-1.181 -2.407,-1.47 -0.585,-0.653 -1.294,-1.221 -2.111,-1.683 1.062,-2.032 1.73,-4.284 1.489,-6.642 -0.271,-2.642 -1.659,-4.983 -3.91,-6.593 -0.167,-0.119 -0.34,-0.23 -0.518,-0.332 -1.868,-1.065 -2.862,-1.721 -3.363,-2.08 0.445,-0.862 0.764,-1.745 0.961,-2.653 0.515,-2.369 0.132,-4.781 -1.076,-6.94 2.001,-0.373 3.853,-1.147 5.53,-2.315 3.521,-2.266 7.341,-6.96 5.977,-16.522 -0.982,-6.857 -4.976,-12.91 -11.872,-17.993 -1.282,-1.007 -2.396,-1.877 -3.364,-2.63 1.13,-1.422 2.018,-3.119 2.316,-5.106 0.339,-2.258 0.039,-5.649 -3.283,-9.044 -4.694,-5.188 -8.472,-7.504 -12.238,-7.504 -1.655,0 -3.219,0.682 -4.341,1.857 -0.94,0.369 -4.572,1.395 -16.045,1.507 -4.875,-3.705 -10.029,-5.581 -15.349,-5.581 l 0,0 z m -31.239,69.974 c 1.895,0 3.673,-0.386 5.289,-1.148 0.007,0.695 0.031,1.366 0.073,2.015 h -0.262 c -1.889,0 -3.668,0.89 -4.801,2.401 -0.059,0.079 -0.446,0.562 -1.665,1.434 l 0.473,-4.729 c 0.3,0.018 0.597,0.027 0.893,0.027 l 0,0 z"
         id="path3009" /></g></g><g
     transform="translate(-199.99906,-187.704)"
     id="g3011" /><g
     transform="translate(-199.99906,-187.704)"
     id="g3013" /><g
     transform="translate(-199.99906,-187.704)"
     id="g3015" /><g
     transform="translate(-199.99906,-187.704)"
     id="g3017" /><g
     transform="translate(-199.99906,-187.704)"
     id="g3019" /><g
     transform="translate(-199.99906,-187.704)"
     id="g3021" /></svg>