<?xml version="1.0" encoding="UTF-8" standalone="no"?>
<!-- Generator: Adobe Illustrator 16.0.0, SVG Export Plug-In . SVG Version: 6.00 Build 0)  -->

<svg
   xmlns:dc="http://purl.org/dc/elements/1.1/"
   xmlns:cc="http://creativecommons.org/ns#"
   xmlns:rdf="http://www.w3.org/1999/02/22-rdf-syntax-ns#"
   xmlns:svg="http://www.w3.org/2000/svg"
   xmlns="http://www.w3.org/2000/svg"
   xmlns:sodipodi="http://sodipodi.sourceforge.net/DTD/sodipodi-0.dtd"
   xmlns:inkscape="http://www.inkscape.org/namespaces/inkscape"
   version="1.1"
   id="图层_1"
   x="0px"
   y="0px"
   width="139.19521"
   height="138.423"
   viewBox="0 0 139.1952 138.423"
   enable-background="new 0 0 1190.55 841.89"
   xml:space="preserve"
   inkscape:version="0.48.4 r9939"
   sodipodi:docname="3.svg"><metadata
     id="metadata3054"><rdf:RDF><cc:Work
         rdf:about=""><dc:format>image/svg+xml</dc:format><dc:type
           rdf:resource="http://purl.org/dc/dcmitype/StillImage" /></cc:Work></rdf:RDF></metadata><defs
     id="defs3052" /><sodipodi:namedview
     pagecolor="#ffffff"
     bordercolor="#666666"
     borderopacity="1"
     objecttolerance="10"
     gridtolerance="10"
     guidetolerance="10"
     inkscape:pageopacity="0"
     inkscape:pageshadow="2"
     inkscape:window-width="640"
     inkscape:window-height="480"
     id="namedview3050"
     showgrid="false"
     fit-margin-top="0"
     fit-margin-left="0"
     fit-margin-right="0"
     fit-margin-bottom="0"
     inkscape:zoom="0.26626348"
     inkscape:cx="222.415"
     inkscape:cy="-87.512002"
     inkscape:window-x="0"
     inkscape:window-y="27"
     inkscape:window-maximized="0"
     inkscape:current-layer="图层_1" /><g
     id="g3030"
     transform="translate(-372.86001,-195.01)"><g
       id="g3032"><path
         d="m 469.85,330.416 c -8.721,-0.437 -14.333,-3.517 -16.682,-9.155 -1.544,-4.01 -2.691,-6.845 -3.438,-8.497 l -11.704,-5.852 c -1.167,0.171 -2.267,0.257 -3.279,0.257 -2.841,0 -5.176,-0.679 -6.944,-2.019 -0.454,-0.271 -0.789,-0.466 -1.035,-0.606 h -14.35 c -3.113,7.091 -7.68,8.653 -11.098,8.654 -1.56,0 -3.221,-0.326 -4.937,-0.97 -6.931,-2.599 -11.904,-9.338 -14.781,-20.03 l -0.18,-0.667 0.13,-0.679 c 1.806,-9.391 2.362,-17.784 1.655,-24.948 -1.708,-11.961 -1.708,-12.373 -1.708,-12.735 v -1.071 l 0.678,-0.829 c 3.104,-3.792 6.402,-7.472 9.818,-10.954 -1.373,0.315 -2.858,0.535 -4.454,0.657 -0.234,0.018 -0.467,0.027 -0.696,0.027 C 377.154,241 376.196,226.6 375.881,221.868 l -0.015,-0.214 0.017,-0.214 c 0.431,-5.62 2.823,-10.438 7.112,-14.321 4.942,-4.939 6.16,-5.756 6.912,-6.132 l 1.056,-0.528 1.133,0.333 c 4.255,1.252 13.775,1.888 28.295,1.888 5.902,0 12.723,-0.108 20.273,-0.321 32.585,-1.377 42.561,-2.804 45.184,-3.758 l 1.061,-0.386 1.052,0.409 c 14.805,5.759 21.88,14.72 21.03,26.634 -0.431,5.16 -1.995,9.329 -4.652,12.427 l -0.075,0.087 -0.082,0.081 c -2.246,2.247 -4.875,3.385 -7.816,3.385 -0.311,0 -0.625,-0.013 -0.941,-0.04 l -1.032,52.622 c 3.997,5.462 5.198,9.854 3.675,13.406 l -0.068,0.158 -0.085,0.149 c -1.488,2.601 -3.177,4.902 -5.027,6.849 -1.383,4.035 -4.098,7.691 -8.077,10.878 l -0.127,0.102 -0.138,0.088 c -4.522,2.875 -9.332,4.543 -14.297,4.958 l -0.2,0.017 -0.199,-0.009 z m 13.01,-16.023 c -0.083,0.345 -0.177,0.68 -0.281,1.005 0.089,-0.112 0.177,-0.226 0.265,-0.342 0.016,-0.26 0.02,-0.479 0.016,-0.663 z M 424.778,272.67 c 0.366,-2.427 0.117,-3.385 0.019,-3.646 -0.331,-0.15 -1.677,-0.619 -5.602,-0.619 -0.587,0 -1.213,0.011 -1.875,0.031 -0.4,1.936 -0.635,3.291 -0.771,4.234 h 8.229 z m 9.598,-36.274 c 8.475,3.607 15.526,7.271 20.975,10.902 1.008,0.672 1.892,1.387 2.649,2.142 v -13.466 l -23.624,0.422 z m -23.037,3.696 c 1.886,0.094 3.652,0.141 5.261,0.141 11.062,0 12.204,-2.254 12.208,-2.277 l 0.293,-1.465 -24.227,0.433 c 2.006,0.635 4.15,1.687 6.465,3.168 z"
         id="path3034"
         inkscape:connector-curvature="0"
         style="fill:#ffffff" /><path
         d="m 486.875,201.42 c 13.5,5.251 19.874,13.126 19.125,23.625 -0.376,4.5 -1.688,8.064 -3.938,10.688 -1.671,1.671 -3.569,2.506 -5.695,2.506 -1.215,0 -2.504,-0.273 -3.868,-0.819 l -1.125,57.375 c 3.749,4.876 5.063,8.626 3.938,11.25 -1.501,2.624 -3.188,4.874 -5.063,6.75 -1.125,3.749 -3.564,7.124 -7.313,10.125 -4.126,2.624 -8.438,4.124 -12.938,4.5 -7.501,-0.376 -12.188,-2.813 -14.063,-7.313 -1.876,-4.876 -3.188,-8.064 -3.938,-9.563 l -13.5,-6.75 c -1.376,0.25 -2.627,0.375 -3.752,0.375 -2.25,0 -3.999,-0.5 -5.248,-1.5 -1.408,-0.844 -2.181,-1.265 -2.321,-1.265 -0.046,0 -0.022,0.047 0.071,0.14 h -16.875 c -2.02,5.769 -5.039,8.654 -9.055,8.654 -1.205,0 -2.499,-0.26 -3.883,-0.779 -6.001,-2.25 -10.314,-8.249 -12.938,-18 1.874,-9.749 2.437,-18.374 1.688,-25.875 -1.125,-7.875 -1.688,-11.999 -1.688,-12.375 3.375,-4.124 6.937,-8.062 10.688,-11.813 1.446,-1.446 3.203,-2.169 5.269,-2.169 2.755,0 6.061,1.285 9.918,3.857 2.252,0.125 4.328,0.188 6.225,0.188 9.476,0 14.524,-1.563 15.15,-4.688 9,3.751 16.313,7.501 21.938,11.25 5.625,3.751 6.188,8.626 1.688,14.625 v 29.25 c 1.125,0.75 2.083,1.125 2.875,1.125 1.583,0 2.5,-1.5 2.75,-4.5 0,-4.874 0,-23.999 0,-57.375 l -63,1.125 c -2.25,2.25 -5.814,3.564 -10.688,3.938 -0.157,0.012 -0.313,0.018 -0.466,0.018 -4.59,0 -7.247,-5.444 -7.971,-16.331 0.374,-4.874 2.437,-9 6.188,-12.375 3.375,-3.375 5.436,-5.249 6.188,-5.625 4.551,1.34 14.267,2.01 29.143,2.01 5.958,0 12.742,-0.107 20.357,-0.322 26.626,-1.125 42.001,-2.436 46.127,-3.937 m 13.816,28.8 c 1.139,0 2.159,-0.6 3.059,-1.8 1.499,-8.249 -1.876,-14.999 -10.125,-20.25 -0.601,-0.3 -1.111,-0.45 -1.531,-0.45 -0.63,0 -1.057,0.337 -1.281,1.012 -0.751,1.125 -0.563,2.063 0.563,2.813 5.999,5.251 8.624,10.125 7.875,14.625 -1.125,2.25 -0.938,3.564 0.563,3.938 0.299,0.075 0.591,0.112 0.877,0.112 m -83.566,-16.425 47.25,-1.125 c 1.499,-0.749 2.624,-1.874 3.375,-3.375 0.28,-0.844 -0.283,-1.265 -1.689,-1.265 -0.468,0 -1.03,0.047 -1.686,0.14 L 416,209.295 c -3.001,0 -4.5,0.751 -4.5,2.25 0.374,1.125 2.25,1.876 5.625,2.25 m 33.468,39.938 c 0.938,0 1.781,-0.188 2.532,-0.563 1.125,-1.125 0.749,-1.874 -1.125,-2.25 -2.25,-2.25 -6.75,-4.874 -13.5,-7.875 -0.804,-0.482 -1.47,-0.723 -1.998,-0.723 -0.705,0 -1.164,0.429 -1.377,1.285 -0.751,1.501 -0.751,2.813 0,3.938 8.249,3.001 12.375,4.876 12.375,5.625 1.125,0.376 2.156,0.563 3.093,0.563 m 35.63,38.883 c 0.2,0 0.417,-0.024 0.652,-0.071 1.874,0 2.999,-1.125 3.375,-3.375 v -38.25 c -0.376,-1.125 -1.314,-1.688 -2.813,-1.688 -1.501,0 -2.439,0.563 -2.813,1.688 v 38.25 c -0.328,2.297 0.205,3.446 1.599,3.446 m -95.535,-6.259 c 1.125,-0.374 1.688,-1.312 1.688,-2.813 l 1.125,-20.25 c 0.327,-2.296 -0.063,-3.445 -1.171,-3.445 -0.158,0 -0.33,0.023 -0.517,0.07 -1.125,0 -2.063,1.501 -2.813,4.5 v 19.125 c -0.376,1.877 0.187,2.813 1.688,2.813 M 413.75,275.67 h 13.5 c 1.125,-4.874 0.936,-7.875 -0.563,-9 -1.126,-0.844 -3.623,-1.265 -7.492,-1.265 -1.288,0 -2.729,0.047 -4.321,0.14 -1.5,6.75 -1.875,10.125 -1.124,10.125 m 44.708,25.65 c 0.87,0 1.53,-0.3 1.98,-0.9 0.749,-1.874 -0.938,-3.749 -5.063,-5.625 l -2.25,4.5 c 2.249,1.35 4.027,2.025 5.333,2.025 m -3.583,6.224 c 0.958,0 1.687,-0.312 2.187,-0.937 1.125,-1.876 -0.938,-3.562 -6.188,-5.063 l -4.5,2.25 c 3.751,2.5 6.584,3.75 8.501,3.75 m 17.375,16.501 c 5.249,0 9.749,-2.626 13.5,-7.875 0.374,-3.001 -0.189,-4.689 -1.688,-5.063 -0.429,-0.215 -0.843,-0.322 -1.241,-0.322 -0.995,0 -1.893,0.67 -2.696,2.01 -0.751,4.5 -3.375,6.75 -7.875,6.75 -2.626,0 -3.751,0.749 -3.375,2.25 0.749,1.125 1.874,1.874 3.375,2.25 m 14.696,-129.035 -2.122,0.771 c -1.597,0.581 -9.112,2.092 -44.285,3.58 -7.505,0.211 -14.283,0.319 -20.146,0.319 -17.729,0 -24.712,-0.96 -27.448,-1.766 l -2.266,-0.667 -2.113,1.057 c -1.084,0.542 -2.411,1.419 -7.64,6.643 -4.841,4.406 -7.544,9.878 -8.033,16.265 l -0.033,0.428 0.028,0.429 c 0.418,6.285 1.443,11.022 3.131,14.481 2.424,4.967 5.913,6.697 8.619,7.234 -1.635,1.828 -3.232,3.693 -4.782,5.586 l -1.356,1.658 v 2.142 c 0,0.593 0,0.986 1.729,13.094 0.669,6.862 0.124,14.944 -1.622,24.023 l -0.261,1.357 0.359,1.334 c 3.142,11.68 8.736,19.102 16.625,22.06 2.053,0.77 4.068,1.161 5.99,1.161 4.016,0 9.258,-1.612 12.984,-8.654 h 11.655 c 0.055,0.033 0.113,0.067 0.174,0.104 2.278,1.673 5.173,2.521 8.614,2.521 0.872,0 1.793,-0.055 2.757,-0.165 l 9.915,4.958 c 0.603,1.408 1.522,3.67 2.918,7.299 l 0.029,0.077 0.031,0.075 c 1.946,4.674 6.875,10.375 19.301,10.999 l 0.4,0.02 0.399,-0.034 c 5.454,-0.456 10.721,-2.278 15.657,-5.416 l 0.276,-0.176 0.255,-0.204 c 4.232,-3.388 7.192,-7.293 8.818,-11.626 1.842,-2.017 3.525,-4.35 5.015,-6.953 l 0.171,-0.299 0.136,-0.316 c 2.542,-5.928 -1.019,-12.156 -3.413,-15.546 l 0.956,-48.771 c 2.942,-0.436 5.655,-1.837 7.935,-4.117 l 0.162,-0.163 0.15,-0.174 c 3.076,-3.587 4.88,-8.329 5.362,-14.094 l 0.003,-0.036 0.002,-0.037 c 0.656,-9.198 -2.79,-21.808 -22.935,-29.644 l -2.101,-0.817 0,0 z m -39.588,44.155 7.642,-0.137 v 4.474 c -2.312,-1.446 -4.863,-2.894 -7.642,-4.337 l 0,0 z"
         id="path3036"
         inkscape:connector-curvature="0" /></g></g><g
     id="g3038"
     transform="translate(-372.86001,-195.01)" /><g
     id="g3040"
     transform="translate(-372.86001,-195.01)" /><g
     id="g3042"
     transform="translate(-372.86001,-195.01)" /><g
     id="g3044"
     transform="translate(-372.86001,-195.01)" /><g
     id="g3046"
     transform="translate(-372.86001,-195.01)" /><g
     id="g3048"
     transform="translate(-372.86001,-195.01)" /></svg>