<?xml version="1.0" encoding="UTF-8" standalone="no"?>
<!-- Generator: Adobe Illustrator 16.0.0, SVG Export Plug-In . SVG Version: 6.00 Build 0)  -->

<svg
   xmlns:dc="http://purl.org/dc/elements/1.1/"
   xmlns:cc="http://creativecommons.org/ns#"
   xmlns:rdf="http://www.w3.org/1999/02/22-rdf-syntax-ns#"
   xmlns:svg="http://www.w3.org/2000/svg"
   xmlns="http://www.w3.org/2000/svg"
   xmlns:sodipodi="http://sodipodi.sourceforge.net/DTD/sodipodi-0.dtd"
   xmlns:inkscape="http://www.inkscape.org/namespaces/inkscape"
   version="1.1"
   id="图层_1"
   x="0px"
   y="0px"
   width="141.48228"
   height="141.129"
   viewBox="0 0 141.48228 141.129"
   enable-background="new 0 0 1190.55 841.89"
   xml:space="preserve"
   inkscape:version="0.48.4 r9939"
   sodipodi:docname="4.svg"><metadata
     id="metadata3081"><rdf:RDF><cc:Work
         rdf:about=""><dc:format>image/svg+xml</dc:format><dc:type
           rdf:resource="http://purl.org/dc/dcmitype/StillImage" /></cc:Work></rdf:RDF></metadata><defs
     id="defs3079" /><sodipodi:namedview
     pagecolor="#ffffff"
     bordercolor="#666666"
     borderopacity="1"
     objecttolerance="10"
     gridtolerance="10"
     guidetolerance="10"
     inkscape:pageopacity="0"
     inkscape:pageshadow="2"
     inkscape:window-width="1366"
     inkscape:window-height="705"
     id="namedview3077"
     showgrid="false"
     fit-margin-top="0"
     fit-margin-left="0"
     fit-margin-right="0"
     fit-margin-bottom="0"
     inkscape:zoom="0.26626348"
     inkscape:cx="63.262001"
     inkscape:cy="-89.756002"
     inkscape:window-x="0"
     inkscape:window-y="27"
     inkscape:window-maximized="1"
     inkscape:current-layer="图层_1" /><g
     id="g3057"
     transform="translate(-532.01301,-190.06)"><g
       id="g3059"><path
         d="m 643.766,328.188 c -0.1,0 -0.199,-0.005 -0.299,-0.015 -18.794,-1.881 -36.338,-4.742 -52.146,-8.504 -17.55,-4.18 -22.708,-5.528 -24.436,-6.063 -0.754,0.148 -2.458,0.776 -5.653,3.262 -0.058,0.045 -0.117,0.088 -0.178,0.128 -3.216,2.144 -4.468,3.037 -4.953,3.402 -2.575,4.357 -5.773,5.292 -8.042,5.293 -1.49,0 -3.05,-0.402 -4.636,-1.195 -0.069,-0.034 -0.136,-0.071 -0.202,-0.11 -4.58,-2.747 -7.334,-8.043 -8.188,-15.742 -0.012,-0.11 -0.019,-0.221 -0.019,-0.331 0,-2.615 0.786,-6.052 2.401,-10.507 1.754,-5.834 2.318,-6.706 2.978,-7.364 0.228,-0.228 0.491,-0.418 0.779,-0.562 l 5.092,-2.546 v -13.708 c -1.335,-0.018 -2.803,-0.232 -4.479,-0.652 -0.11,-0.028 -0.218,-0.062 -0.323,-0.101 -6.447,-2.417 -6.447,-12.026 -6.447,-15.184 0,-0.592 0.175,-1.17 0.503,-1.663 0.506,-0.76 1.684,-2.624 4.424,-7.193 0.062,-0.104 0.13,-0.203 0.204,-0.298 2.792,-3.592 5.162,-6.148 7.245,-7.814 0.488,-0.39 1.085,-0.618 1.708,-0.653 7.688,-0.425 10.5,-0.776 11.528,-0.978 l 1.92,-0.96 c 0.426,-0.213 0.885,-0.317 1.341,-0.317 0.726,0 1.444,0.263 2.007,0.77 l 8.322,7.49 0.489,-0.977 c 0.513,-1.025 1.557,-1.658 2.682,-1.658 0.124,0 0.249,0.007 0.375,0.023 0.623,0.078 1.254,0.118 1.876,0.118 0.433,0 0.869,-0.02 1.306,-0.058 -2.446,-0.199 -4.03,-0.847 -5.03,-2.028 -0.722,-0.854 -1.06,-1.921 -0.97,-3.041 -0.053,-0.474 -0.485,-2.002 -3.535,-5.081 -2.324,1.378 -4.79,2.397 -7.357,3.039 -0.13,0.032 -0.262,0.056 -0.396,0.071 l -5.063,0.563 c -0.11,0.012 -0.221,0.019 -0.331,0.019 -0.05,0 -0.1,-10e-4 -0.149,-0.004 -12.269,-0.61 -14.101,-7.778 -14.101,-11.996 0,-0.066 0.002,-0.133 0.007,-0.199 0.334,-5.036 -1.065,-10.553 -4.158,-16.398 -0.768,-1.451 -0.227,-3.25 1.214,-4.037 4.271,-2.33 9.744,-4.486 16.268,-6.411 1.323,-0.458 2.646,-0.69 3.931,-0.69 5.755,0 10.402,4.248 14.144,12.96 2.583,-1.58 4.86,-2.354 6.902,-2.354 1.959,0 3.71,0.716 5.064,2.07 0.533,0.533 1.067,1.056 1.602,1.568 -0.103,-0.711 -0.243,-1.378 -0.42,-2 -0.421,-1.47 -0.696,-2.211 -0.844,-2.561 -0.425,-0.394 -0.738,-0.913 -0.878,-1.509 -0.319,-1.354 0.334,-2.75 1.578,-3.373 5.889,-2.945 10.348,-5.358 13.252,-7.173 1.194,-0.747 2.557,-1.125 4.05,-1.125 3.424,0 7.399,1.95 12.405,6.106 3.715,-2.413 6.921,-4.302 9.554,-5.626 1.39,-0.831 3.046,-1.252 4.926,-1.252 3.575,0 8.065,1.513 13.726,4.625 0.196,0.108 0.381,0.238 0.548,0.387 5.037,4.479 6.069,6.609 6.069,8.429 0,0.878 -0.224,1.763 -0.688,2.682 2.962,-2.461 3.869,-2.87 5.001,-2.87 0.323,0 0.644,0.052 0.949,0.154 6.757,2.254 10.842,7.793 12.143,16.463 0.007,0.044 0.012,0.088 0.017,0.132 0.892,8.49 -2.924,13.781 -10.761,14.989 l -1.036,0.829 c 0.758,0.264 1.533,0.509 2.323,0.734 0.043,0.013 0.086,0.026 0.129,0.04 3.373,1.127 4.423,1.734 5.097,2.4 0.472,0.467 0.776,1.078 0.863,1.737 0.81,6.083 0.379,11.481 -1.279,16.045 -0.344,0.861 -0.688,1.782 -1.032,2.761 0.151,-0.023 0.307,-0.036 0.463,-0.036 2.375,0 3.542,1.233 4.026,1.968 1.454,2.206 0.355,4.979 -0.095,6.036 -0.623,1.87 -1.255,3.906 -1.884,6.069 3.307,8.465 0.319,13.613 -2.853,16.469 -0.078,0.07 -0.159,0.135 -0.243,0.197 -0.044,0.032 -0.089,0.064 -0.134,0.096 0.549,-0.113 1.06,-0.232 1.533,-0.358 0.255,-0.068 0.516,-0.102 0.773,-0.102 0.695,0 1.379,0.242 1.925,0.699 0.749,0.626 1.146,1.578 1.064,2.551 -0.756,9.052 -1.716,16.344 -2.852,21.676 -1.595,9.687 -17.356,10.165 -22.547,10.323 -0.029,0.004 -0.059,0.004 -0.089,0.004 z M 609.76,292.692 c 3.521,0.627 8.332,1.117 14.396,1.467 -5.974,-4.559 -7.577,-11.631 -7.577,-17.909 0,-3.878 0.053,-8.601 0.158,-14.148 -0.122,0.938 -0.247,1.858 -0.376,2.759 -1.645,11.828 -3.814,20.988 -6.601,27.831 z m -33.731,-7.297 c 1.457,0.791 3.203,1.339 5.224,1.642 -0.466,-0.893 -1.08,-1.654 -1.847,-2.294 -0.068,-0.057 -0.135,-0.118 -0.198,-0.181 -1.635,-1.633 -2.418,-3.226 -2.723,-4.644 l -0.456,5.477 z m 7.917,-9.497 c 0.402,-0.961 0.686,-1.754 0.883,-2.403 -0.877,0.333 -1.867,0.685 -2.978,1.057 -0.029,0.013 -0.058,0.025 -0.086,0.038 l 2.181,1.308 z m 61.598,-10.028 c 0.087,0.37 0.187,0.554 0.231,0.624 0.296,-0.013 0.568,-0.046 0.819,-0.099 l -1.05,-0.525 z"
         id="path3061"
         inkscape:connector-curvature="0"
         style="fill:#ffffff" /><path
         d="m 632.61,196.06 c 3.028,0 7.122,1.417 12.28,4.253 3.375,3.001 5.063,5.063 5.063,6.188 0,1.501 -1.688,3.564 -5.063,6.188 v 5.625 c 2.25,-1.498 4.873,-3.375 7.875,-5.625 2.623,-2.25 4.123,-3.375 4.5,-3.375 5.625,1.877 9,6.563 10.125,14.063 0.748,7.126 -2.25,11.063 -9,11.813 l -5.625,4.5 c 2.25,1.125 4.686,2.063 7.313,2.813 2.25,0.752 3.561,1.314 3.938,1.688 0.748,5.625 0.373,10.501 -1.125,14.625 -1.502,3.751 -3.002,8.627 -4.5,14.625 0.5,0.667 1,1.001 1.5,1.001 0.625,0 1.25,-0.521 1.875,-1.563 1.125,-1.498 2.25,-3.938 3.375,-7.313 1.873,0 2.25,1.314 1.125,3.938 -0.752,2.25 -1.502,4.689 -2.25,7.313 2.623,6.001 2.061,10.688 -1.688,14.063 -4.127,3.002 -11.439,4.689 -21.938,5.063 -13.877,-0.373 -20.813,-6.937 -20.813,-19.688 0,-12.748 0.563,-34.313 1.688,-64.688 -1.286,-0.856 -2.267,-1.285 -2.94,-1.285 -0.505,0 -0.837,0.241 -0.997,0.723 -0.752,1.501 -0.939,2.439 -0.563,2.813 -0.377,20.626 -1.502,37.501 -3.375,50.625 -1.877,13.5 -4.5,23.625 -7.875,30.375 5.248,1.501 15.373,2.439 30.375,2.813 2.93,0.075 5.679,0.113 8.247,0.113 10.254,0 17.63,-0.6 22.128,-1.8 -0.752,9 -1.688,16.123 -2.813,21.375 -0.752,4.873 -7.313,7.499 -19.688,7.875 -18.752,-1.877 -36,-4.689 -51.75,-8.438 -15.75,-3.751 -24.001,-5.814 -24.75,-6.188 -1.876,0 -4.5,1.312 -7.875,3.938 -3.375,2.25 -5.251,3.562 -5.625,3.938 -1.547,2.835 -3.45,4.253 -5.706,4.253 -1.025,0 -2.123,-0.293 -3.294,-0.878 -3.751,-2.25 -6.001,-6.75 -6.75,-13.5 0,-2.25 0.749,-5.438 2.25,-9.563 1.125,-3.748 1.874,-5.812 2.25,-6.188 l 6.75,-3.375 v -19.125 c -0.75,0.376 -1.688,0.564 -2.813,0.564 -1.125,0 -2.438,-0.188 -3.937,-0.564 -3.001,-1.125 -4.5,-5.249 -4.5,-12.375 0.749,-1.125 2.25,-3.562 4.5,-7.313 2.624,-3.375 4.874,-5.812 6.75,-7.313 6.75,-0.373 10.874,-0.749 12.375,-1.125 l 2.25,-1.125 11.25,10.125 2.25,-4.5 c 0.75,0.094 1.5,0.141 2.25,0.141 2.249,0 4.499,-0.422 6.75,-1.266 3.375,-0.749 5.248,-1.125 5.625,-1.125 v -4.5 c -3.9,0.6 -6.991,0.9 -9.271,0.9 -3.42,0 -5.018,-0.675 -4.792,-2.025 0,-2.25 -2.064,-5.249 -6.188,-9 -2.626,1.877 -5.438,3.188 -8.438,3.938 l -5.063,0.563 c -7.501,-0.373 -11.25,-3.375 -11.25,-9 0.374,-5.625 -1.125,-11.623 -4.5,-18 4.124,-2.25 9.374,-4.311 15.75,-6.188 1.033,-0.365 2.038,-0.547 3.012,-0.547 5.035,0 9.281,4.871 12.738,14.61 3.396,-2.668 6.166,-4.003 8.308,-4.003 1.168,0 2.149,0.397 2.943,1.191 2.25,2.25 4.5,4.313 6.75,6.188 0.373,-3.748 0.186,-6.937 -0.563,-9.563 -0.752,-2.624 -1.314,-3.938 -1.688,-3.938 5.998,-2.999 10.498,-5.436 13.5,-7.313 0.714,-0.446 1.534,-0.669 2.46,-0.669 2.966,0 7.021,2.286 12.165,6.856 4.5,-2.999 8.248,-5.249 11.25,-6.75 0.94,-0.589 2.097,-0.882 3.473,-0.882 m 12.279,10.629 c 0.376,0 0.751,-0.063 1.127,-0.188 1.125,-0.374 1.125,-1.312 0,-2.813 -2.25,-2.25 -6.002,-4.124 -11.25,-5.625 -1.877,0 -3.189,0.563 -3.938,1.688 -0.377,0.751 0.563,1.314 2.813,1.688 3.748,0.751 6.75,2.25 9,4.5 0.749,0.5 1.499,0.75 2.248,0.75 M 568.53,217.33 c 0.282,0 0.61,-0.047 0.985,-0.141 1.499,-0.373 1.874,-1.498 1.125,-3.375 -1.501,-4.5 -3.375,-7.499 -5.625,-9 -0.938,-0.563 -1.782,-0.844 -2.532,-0.844 -0.75,0 -1.406,0.281 -1.968,0.844 -1.125,0.751 -0.751,1.876 1.125,3.375 3.749,3.002 5.625,5.625 5.625,7.875 0,0.843 0.422,1.266 1.265,1.266 m 93.252,13.453 c 0.989,0 2.107,-0.781 3.358,-2.344 0.748,-3.748 -0.752,-7.875 -4.5,-12.375 -1.126,-1.35 -2.115,-2.024 -2.971,-2.024 -0.569,0 -1.079,0.3 -1.529,0.899 -1.125,1.501 -0.752,3.002 1.125,4.5 2.998,1.501 3.748,4.127 2.25,7.875 0,1.501 0.563,2.626 1.688,3.375 0.188,0.062 0.381,0.094 0.579,0.094 m -90.019,25.406 c 0.375,0 0.751,-0.063 1.127,-0.188 1.125,-0.749 1.125,-1.688 0,-2.813 -3.001,-3.748 -4.876,-5.998 -5.625,-6.75 -1.642,-1.171 -2.917,-1.757 -3.824,-1.757 -0.545,0 -0.958,0.21 -1.238,0.632 -0.751,0.752 -0.563,1.877 0.563,3.375 4.5,3.751 6.75,6.001 6.75,6.75 0.749,0.501 1.498,0.751 2.247,0.751 m 31.434,31.635 c 0.956,0 2.104,-0.67 3.443,-2.01 4.5,-8.248 6.75,-19.125 6.75,-32.625 0,-2.623 -0.939,-3.938 -2.813,-3.938 -0.268,-0.053 -0.516,-0.08 -0.745,-0.08 -1.38,0 -2.067,0.962 -2.067,2.892 0,10.501 -1.502,21.002 -4.5,31.5 -1.877,1.501 -2.25,2.813 -1.125,3.938 0.323,0.215 0.674,0.323 1.057,0.323 m 42.256,-18.323 c 2.998,0 5.063,-1.312 6.188,-3.938 l -9,-4.5 c -0.752,5.252 0.185,8.065 2.812,8.438 m 9.314,2.907 c 1.353,0 2.185,-0.781 2.499,-2.344 0.373,-1.874 -0.189,-3.186 -1.688,-3.938 -0.321,-0.214 -0.627,-0.321 -0.918,-0.321 -0.728,0 -1.36,0.669 -1.895,2.008 -1.125,2.25 -0.752,3.751 1.125,4.5 0.313,0.063 0.606,0.095 0.877,0.095 m -79.94,1.143 c -0.316,0 -0.586,-0.038 -0.812,-0.113 l -1.125,13.5 c 2.999,2.25 7.124,3.375 12.375,3.375 -0.377,-3.375 -1.688,-5.998 -3.938,-7.875 -1.877,-1.874 -2.439,-3.748 -1.688,-5.625 l 5.625,3.375 c 2.998,-5.998 3.748,-9.749 2.25,-11.25 -1.125,0.752 -3.375,1.688 -6.75,2.813 -2.697,1.2 -4.677,1.8 -5.937,1.8 m 60.501,11.7 c 2.623,-0.373 4.311,-0.563 5.063,-0.563 0.281,0.094 0.527,0.141 0.738,0.141 0.633,0 0.949,-0.422 0.949,-1.266 0.373,-0.749 -0.189,-1.125 -1.688,-1.125 -3.375,0 -5.439,-0.749 -6.188,-2.25 -0.752,-1.498 -0.939,-2.25 -0.563,-2.25 -0.585,-2.041 -1.281,-3.062 -2.092,-3.062 -0.23,0 -0.471,0.083 -0.721,0.25 -1.125,0.752 -1.314,2.063 -0.563,3.938 0.376,4.126 2.063,6.187 5.065,6.187 m 3.938,6.187 c 2.623,-0.373 4.311,-1.125 5.063,-2.25 0.28,-0.844 -0.389,-1.265 -2.007,-1.265 -0.538,0 -1.182,0.046 -1.931,0.14 -0.805,0.054 -1.563,0.081 -2.275,0.081 -4.27,0 -6.886,-0.965 -7.85,-2.893 -1.502,-2.25 -2.25,-4.687 -2.25,-7.313 -0.585,-2.041 -1.281,-3.062 -2.092,-3.062 -0.23,0 -0.471,0.083 -0.721,0.25 -1.125,0.752 -1.314,2.063 -0.563,3.938 -0.377,4.876 1.125,8.064 4.5,9.563 3.376,1.876 6.751,2.811 10.126,2.811 m -91.689,26.719 c 0.75,0 1.313,-0.281 1.688,-0.844 0.749,-1.125 0.749,-2.25 0,-3.375 -2.25,-1.501 -3.375,-3.751 -3.375,-6.75 -0.376,-3.002 -0.376,-4.5 0,-4.5 1.125,-1.877 0.749,-2.813 -1.125,-2.813 -1.876,0 -3.001,2.061 -3.375,6.188 -0.751,5.249 0.374,9 3.375,11.25 1.125,0.563 2.062,0.844 2.812,0.844 m 77.064,3.656 c 3.748,-0.376 5.625,-1.314 5.625,-2.813 -0.377,-1.877 -1.877,-2.813 -4.5,-2.813 -17.627,-2.626 -30.189,-4.876 -37.688,-6.75 -7.502,-2.25 -11.064,-3.375 -10.688,-3.375 -0.805,-0.482 -1.471,-0.724 -2,-0.724 -0.704,0 -1.163,0.429 -1.376,1.286 -0.751,1.498 0.374,2.813 3.375,3.938 13.123,3.748 24.188,6.374 33.188,7.875 9.001,1.5 13.687,2.625 14.064,3.376 M 632.61,190.06 c -2.388,0 -4.528,0.544 -6.366,1.619 -2.297,1.16 -4.913,2.669 -7.926,4.574 -4.816,-3.683 -8.881,-5.421 -12.593,-5.421 -2.064,0 -3.962,0.532 -5.641,1.581 -2.823,1.765 -7.198,4.132 -13.002,7.034 -2.133,1.067 -3.398,3.271 -3.313,5.584 -0.472,-0.063 -0.955,-0.096 -1.446,-0.096 -1.773,0 -3.596,0.405 -5.537,1.246 -4.072,-7.872 -9.271,-11.853 -15.509,-11.853 -1.598,0 -3.226,0.28 -4.844,0.832 -6.699,1.979 -12.349,4.212 -16.792,6.636 -2.883,1.573 -3.966,5.171 -2.43,8.074 2.83,5.346 4.113,10.324 3.816,14.796 -0.009,0.132 -0.013,0.265 -0.013,0.397 0,2.983 0.812,8.779 6.571,12.24 -0.75,0.218 -1.453,0.582 -2.069,1.075 -2.269,1.815 -4.8,4.535 -7.739,8.315 -0.148,0.19 -0.284,0.39 -0.408,0.596 -2.711,4.52 -3.861,6.341 -4.349,7.074 -0.656,0.985 -1.006,2.142 -1.006,3.325 0,3.672 0,14.847 8.394,17.993 0.212,0.08 0.428,0.146 0.646,0.202 0.769,0.193 1.503,0.348 2.209,0.465 v 9.132 l -3.433,1.716 c -0.577,0.289 -1.104,0.668 -1.56,1.124 -1.212,1.212 -1.924,2.627 -3.705,8.542 -1.717,4.751 -2.552,8.498 -2.552,11.451 0,0.221 0.012,0.442 0.037,0.662 0.963,8.679 4.202,14.729 9.627,17.984 0.132,0.079 0.266,0.153 0.403,0.221 2.006,1.003 4.018,1.512 5.978,1.512 2.429,0 6.859,-0.841 10.289,-6.22 0.632,-0.453 1.888,-1.324 4.37,-2.979 0.122,-0.081 0.241,-0.167 0.356,-0.257 1.997,-1.553 3.222,-2.216 3.857,-2.493 2.663,0.752 8.73,2.281 23.693,5.845 15.939,3.793 33.616,6.676 52.542,8.571 0.198,0.02 0.398,0.03 0.598,0.03 0.061,0 0.121,-0.001 0.183,-0.003 5.792,-0.176 23.357,-0.709 25.403,-12.763 1.172,-5.521 2.119,-12.714 2.894,-21.985 0.162,-1.946 -0.632,-3.849 -2.13,-5.102 -0.118,-0.099 -0.24,-0.193 -0.364,-0.282 1.824,-3.335 2.831,-8.111 0.596,-14.525 0.515,-1.738 1.031,-3.385 1.54,-4.917 1.412,-3.437 1.34,-6.373 -0.215,-8.731 -0.736,-1.118 -1.752,-1.983 -2.955,-2.549 1.67,-4.904 2.089,-10.597 1.246,-16.934 -0.175,-1.317 -0.782,-2.539 -1.727,-3.474 -0.441,-0.437 -0.942,-0.821 -1.584,-1.193 5.038,-3.044 7.477,-8.633 6.705,-15.981 -0.009,-0.088 -0.02,-0.176 -0.033,-0.264 -1.846,-12.302 -8.719,-17.048 -14.159,-18.864 -0.612,-0.205 -1.254,-0.309 -1.899,-0.309 -0.666,0 -1.28,0.091 -1.897,0.287 -1.019,-2.517 -3.315,-4.947 -6.49,-7.771 -0.336,-0.298 -0.703,-0.558 -1.097,-0.774 -6.114,-3.361 -11.076,-4.995 -15.17,-4.995 l 0,0 z m -63.165,47.681 c 0.449,-0.194 0.894,-0.4 1.334,-0.616 0.738,0.894 1.04,1.443 1.155,1.692 10e-4,0.428 0.041,0.853 0.116,1.269 l -2.605,-2.345 0,0 z m 44.419,52.525 c 0.427,-1.247 0.837,-2.554 1.231,-3.922 0.518,1.53 1.165,2.954 1.94,4.27 -1.164,-0.114 -2.217,-0.23 -3.171,-0.348 l 0,0 z"
         id="path3063"
         inkscape:connector-curvature="0" /></g></g><g
     id="g3065"
     transform="translate(-532.01301,-190.06)" /><g
     id="g3067"
     transform="translate(-532.01301,-190.06)" /><g
     id="g3069"
     transform="translate(-532.01301,-190.06)" /><g
     id="g3071"
     transform="translate(-532.01301,-190.06)" /><g
     id="g3073"
     transform="translate(-532.01301,-190.06)" /><g
     id="g3075"
     transform="translate(-532.01301,-190.06)" /></svg>