<?xml version="1.0" encoding="UTF-8" standalone="no"?>
<!-- Created with Inkscape (http://www.inkscape.org/) -->

<svg
   xmlns:dc="http://purl.org/dc/elements/1.1/"
   xmlns:cc="http://creativecommons.org/ns#"
   xmlns:rdf="http://www.w3.org/1999/02/22-rdf-syntax-ns#"
   xmlns:svg="http://www.w3.org/2000/svg"
   xmlns="http://www.w3.org/2000/svg"
   version="1.1"
   width="674.94495"
   height="656.0108"
   viewBox="0 0 674.94495 656.0108"
   id="svg2">
   <metadata
     id="metadata8"><rdf:RDF><cc:Work
         rdf:about=""><dc:format>image/svg+xml</dc:format><dc:type
           rdf:resource="http://purl.org/dc/dcmitype/StillImage" /><dc:title></dc:title></cc:Work></rdf:RDF></metadata><defs
     id="defs6"><clipPath
       id="clipPath18"><path
         d="M 0,768 1024,768 1024,0 0,0 0,768 z"
         id="path20" /></clipPath><clipPath
       id="clipPath588"><path
         d="M 0,768 1024,768 1024,0 0,0 0,768 z"
         id="path590" /></clipPath></defs><g
     transform="matrix(1.25,0,0,-1.25,-581.8977,917.06025)"
     id="g10"><g
       transform="translate(593.8271,708.2959)"
       id="g22"><path
         d="m 0,0 c 0,-13.974 -11.33,-25.302 -25.303,-25.302 -13.973,0 -25.303,11.328 -25.303,25.302 0,13.974 11.33,25.302 25.303,25.302 C -11.33,25.302 0,13.974 0,0"
         id="path24"
         style="fill:#FFFFFF;fill-opacity:1;fill-rule:nonzero;stroke:none" /></g><g
       transform="translate(593.8271,380.7939)"
       id="g26"><path
         d="m 0,0 c 0,-13.973 -11.33,-25.299 -25.303,-25.299 -13.973,0 -25.303,11.326 -25.303,25.299 0,13.974 11.33,25.303 25.303,25.303 C -11.33,25.303 0,13.974 0,0"
         id="path28"
         style="fill:#FFFFFF;fill-opacity:1;fill-rule:nonzero;stroke:none" /></g><g
       transform="translate(675.7139,708.2959)"
       id="g30"><path
         d="m 0,0 c 0,-13.974 -11.328,-25.302 -25.302,-25.302 -13.973,0 -25.302,11.328 -25.302,25.302 0,13.974 11.329,25.302 25.302,25.302 C -11.328,25.302 0,13.974 0,0"
         id="path32"
         style="fill:#FFFFFF;fill-opacity:1;fill-rule:nonzero;stroke:none" /></g><g
       transform="translate(675.7139,380.7939)"
       id="g34"><path
         d="m 0,0 c 0,-13.973 -11.328,-25.299 -25.302,-25.299 -13.973,0 -25.302,11.326 -25.302,25.299 0,13.974 11.329,25.303 25.302,25.303 C -11.328,25.303 0,13.974 0,0"
         id="path36"
         style="fill:#FFFFFF;fill-opacity:1;fill-rule:nonzero;stroke:none" /></g><g
       transform="translate(839.4893,708.2959)"
       id="g38"><path
         d="m 0,0 c 0,-13.974 -11.328,-25.302 -25.302,-25.302 -13.974,0 -25.302,11.328 -25.302,25.302 0,13.974 11.328,25.302 25.302,25.302 C -11.328,25.302 0,13.974 0,0"
         id="path40"
         style="fill:#FFFFFF;fill-opacity:1;fill-rule:nonzero;stroke:none" /></g><g
       transform="translate(839.4893,380.7939)"
       id="g42"><path
         d="m 0,0 c 0,-13.973 -11.328,-25.299 -25.302,-25.299 -13.974,0 -25.302,11.326 -25.302,25.299 0,13.974 11.328,25.303 25.302,25.303 C -11.328,25.303 0,13.974 0,0"
         id="path44"
         style="fill:#FFFFFF;fill-opacity:1;fill-rule:nonzero;stroke:none" /></g><g
       transform="translate(593.8027,569.8594)"
       id="g46"><path
         d="m 0,0 c 0,-13.974 -11.327,-25.302 -25.303,-25.302 -13.973,0 -25.3,11.328 -25.3,25.302 0,13.975 11.327,25.302 25.3,25.302 C -11.327,25.302 0,13.975 0,0"
         id="path48"
         style="fill:#FFFFFF;fill-opacity:1;fill-rule:nonzero;stroke:none" /></g><g
       transform="translate(675.7119,519.2939)"
       id="g50"><path
         d="m 0,0 c 0,-13.974 -11.327,-25.302 -25.3,-25.302 -13.975,0 -25.302,11.328 -25.302,25.302 0,13.974 11.327,25.301 25.302,25.301 C -11.327,25.301 0,13.974 0,0"
         id="path52"
         style="fill:#FFFFFF;fill-opacity:1;fill-rule:nonzero;stroke:none" /></g><g
       transform="translate(593.8271,718.0122)"
       id="g54"><path
         d="m 0,0 c 0,-8.635 -7.002,-15.635 -15.637,-15.635 -8.634,0 -15.636,7 -15.636,15.635 0,8.635 7.002,15.636 15.636,15.636 C -7.002,15.636 0,8.635 0,0"
         id="path56"
         style="fill:#FFFFFF;fill-opacity:1;fill-rule:nonzero;stroke:none" /></g><g
       transform="translate(593.8027,560.1934)"
       id="g58"><path
         d="m 0,0 c 0,-8.636 -7.002,-15.636 -15.636,-15.636 -8.634,0 -15.634,7 -15.634,15.636 0,8.634 7,15.635 15.634,15.635 C -7.002,15.635 0,8.634 0,0"
         id="path60"
         style="fill:#FFFFFF;fill-opacity:1;fill-rule:nonzero;stroke:none" /></g><g
       transform="translate(656.3809,718.0122)"
       id="g62"><path
         d="m 0,0 c 0,-8.635 -7,-15.635 -15.636,-15.635 -8.634,0 -15.635,7 -15.635,15.635 0,8.635 7.001,15.636 15.635,15.636 C -7,15.636 0,8.635 0,0"
         id="path64"
         style="fill:#FFFFFF;fill-opacity:1;fill-rule:nonzero;stroke:none" /></g><g
       transform="translate(656.3809,604.8203)"
       id="g66"><path
         d="m 0,0 c 0,-8.635 -7,-15.635 -15.636,-15.635 -8.634,0 -15.635,7 -15.635,15.635 0,8.635 7.001,15.636 15.635,15.636 C -7,15.636 0,8.635 0,0"
         id="path68"
         style="fill:#FFFFFF;fill-opacity:1;fill-rule:nonzero;stroke:none" /></g><g
       transform="translate(675.7139,604.8203)"
       id="g70"><path
         d="m 0,0 c 0,-8.635 -6.999,-15.635 -15.637,-15.635 -8.633,0 -15.634,7 -15.634,15.635 0,8.635 7.001,15.636 15.634,15.636 C -6.999,15.636 0,8.635 0,0"
         id="path72"
         style="fill:#FFFFFF;fill-opacity:1;fill-rule:nonzero;stroke:none" /></g><g
       transform="translate(574.4932,484.3198)"
       id="g74"><path
         d="m 0,0 c 0,-8.635 -7.001,-15.635 -15.635,-15.635 -8.636,0 -15.637,7 -15.637,15.635 0,8.636 7.001,15.635 15.637,15.635 C -7.001,15.635 0,8.636 0,0"
         id="path76"
         style="fill:#FFFFFF;fill-opacity:1;fill-rule:nonzero;stroke:none" /></g><g
       transform="translate(593.8271,484.3198)"
       id="g78"><path
         d="m 0,0 c 0,-8.635 -7.002,-15.635 -15.637,-15.635 -8.634,0 -15.636,7 -15.636,15.635 0,8.636 7.002,15.635 15.636,15.635 C -7.002,15.635 0,8.636 0,0"
         id="path80"
         style="fill:#FFFFFF;fill-opacity:1;fill-rule:nonzero;stroke:none" /></g><g
       transform="translate(656.3809,528.9604)"
       id="g82"><path
         d="m 0,0 c 0,-8.636 -7,-15.636 -15.636,-15.636 -8.635,0 -15.635,7 -15.635,15.636 0,8.635 7,15.635 15.635,15.635 C -7,15.635 0,8.635 0,0"
         id="path84"
         style="fill:#FFFFFF;fill-opacity:1;fill-rule:nonzero;stroke:none" /></g><g
       transform="translate(593.8271,371.1289)"
       id="g86"><path
         d="m 0,0 c 0,-8.637 -7.002,-15.634 -15.637,-15.634 -8.634,0 -15.636,6.997 -15.636,15.634 0,8.635 7.002,15.635 15.636,15.635 C -7.002,15.635 0,8.635 0,0"
         id="path88"
         style="fill:#FFFFFF;fill-opacity:1;fill-rule:nonzero;stroke:none" /></g><g
       transform="translate(656.3809,371.1289)"
       id="g90"><path
         d="m 0,0 c 0,-8.637 -7,-15.634 -15.636,-15.634 -8.634,0 -15.635,6.997 -15.635,15.634 0,8.635 7.001,15.635 15.635,15.635 C -7,15.635 0,8.635 0,0"
         id="path92"
         style="fill:#FFFFFF;fill-opacity:1;fill-rule:nonzero;stroke:none" /></g><g
       transform="translate(738.2686,718.0122)"
       id="g94"><path
         d="m 0,0 c 0,-8.635 -7.001,-15.635 -15.636,-15.635 -8.635,0 -15.635,7 -15.635,15.635 0,8.635 7,15.636 15.635,15.636 C -7.001,15.636 0,8.635 0,0"
         id="path96"
         style="fill:#FFFFFF;fill-opacity:1;fill-rule:nonzero;stroke:none" /></g><g
       transform="translate(757.6006,718.0122)"
       id="g98"><path
         d="m 0,0 c 0,-8.635 -6.999,-15.635 -15.634,-15.635 -8.637,0 -15.637,7 -15.637,15.635 0,8.635 7,15.636 15.637,15.636 C -6.999,15.636 0,8.635 0,0"
         id="path100"
         style="fill:#FFFFFF;fill-opacity:1;fill-rule:nonzero;stroke:none" /></g><g
       transform="translate(738.2686,371.127)"
       id="g102"><path
         d="m 0,0 c 0,-8.635 -7.001,-15.632 -15.636,-15.632 -8.635,0 -15.635,6.997 -15.635,15.632 0,8.637 7,15.637 15.635,15.637 C -7.001,15.637 0,8.637 0,0"
         id="path104"
         style="fill:#FFFFFF;fill-opacity:1;fill-rule:nonzero;stroke:none" /></g><g
       transform="translate(757.6006,371.127)"
       id="g106"><path
         d="m 0,0 c 0,-8.635 -6.999,-15.632 -15.634,-15.632 -8.637,0 -15.637,6.997 -15.637,15.632 0,8.637 7,15.637 15.637,15.637 C -6.999,15.637 0,8.637 0,0"
         id="path108"
         style="fill:#FFFFFF;fill-opacity:1;fill-rule:nonzero;stroke:none" /></g><g
       transform="translate(820.1563,718.0122)"
       id="g110"><path
         d="m 0,0 c 0,-8.635 -7,-15.635 -15.636,-15.635 -8.634,0 -15.635,7 -15.635,15.635 0,8.635 7.001,15.636 15.635,15.636 C -7,15.636 0,8.635 0,0"
         id="path112"
         style="fill:#FFFFFF;fill-opacity:1;fill-rule:nonzero;stroke:none" /></g><g
       transform="translate(820.1563,371.127)"
       id="g114"><path
         d="m 0,0 c 0,-8.635 -7,-15.632 -15.636,-15.632 -8.634,0 -15.635,6.997 -15.635,15.632 0,8.637 7.001,15.637 15.635,15.637 C -7,15.637 0,8.637 0,0"
         id="path116"
         style="fill:#FFFFFF;fill-opacity:1;fill-rule:nonzero;stroke:none" /></g><g
       transform="translate(902.0449,718.0122)"
       id="g118"><path
         d="m 0,0 c 0,-8.635 -7.001,-15.635 -15.635,-15.635 -8.635,0 -15.637,7 -15.637,15.635 0,8.635 7.002,15.636 15.637,15.636 C -7.001,15.636 0,8.635 0,0"
         id="path120"
         style="fill:#FFFFFF;fill-opacity:1;fill-rule:nonzero;stroke:none" /></g><g
       transform="translate(921.376,718.0122)"
       id="g122"><path
         d="m 0,0 c 0,-8.635 -7,-15.635 -15.633,-15.635 -8.638,0 -15.636,7 -15.636,15.635 0,8.635 6.998,15.636 15.636,15.636 C -7,15.636 0,8.635 0,0"
         id="path124"
         style="fill:#FFFFFF;fill-opacity:1;fill-rule:nonzero;stroke:none" /></g><g
       transform="translate(902.0449,371.127)"
       id="g126"><path
         d="m 0,0 c 0,-8.635 -7.001,-15.632 -15.635,-15.632 -8.635,0 -15.637,6.997 -15.637,15.632 0,8.637 7.002,15.637 15.637,15.637 C -7.001,15.637 0,8.637 0,0"
         id="path128"
         style="fill:#FFFFFF;fill-opacity:1;fill-rule:nonzero;stroke:none" /></g><g
       transform="translate(921.376,371.127)"
       id="g130"><path
         d="m 0,0 c 0,-8.635 -7,-15.632 -15.633,-15.632 -8.638,0 -15.636,6.997 -15.636,15.632 0,8.637 6.998,15.637 15.636,15.637 C -7,15.637 0,8.637 0,0"
         id="path132"
         style="fill:#FFFFFF;fill-opacity:1;fill-rule:nonzero;stroke:none" /></g><path
       d="m 543.221,569.859 50.606,0 0,138.437 -50.606,0 0,-138.437 z"
       id="path134"
       style="fill:#FFFFFF;fill-opacity:1;fill-rule:nonzero;stroke:none" /><path
       d="m 675.714,604.82 -50.604,0 0,103.476 50.604,0 0,-103.476 z"
       id="path136"
       style="fill:#FFFFFF;fill-opacity:1;fill-rule:nonzero;stroke:none" /><path
       d="m 625.11,519.294 50.604,0 0,-138.5 -50.604,0 0,138.5 z"
       id="path138"
       style="fill:#FFFFFF;fill-opacity:1;fill-rule:nonzero;stroke:none" /><path
       d="m 593.779,380.794 -50.559,0 0,103.526 50.559,0 0,-103.526 z"
       id="path140"
       style="fill:#FFFFFF;fill-opacity:1;fill-rule:nonzero;stroke:none" /><path
       d="m 757.601,371.127 -50.604,0 0,346.885 50.604,0 0,-346.885 z"
       id="path142"
       style="fill:#FFFFFF;fill-opacity:1;fill-rule:nonzero;stroke:none" /><path
       d="m 839.489,380.794 -50.604,0 0,327.502 50.604,0 0,-327.502 z"
       id="path144"
       style="fill:#FFFFFF;fill-opacity:1;fill-rule:nonzero;stroke:none" /><path
       d="m 921.376,371.127 -50.604,0 0,346.885 50.604,0 0,-346.885 z"
       id="path146"
       style="fill:#FFFFFF;fill-opacity:1;fill-rule:nonzero;stroke:none" /><path
       d="m 579.525,555.584 -11.025,0 0,-11.026 11.025,0 0,11.026 z"
       id="path148"
       style="fill:#FFFFFF;fill-opacity:1;fill-rule:nonzero;stroke:none" /><path
       d="m 578.167,560.193 15.636,0 0,9.666 -15.636,0 0,-9.666 z"
       id="path150"
       style="fill:#FFFFFF;fill-opacity:1;fill-rule:nonzero;stroke:none" /><path
       d="m 568.524,733.598 9.666,0 0,-15.585 -9.666,0 0,15.585 z"
       id="path152"
       style="fill:#FFFFFF;fill-opacity:1;fill-rule:nonzero;stroke:none" /><path
       d="m 593.827,708.296 -15.637,0 0,9.716 15.637,0 0,-9.716 z"
       id="path154"
       style="fill:#FFFFFF;fill-opacity:1;fill-rule:nonzero;stroke:none" /><path
       d="m 625.11,708.296 15.635,0 0,9.716 -15.635,0 0,-9.716 z"
       id="path156"
       style="fill:#FFFFFF;fill-opacity:1;fill-rule:nonzero;stroke:none" /><path
       d="m 650.412,733.598 -9.667,0 0,-15.585 9.667,0 0,15.585 z"
       id="path158"
       style="fill:#FFFFFF;fill-opacity:1;fill-rule:nonzero;stroke:none" /><path
       d="m 660.077,589.186 -19.332,0 0,15.635 19.332,0 0,-15.635 z"
       id="path160"
       style="fill:#FFFFFF;fill-opacity:1;fill-rule:nonzero;stroke:none" /><path
       d="m 741.967,733.648 -19.334,0 0,-15.636 19.334,0 0,15.636 z"
       id="path162"
       style="fill:#FFFFFF;fill-opacity:1;fill-rule:nonzero;stroke:none" /><path
       d="m 905.743,733.648 -19.333,0 0,-15.636 19.333,0 0,15.636 z"
       id="path164"
       style="fill:#FFFFFF;fill-opacity:1;fill-rule:nonzero;stroke:none" /><path
       d="m 578.19,499.955 -19.332,0 0,-15.635 19.332,0 0,15.635 z"
       id="path166"
       style="fill:#FFFFFF;fill-opacity:1;fill-rule:nonzero;stroke:none" /><path
       d="m 568.524,355.495 9.666,0 0,15.632 -9.666,0 0,-15.632 z"
       id="path168"
       style="fill:#FFFFFF;fill-opacity:1;fill-rule:nonzero;stroke:none" /><path
       d="m 593.827,380.794 -15.637,0 0,-9.667 15.637,0 0,9.667 z"
       id="path170"
       style="fill:#FFFFFF;fill-opacity:1;fill-rule:nonzero;stroke:none" /><path
       d="m 741.967,355.495 -19.334,0 0,15.632 19.334,0 0,-15.632 z"
       id="path172"
       style="fill:#FFFFFF;fill-opacity:1;fill-rule:nonzero;stroke:none" /><path
       d="m 905.743,355.495 -19.333,0 0,15.632 19.333,0 0,-15.632 z"
       id="path174"
       style="fill:#FFFFFF;fill-opacity:1;fill-rule:nonzero;stroke:none" /><path
       d="m 625.11,380.794 15.635,0 0,-9.667 -15.635,0 0,9.667 z"
       id="path176"
       style="fill:#FFFFFF;fill-opacity:1;fill-rule:nonzero;stroke:none" /><path
       d="m 650.412,355.495 -9.667,0 0,15.632 9.667,0 0,-15.632 z"
       id="path178"
       style="fill:#FFFFFF;fill-opacity:1;fill-rule:nonzero;stroke:none" /><path
       d="m 788.886,380.794 15.635,0 0,-9.667 -15.635,0 0,9.667 z"
       id="path180"
       style="fill:#FFFFFF;fill-opacity:1;fill-rule:nonzero;stroke:none" /><path
       d="m 814.188,355.495 -9.667,0 0,15.632 9.667,0 0,-15.632 z"
       id="path182"
       style="fill:#FFFFFF;fill-opacity:1;fill-rule:nonzero;stroke:none" /><path
       d="m 814.188,733.598 -9.667,0 0,-15.585 9.667,0 0,15.585 z"
       id="path184"
       style="fill:#FFFFFF;fill-opacity:1;fill-rule:nonzero;stroke:none" /><path
       d="m 788.886,708.296 15.635,0 0,9.716 -15.635,0 0,-9.716 z"
       id="path186"
       style="fill:#FFFFFF;fill-opacity:1;fill-rule:nonzero;stroke:none" /><path
       d="m 650.412,544.595 -9.667,0 0,-15.635 9.667,0 0,15.635 z"
       id="path188"
       style="fill:#FFFFFF;fill-opacity:1;fill-rule:nonzero;stroke:none" /><path
       d="m 625.11,519.294 15.635,0 0,9.666 -15.635,0 0,-9.666 z"
       id="path190"
       style="fill:#FFFFFF;fill-opacity:1;fill-rule:nonzero;stroke:none" /><g
       transform="translate(545.6436,243.8457)"
       id="g616"><path
         d="m 0,0 c -2.114,-1.821 -3.035,-2.367 -3.862,-2.367 -0.367,0 -0.827,0.181 -1.288,0.363 -8.735,3.917 -16.551,8.925 -23.264,14.571 -6.987,-6.558 -14.713,-11.475 -22.712,-14.571 -1.194,-0.455 -2.114,-0.638 -2.757,-0.638 -0.644,0 -1.013,0.183 -1.013,0.638 0,0.547 0.828,1.457 2.576,2.551 6.435,3.916 13.516,9.015 20.046,15.478 -4.231,4.009 -7.54,8.197 -10.576,12.385 -0.367,0.548 -0.551,1.002 -0.551,1.458 0,0.546 0.367,1.092 1.195,1.729 0.735,0.546 1.288,0.82 1.839,0.82 0.644,0 1.195,-0.455 1.84,-1.274 2.941,-4.006 5.884,-7.832 9.746,-11.383 4.047,4.643 7.449,9.835 9.655,15.753 l -20.688,-1.185 c -0.738,0 -1.657,-0.091 -2.392,-0.091 -1.104,0 -2.115,0.091 -2.666,0.639 -1.379,1.274 -2.024,2.458 -2.392,3.46 -0.367,1 -0.275,1.365 0.278,1.365 0.182,0 0.367,0 0.642,-0.09 1.012,-0.275 2.023,-0.364 3.034,-0.364 0.46,0 1.013,0.089 1.472,0.089 l 25.471,1.276 1.012,0 c 1.01,0 1.654,-0.091 2.483,-0.728 1.194,-0.82 1.471,-1.639 1.471,-2.277 0,-0.91 -0.737,-1.639 -0.828,-1.912 -2.943,-7.377 -7.357,-13.841 -12.505,-19.487 6.528,-5.28 14.437,-9.925 23.907,-13.477 C 0.46,2.276 1.011,1.82 1.011,1.366 1.011,1.002 0.643,0.547 0,0"
         id="path618"
         style="fill:#FFFFFF;fill-opacity:1;fill-rule:nonzero;stroke:none" /></g><g
       transform="translate(542.2871,294.6572)"
       id="g620"><path
         d="m 0,0 c -0.459,-4.464 -1.282,-5.464 -5.312,-6.193 -1.099,-0.182 -3.479,-0.364 -5.861,-0.364 -1.556,0 -3.022,0.092 -4.213,0.182 -3.205,0.272 -5.677,2.186 -5.677,6.01 l 0,0.182 0.276,16.846 -10.899,-0.818 0,-1.093 c 0,-3.189 -0.366,-7.105 -0.916,-9.562 -1.555,-7.103 -6.868,-13.022 -12.82,-16.39 -0.824,-0.455 -1.467,-0.638 -1.922,-0.638 -0.551,0 -0.825,0.274 -0.825,0.638 0,0.547 0.365,1.183 1.19,2.002 2.838,2.641 4.946,5.282 6.593,8.469 0.916,1.912 1.74,4.098 2.199,6.647 0.367,1.822 0.64,4.188 0.64,7.102 0,0.73 -0.092,1.549 -0.092,2.369 -0.091,1.638 -0.273,3.915 -0.64,4.825 -0.275,0.728 -0.457,1.275 -0.457,1.639 0,0.365 0.274,0.638 0.824,0.638 0.915,0 2.654,-0.548 5.86,-1.821 l 12.271,1.093 c 0.641,0.09 1.099,0.09 1.556,0.09 0.734,0 1.284,-0.181 2.016,-0.728 1.282,-1.002 1.647,-1.73 1.647,-2.367 0,-0.546 -0.274,-1.002 -0.274,-1.457 l -0.733,-16.573 0,-0.273 c 0,-1.184 0.642,-1.366 1.466,-1.458 0.824,-0.09 1.649,-0.09 2.564,-0.09 1.74,0 3.572,0.09 5.128,0.364 0.733,0.091 1.373,0.546 1.74,1.638 0.184,0.456 0.366,1.002 0.459,1.458 0.823,2.458 1.373,5.1 1.739,7.739 0.275,2.095 0.915,3.096 1.464,3.096 0.644,0 1.101,-1.092 1.283,-3.277 C 0.458,6.556 0.366,3.551 0,0"
         id="path622"
         style="fill:#FFFFFF;fill-opacity:1;fill-rule:nonzero;stroke:none" /></g><g
       transform="translate(659.6416,286.4023)"
       id="g624"><path
         d="m 0,0 -20.487,-1.184 0,-45.984 c 0,-1.73 -0.766,-2.368 -1.82,-2.368 -0.669,0 -1.435,0.272 -2.297,0.729 -1.82,1.002 -2.873,2.095 -2.873,3.734 0,0.272 0,0.545 0.097,0.91 0.383,1.821 0.67,3.732 0.67,5.463 l 0.096,37.244 -12.35,-0.73 c -0.67,-0.09 -1.34,-0.09 -2.012,-0.09 -1.819,0 -3.446,0.272 -4.116,0.91 -1.244,1.184 -2.009,2.731 -2.394,4.188 0,0.182 -0.095,0.365 -0.095,0.547 0,0.274 0.095,0.456 0.384,0.456 0.19,0 0.382,-0.092 0.575,-0.182 1.244,-0.546 2.393,-0.639 3.827,-0.639 l 1.149,0 15.032,0.821 0,23.766 c 0,1.365 -0.192,2.64 -1.149,3.914 -0.287,0.365 -0.383,0.728 -0.383,0.911 0,0.91 1.627,1.003 4.404,0.183 2.872,-0.819 3.255,-1.274 3.255,-2.823 l 0,-25.588 12.446,0.729 c 1.435,0.091 2.967,0.273 4.307,0.729 0.383,0.09 0.671,0.182 0.959,0.182 0.67,0 1.338,-0.455 2.967,-1.912 C 1.628,2.641 2.105,1.73 2.105,1.183 2.105,0.365 1.149,0.091 0,0"
         id="path626"
         style="fill:#FFFFFF;fill-opacity:1;fill-rule:nonzero;stroke:none" /></g><g
       transform="translate(853.5635,282.3164)"
       id="g628"><path
         d="m 0,0 -16.481,-0.91 0,-6.83 6.919,0.364 c 1.275,0.091 2.55,0.091 3.735,0.546 0.272,0.092 0.546,0.183 0.819,0.183 0.637,0 1.365,-0.364 2.549,-1.457 1.276,-1.093 1.731,-1.912 1.731,-2.459 0,-0.728 -0.82,-1.001 -2.003,-1.092 l -13.75,-0.638 0,-2.914 c 0.455,0.455 0.819,0.638 1.275,0.638 0.546,0 1.093,-0.274 1.911,-0.91 3.097,-2.37 6.829,-5.465 9.652,-8.379 0.73,-0.728 1.093,-1.365 1.093,-2.002 0,-0.638 -0.363,-1.276 -1.093,-2.187 -0.728,-0.819 -1.365,-1.273 -2.002,-1.273 -0.547,0 -1.092,0.363 -1.639,1.092 -2.46,3.096 -6.283,6.92 -9.197,9.288 l 0,-23.312 c 0,-1.548 -0.456,-2.275 -1.457,-2.275 -0.456,0 -1.184,0.181 -2.094,0.636 -1.64,0.821 -2.368,1.731 -2.368,2.914 0,0.274 0.091,0.456 0.091,0.728 0.274,1.55 0.455,3.278 0.455,4.919 0,0 0.09,8.559 0.09,14.66 0,0.728 0.548,3.643 0.548,3.643 -0.365,-0.911 -1.002,-1.913 -1.549,-2.642 -5.008,-6.283 -11.109,-11.837 -17.301,-15.39 -0.455,-0.271 -0.82,-0.454 -1.183,-0.545 -0.547,-0.273 -1.001,-0.365 -1.274,-0.365 -0.366,0 -0.548,0.183 -0.548,0.456 0,0.454 0.548,1.276 1.731,2.367 6.192,5.737 12.748,12.566 17.847,20.488 l -7.012,-0.363 c -1.093,0 -2.002,-0.091 -2.731,-0.091 -0.91,0 -1.548,0.091 -2.002,0.636 -0.911,0.912 -1.64,2.095 -2.096,3.279 -0.272,0.729 -0.182,1.093 0.274,1.093 0.182,0 0.272,-0.091 0.455,-0.091 0.91,-0.182 2.094,-0.365 3.369,-0.365 l 0.819,0 10.745,0.547 0,6.83 -12.293,-0.638 c -0.819,0 -1.639,-0.092 -2.275,-0.092 -1.094,0 -1.912,0.092 -2.459,0.638 -0.183,0.182 -0.364,0.365 -0.455,0.455 -0.821,0.912 -1.367,2.093 -1.732,3.095 -0.272,0.73 -0.18,1.094 0.275,1.094 0.182,0 0.273,-0.092 0.455,-0.092 0.91,-0.272 2.276,-0.454 3.551,-0.454 l 0.638,0 16.39,1.002 c 2.367,3.096 4.462,6.373 5.828,9.196 0.454,1.002 0.819,2.458 0.819,3.643 0,1.001 0.273,1.548 0.82,1.548 0.727,0 1.73,-0.638 3.278,-1.822 1.274,-1.001 1.73,-1.73 1.73,-2.276 0,-0.456 -0.182,-0.819 -0.456,-1.183 -2.275,-3.735 -4.552,-6.739 -6.555,-8.833 l 7.284,0.455 c 1.274,0.092 2.55,0.182 3.642,0.637 0.183,0.091 0.456,0.182 0.728,0.182 C -1.82,5.372 -1,4.918 0.274,3.825 1.549,2.732 2.004,1.913 2.004,1.273 2.004,0.456 1.185,0.092 0,0"
         id="path630"
         style="fill:#FFFFFF;fill-opacity:1;fill-rule:nonzero;stroke:none" /></g><g
       transform="translate(850.7412,301.8027)"
       id="g632"><path
         d="m 0,0 -27.683,-1.821 c -1.092,-0.091 -2.002,-0.183 -2.731,-0.183 -0.909,0 -1.548,0.183 -2.002,0.639 -0.183,0.181 -0.365,0.272 -0.457,0.454 -0.819,0.911 -1.364,1.912 -1.73,2.915 -0.273,0.728 -0.181,1.092 0.274,1.092 0.181,0 0.273,-0.091 0.456,-0.091 1.092,-0.273 2.64,-0.363 4.188,-0.273 l 10.472,0.637 -0.183,7.831 c 0,1.276 -0.456,2.368 -1.092,3.461 -0.183,0.365 -0.274,0.637 -0.274,0.819 0,0.546 0.456,0.82 1.276,0.82 0.636,0 1.638,-0.183 2.821,-0.638 2.369,-0.818 2.732,-1.183 2.732,-2.551 l -0.089,-9.378 7.194,0.455 c 1.273,0.092 2.549,0.183 3.64,0.638 0.275,0.092 0.547,0.182 0.82,0.182 0.639,0 1.458,-0.363 2.64,-1.364 C 1.548,2.55 2.003,1.731 2.003,1.184 2.003,0.364 1.184,0.092 0,0"
         id="path634"
         style="fill:#FFFFFF;fill-opacity:1;fill-rule:nonzero;stroke:none" /></g><g
       transform="translate(831.5283,287.7803)"
       id="g636"><path
         d="m 0,0 c -0.729,-0.546 -1.366,-0.819 -1.821,-0.819 -0.729,0 -1.276,0.546 -1.732,1.365 -1.365,2.458 -3.095,4.827 -5.008,7.102 -0.363,0.456 -0.545,0.82 -0.545,1.275 0,0.456 0.273,1.002 0.911,1.549 0.727,0.636 1.275,0.91 1.912,0.91 0.545,0 1.092,-0.274 1.638,-0.91 C -2.732,8.468 -0.729,6.01 1.002,3.552 1.365,3.004 1.548,2.55 1.548,2.094 1.548,1.457 1.092,0.729 0,0"
         id="path638"
         style="fill:#FFFFFF;fill-opacity:1;fill-rule:nonzero;stroke:none" /></g><g
       transform="translate(890.0596,284.6836)"
       id="g640"><path
         d="m 0,0 -11.644,-0.819 -0.085,-45.074 c 0,-1.822 -0.508,-2.55 -1.444,-2.55 -0.511,0 -1.189,0.273 -2.039,0.728 -1.614,0.911 -2.38,1.731 -2.38,3.188 0,0.364 0.086,0.818 0.17,1.274 0.339,1.639 0.425,3.37 0.425,5.282 l 0.171,36.787 -10.879,-0.819 c -0.086,-1.729 -0.171,-3.461 -0.34,-5.101 -1.36,-15.478 -5.016,-27.862 -13.089,-36.605 -0.171,-0.182 -0.34,-0.271 -0.424,-0.454 -0.765,-0.728 -1.274,-1.002 -1.614,-1.002 -0.256,0 -0.426,0.183 -0.426,0.546 0,0.547 0.255,1.366 0.934,2.46 6.12,10.106 8.5,20.851 9.519,35.33 0.34,4.462 0.595,10.29 0.595,16.209 0,1.821 0,3.641 -0.085,5.463 -0.086,1.638 -0.34,3.277 -0.848,4.735 -0.172,0.637 -0.342,1.185 -0.342,1.547 0,0.456 0.17,0.729 0.764,0.729 0.851,0 2.465,-0.546 5.356,-2.093 6.119,2.823 11.133,6.01 14.872,9.288 0.935,0.819 1.87,1.912 2.38,3.097 0.254,0.635 0.595,1 1.103,1 0.682,0 1.616,-0.821 2.806,-2.55 0.85,-1.366 1.276,-2.185 1.276,-2.913 0,-0.729 -0.51,-1.185 -1.276,-1.731 -6.374,-4.462 -12.833,-7.558 -20.822,-10.473 0,-4.005 0,-8.65 -0.17,-12.382 l 20.738,1.639 c 1.189,0.089 2.294,0.272 3.569,0.728 0.254,0.091 0.509,0.091 0.765,0.091 0.595,0 1.36,-0.274 2.719,-1.548 C 1.53,2.823 2.04,1.912 2.04,1.275 2.04,0.456 1.189,0.091 0,0"
         id="path642"
         style="fill:#FFFFFF;fill-opacity:1;fill-rule:nonzero;stroke:none" /></g><g
       transform="translate(953.3516,262.8291)"
       id="g644"><path
         d="m 0,0 c -7.009,-5.099 -14.629,-9.652 -21.638,-13.021 -1.489,-0.729 -2.715,-1.093 -3.678,-1.093 -0.527,0 -0.963,0.092 -1.315,0.274 -1.401,0.91 -2.365,2.093 -2.977,3.368 -0.176,0.365 -0.264,0.639 -0.264,0.91 0,0.365 0.264,0.64 0.789,0.73 l 0.263,0 c 1.576,0.091 3.415,0.728 4.292,1.002 2.541,0.819 5.081,2.003 7.883,3.095 l 0.177,20.853 -3.33,-0.182 c -0.788,0 -1.49,-0.091 -2.189,-0.091 -0.964,0 -1.664,0.091 -2.016,0.364 -1.226,1.184 -2.015,2.276 -2.453,3.46 -0.175,0.364 -0.262,0.729 -0.262,0.91 0,0.364 0.175,0.547 0.525,0.547 0.175,0 0.35,0 0.614,-0.091 0.788,-0.274 1.664,-0.365 2.628,-0.365 0.525,0 0.964,0.091 1.489,0.091 l 4.994,0.365 0.175,16.754 -4.73,-0.363 c -0.877,-0.091 -1.665,-0.091 -2.279,-0.091 l -0.438,0 c -0.788,0 -1.313,0.182 -1.665,0.454 -1.051,0.912 -2.101,2.277 -2.539,3.462 -0.175,0.364 -0.263,0.637 -0.263,0.91 0,0.455 0.437,0.637 1.227,0.455 1.05,-0.272 2.277,-0.365 3.24,-0.365 l 0.964,0 14.892,1.003 c 1.051,0.091 2.19,0.273 3.329,0.728 0.263,0.09 0.526,0.183 0.787,0.183 0.614,0 1.403,-0.364 2.629,-1.457 1.227,-1.093 1.751,-2.003 1.751,-2.642 0,-0.819 -0.875,-1.184 -2.014,-1.273 l -9.636,-0.639 -0.088,-16.845 1.14,0.091 c 1.138,0.09 2.628,0.454 3.767,0.729 0.35,0.09 0.612,0.181 0.874,0.181 0.615,0 1.403,-0.364 2.628,-1.458 1.228,-1.092 1.754,-1.912 1.754,-2.548 0,-0.821 -0.964,-1.184 -2.103,-1.276 l -8.06,-0.637 -0.087,-19.032 c 3.504,1.64 6.745,3.189 10.074,4.827 0.964,0.455 1.751,0.729 2.277,0.729 0.526,0 0.789,-0.183 0.789,-0.637 C 1.927,1.821 1.313,1.002 0,0"
         id="path646"
         style="fill:#FFFFFF;fill-opacity:1;fill-rule:nonzero;stroke:none" /></g><g
       transform="translate(970.083,282.8623)"
       id="g648"><path
         d="m 0,0 c -0.524,-21.309 -8.322,-33.873 -22.864,-43.252 -0.175,-0.092 -0.35,-0.183 -0.438,-0.274 -1.138,-0.637 -1.927,-0.911 -2.453,-0.911 -0.438,0 -0.7,0.183 -0.7,0.546 0,0.639 0.788,1.822 2.453,3.37 11.212,9.925 18.308,20.762 18.746,39.975 0.087,2.914 0.087,6.464 0.087,10.198 0,6.01 -0.087,12.567 -0.175,18.121 l 0,0.911 c 0,1.821 -0.087,4.189 -0.875,5.462 -0.526,0.821 -0.35,1.184 0.525,1.184 0.614,0 1.489,-0.183 2.716,-0.636 2.627,-1.003 3.065,-1.548 3.065,-2.46 l 0,-17.665 C 0.087,8.924 0.087,3.824 0,0"
         id="path650"
         style="fill:#FFFFFF;fill-opacity:1;fill-rule:nonzero;stroke:none" /></g><g
       transform="translate(957.6436,273.1191)"
       id="g652"><path
         d="m 0,0 c -0.264,-1.001 -0.699,-1.64 -1.577,-1.64 -0.526,0 -1.139,0.183 -2.015,0.639 -1.224,0.637 -1.663,1.184 -1.663,1.911 0,0.364 0.086,0.819 0.262,1.277 1.927,6.281 3.067,12.564 3.68,19.849 0.087,1.093 0.437,1.548 1.577,1.548 0.263,0 0.612,0 0.963,-0.09 1.665,-0.365 2.103,-0.911 2.103,-2.095 l 0,-0.365 C 2.804,13.659 1.751,7.103 0,0"
         id="path654"
         style="fill:#FFFFFF;fill-opacity:1;fill-rule:nonzero;stroke:none" /></g><g
       transform="translate(1003.3701,245.4375)"
       id="g656"><path
         d="m 0,0 -28.03,-0.819 c -1.051,0 -1.842,-0.092 -2.629,-0.092 -0.788,0 -1.402,0.092 -1.84,0.365 -1.488,1.002 -2.365,2.275 -2.978,4.006 -0.087,0.273 -0.175,0.546 -0.175,0.728 0,0.366 0.175,0.546 0.614,0.546 0.174,0 0.436,0 0.7,-0.09 1.138,-0.273 2.541,-0.456 3.766,-0.456 l 0.7,0 10.425,0.366 0,25.951 -2.979,-0.183 c -1.051,-0.091 -1.925,-0.182 -2.715,-0.182 -0.876,0 -1.576,0.182 -2.101,0.548 -1.665,1.092 -2.452,2.457 -2.805,3.732 -0.087,0.273 -0.087,0.546 -0.087,0.728 0,0.366 0.087,0.547 0.526,0.547 0.175,0 0.35,0 0.614,-0.091 1.139,-0.273 2.365,-0.366 3.592,-0.366 l 1.137,0 4.907,0.183 0,22.128 -4.556,-0.274 c -1.051,-0.091 -2.015,-0.18 -2.715,-0.18 l -0.438,0 c -0.788,0.089 -1.314,0.271 -1.664,0.545 -1.49,1.458 -2.367,2.64 -2.803,4.007 -0.089,0.273 -0.175,0.546 -0.175,0.728 0,0.364 0.175,0.547 0.611,0.547 0.176,0 0.352,0 0.615,-0.092 1.137,-0.364 2.453,-0.455 3.677,-0.455 l 1.053,0 15.769,1.001 c 1.313,0.091 2.627,0.365 3.94,0.821 0.264,0.09 0.44,0.181 0.702,0.181 0.613,0 1.403,-0.455 3.154,-1.912 1.314,-1.094 1.838,-1.912 1.838,-2.55 0,-0.818 -0.963,-1.092 -2.013,-1.183 l -11.651,-0.819 0,-22.31 1.576,0.091 c 1.314,0.091 3.504,0.454 4.818,0.82 0.35,0.09 0.613,0.181 0.875,0.181 0.701,0 1.49,-0.364 2.979,-1.638 1.314,-1.094 1.751,-2.004 1.751,-2.55 0,-0.82 -0.876,-1.184 -1.924,-1.276 l -10.165,-0.544 0,-25.954 6.66,0.182 c 1.313,0 2.802,0.365 3.942,0.639 0.35,0.09 0.611,0.181 0.963,0.181 0.701,0 1.402,-0.363 2.891,-1.638 C 1.578,2.914 2.104,2.095 2.104,1.366 2.104,0.547 1.141,0.091 0,0"
         id="path658"
         style="fill:#FFFFFF;fill-opacity:1;fill-rule:nonzero;stroke:none" /></g><g
       transform="translate(751.4297,258.9668)"
       id="g660"><path
         d="m 0,0 c -0.635,0 -1.359,0.265 -2.086,0.618 -1.632,0.71 -2.447,1.594 -2.447,3.101 0,0.265 0,0.528 0.089,0.884 0.272,1.681 0.454,3.187 0.454,4.87 l -0.091,30.275 c 0,1.507 -0.452,2.833 -1.179,3.985 -0.181,0.355 -0.363,0.621 -0.363,0.886 0,0.443 0.363,0.619 1.09,0.619 0.723,0 1.812,-0.266 3.082,-0.708 2.358,-0.797 2.632,-1.417 2.632,-2.744 L 1.452,1.858 C 1.452,0.53 0.907,0 0,0"
         id="path662"
         style="fill:#FFFFFF;fill-opacity:1;fill-rule:nonzero;stroke:none" /></g><g
       transform="translate(766.8486,245.2441)"
       id="g664"><path
         d="m 0,0 c 0,-1.15 0.092,-2.124 0.092,-2.923 0,-1.239 -0.182,-2.212 -1.451,-3.273 -1.181,-0.974 -1.996,-1.506 -2.995,-1.506 -0.997,0 -2.085,0.532 -3.717,1.593 -3.629,2.39 -7.348,5.578 -10.613,8.764 -1.087,1.063 -1.632,1.949 -1.632,2.48 0,0.353 0.272,0.531 0.725,0.531 0.544,0 1.451,-0.268 2.54,-0.886 4.263,-2.389 7.891,-3.895 11.155,-4.957 l 0.182,68.433 c 0,1.329 -0.544,2.746 -1.36,3.984 -0.273,0.356 -0.364,0.709 -0.364,0.887 0,0.442 0.364,0.707 1.089,0.707 0.818,0 1.995,-0.265 3.538,-0.797 2.629,-0.974 2.993,-1.506 2.993,-2.744 L 0,0 z"
         id="path666"
         style="fill:#FFFFFF;fill-opacity:1;fill-rule:nonzero;stroke:none" /></g><g
       transform="translate(477.6748,317.4111)"
       id="g668"><path
         d="m 0,0 c 0,0 0.785,0.064 1.679,-0.907 0.894,-0.972 2.15,-2.322 2.687,-2.917 0.538,-0.594 4.448,-5.057 5.366,-6.181 0.919,-1.123 2.884,-3.604 3.401,-4.298 0.517,-0.692 0.801,-1.122 0.893,-1.424 0.093,-0.302 0.218,-0.757 0.129,-1.103 -0.087,-0.346 -0.155,-0.658 -0.489,-1.111 -0.333,-0.452 -0.862,-1.096 -1.212,-1.362 -0.352,-0.264 -0.848,-0.676 -1.455,-0.621 -0.608,0.054 -0.823,0.277 -1.206,0.666 -0.383,0.393 -2.097,2.845 -2.501,3.495 -0.4,0.645 -1.7,2.429 -1.847,2.634 -0.147,0.205 -4.519,5.937 -4.713,6.172 -0.193,0.234 -2.098,2.382 -2.371,2.752 -0.273,0.368 -0.614,0.837 -0.642,1.317 -0.03,0.481 -0.069,0.76 0.199,1.317 0.266,0.554 0.905,1.019 1.103,1.15 C -0.783,-0.29 -0.366,-0.031 0,0"
         id="path670"
         style="fill:#FFFFFF;fill-opacity:1;fill-rule:nonzero;stroke:none" /></g><g
       transform="translate(465.6572,285.7715)"
       id="g672"><path
         d="M 0,0 C -0.207,0.892 -0.17,1.665 0.026,1.958 0.22,2.252 0.655,2.188 0.861,2.179 1.109,2.168 2.798,2.057 3.254,2.016 3.71,1.977 7.531,2.133 8.063,2.26 c 0.53,0.126 3.785,0.803 5.719,1.156 1.791,0.33 7.616,1.73 7.769,1.787 0.154,0.057 0.673,0.199 0.895,0.151 C 22.813,5.276 23.619,4.723 23.756,4.59 24.355,3.999 24.7,3.188 24.691,2.756 24.682,2.323 24.57,1.515 24.383,1.048 24.195,0.579 23.388,0.33 23.383,0.102 23.378,-0.13 23.311,-0.938 23.286,-1.532 23.261,-2.126 23.131,-8.456 23.131,-8.456 l -0.463,-23.175 -0.025,-1.475 c 0,0 1.95,1.258 4.049,3.178 1.892,1.733 2.353,2.073 4.587,4.189 2.483,2.35 3.527,2.657 3.791,2.435 0.312,-0.259 -0.208,-1.681 -0.731,-2.77 -0.561,-1.165 -2.998,-4.79 -4.535,-6.85 -1.601,-2.143 -2.271,-3.009 -4.713,-5.548 -1.593,-1.657 -3.686,-2.517 -4.284,-2.653 -0.597,-0.138 -3.012,0.311 -4.016,1.278 0,0 -1.098,0.977 -1.534,2.036 0,0 -0.533,1.122 -0.343,3.029 0.193,1.942 1.592,0.504 1.774,3.399 0.025,0.385 0.128,7.527 0.128,7.527 l 0.35,19.56 0.056,3.389 c 0,0 -5.295,-0.916 -7.415,-1.377 C 8.118,-2.652 6.446,-2.992 4.461,-3.127 1.962,-3.296 0.367,-1.582 0,0"
         id="path674"
         style="fill:#FFFFFF;fill-opacity:1;fill-rule:nonzero;stroke:none" /></g><g
       transform="translate(600.2441,318.4434)"
       id="g676"><path
         d="m 0,0 c 0,0 0.779,-0.115 1.431,-1.265 0.651,-1.149 1.567,-2.751 1.957,-3.45 0.389,-0.699 3.187,-5.932 3.827,-7.235 0.639,-1.302 1.993,-4.165 2.338,-4.956 0.347,-0.792 0.526,-1.275 0.549,-1.59 0.02,-0.316 0.04,-0.787 -0.123,-1.104 -0.166,-0.317 -0.302,-0.606 -0.73,-0.97 -0.427,-0.367 -1.088,-0.871 -1.49,-1.052 -0.404,-0.18 -0.978,-0.468 -1.557,-0.277 -0.58,0.189 -0.738,0.458 -1.023,0.923 -0.285,0.468 -1.399,3.245 -1.645,3.97 -0.244,0.72 -1.107,2.751 -1.202,2.984 -0.099,0.231 -3.058,6.805 -3.192,7.079 -0.136,0.272 -1.506,2.796 -1.689,3.216 -0.18,0.422 -0.407,0.956 -0.327,1.429 0.081,0.475 0.106,0.757 0.493,1.237 0.385,0.481 1.113,0.79 1.334,0.873 C -0.827,-0.106 -0.362,0.051 0,0"
         id="path678"
         style="fill:#FFFFFF;fill-opacity:1;fill-rule:nonzero;stroke:none" /></g><g
       transform="translate(585.583,285.5117)"
       id="g680"><path
         d="M 0,0 C -0.218,0.89 -0.192,1.663 0,1.961 0.191,2.256 0.629,2.197 0.833,2.191 1.082,2.182 2.772,2.093 3.228,2.059 3.684,2.023 7.504,2.231 8.033,2.364 c 0.529,0.133 3.776,0.851 5.703,1.229 1.788,0.35 7.594,1.826 7.746,1.885 0.153,0.059 0.67,0.208 0.894,0.163 C 22.744,5.566 23.558,5.024 23.695,4.893 24.302,4.31 24.656,3.504 24.654,3.071 24.649,2.638 24.549,1.828 24.368,1.358 24.186,0.889 23.382,0.628 23.38,0.398 23.379,0.169 23.32,-0.641 23.303,-1.236 23.286,-1.83 23.237,-8.16 23.237,-8.16 l -0.168,-23.18 -0.006,-1.473 c 0,0 1.932,1.282 4.008,3.23 1.87,1.754 2.326,2.1 4.533,4.244 2.453,2.382 3.495,2.702 3.761,2.485 0.313,-0.256 -0.188,-1.685 -0.698,-2.781 -0.545,-1.172 -2.936,-4.828 -4.448,-6.907 -1.573,-2.163 -2.232,-3.037 -4.64,-5.605 -1.573,-1.679 -3.655,-2.566 -4.251,-2.71 -0.595,-0.145 -3.016,0.272 -4.031,1.228 0,0 -1.11,0.963 -1.561,2.016 0,0 -0.546,1.114 -0.381,3.025 0.168,1.945 1.584,0.524 1.73,3.422 0.02,0.381 0.033,7.527 0.033,7.527 l 0.101,19.563 0.012,3.388 c 0,0 -5.28,-0.982 -7.396,-1.471 C 8.151,-2.549 6.483,-2.908 4.501,-3.068 2.004,-3.271 0.387,-1.576 0,0"
         id="path682"
         style="fill:#FFFFFF;fill-opacity:1;fill-rule:nonzero;stroke:none" /></g><g
       transform="translate(718.1123,318.127)"
       id="g684"><path
         d="m 0,0 c 0,0 1.068,0.106 3.427,-1.58 1.362,-0.973 1.642,-1.247 2.242,-1.962 0.531,-0.634 0.495,-1.247 0,-2.126 -0.498,-0.879 -1.173,-2 -1.173,-2 0,0 4.936,-4.101 6.55,-5.354 1.189,-0.923 4.194,-3.027 4.648,-3.363 0.452,-0.333 2.627,-2.029 3.2,-2.435 0.55,-0.39 2.125,-1.691 2.404,-1.946 0.281,-0.255 1.559,-1.325 1.841,-1.839 0.414,-0.758 0.536,-1.259 0.38,-2.05 -0.125,-0.635 -0.125,-0.531 -0.362,-1.103 -0.195,-0.476 -0.55,-1.077 -0.713,-1.249 -0.369,-0.383 -0.567,-0.551 -1.056,-0.807 -0.463,-0.243 -1.384,-0.243 -1.848,-0.008 -1.057,0.536 -1.499,1.074 -1.898,1.439 -0.731,0.671 -1.782,1.671 -2.312,2.146 -0.321,0.293 -3.053,2.741 -3.316,2.963 -0.295,0.245 -2.534,2.42 -2.994,2.801 -0.361,0.298 -6.93,7.137 -6.93,7.137 0,0 -2.307,-3.388 -2.817,-4.113 -0.508,-0.727 -4.316,-5.682 -4.774,-6.254 -0.46,-0.573 -3.848,-4.548 -4.56,-5.247 -0.714,-0.701 -4.598,-4.624 -6.064,-5.86 -1.464,-1.235 -4.266,-3.566 -5.54,-4.445 -1.273,-0.879 -2.088,-1.388 -2.802,-1.618 -0.713,-0.229 -1.097,0.431 -0.444,1.3 1.271,1.699 3.645,4.069 4.262,4.789 4.911,5.748 4.911,5.748 5.366,6.317 5.366,6.726 9.089,12.584 9.509,13.207 0.42,0.624 4.818,7.886 4.997,9.617 0.115,1.108 0.058,2.592 0.084,2.75 C -0.61,-0.408 -0.391,0.048 0,0"
         id="path686"
         style="fill:#FFFFFF;fill-opacity:1;fill-rule:nonzero;stroke:none" /></g><g
       transform="translate(710.6631,285.4834)"
       id="g688"><path
         d="m 0,0 10.323,0.651 c 0,0 4.811,0.308 6.348,0.553 0.847,0.137 1.494,0.383 3.092,-1.476 1.596,-1.86 1.493,-2.612 1.393,-3.898 -0.088,-1.16 -0.242,-1.669 -0.394,-3.502 -0.154,-1.835 -0.344,-3.709 -0.574,-6.993 -0.14,-2.014 -0.787,-6.148 -0.902,-6.624 -0.168,-0.687 -0.651,-2.521 -1.237,-3.312 -0.355,-0.475 -0.612,-1.094 -1.715,-1.916 -0.568,-0.425 -1.724,-0.617 -2.361,-0.477 -0.581,0.129 -1.702,0.931 -2.343,1.325 -0.659,0.404 -3.133,2.775 -4.713,4.356 -1.58,1.58 -2.715,3.235 -2.822,4.258 -0.09,0.864 -0.074,1.095 0.787,0.937 1.399,-0.253 1.831,-0.789 2.646,-1.298 0.816,-0.509 1.822,-1.337 2.33,-1.643 0.51,-0.305 1.307,-0.729 2.127,-1.006 1.023,-0.346 1.53,-0.408 1.734,-0.408 0.407,0 0.607,0.841 0.662,1.274 0.098,0.794 0.458,2.992 0.611,4.534 0.071,0.711 0.255,2.802 0.255,3.21 0,0.406 0.356,6.419 0.356,6.419 l 0,0.662 -15.64,-0.968 c 0,0 0.037,-16.965 0.037,-23.148 0,-4.057 0.491,-4.383 1.135,-5.382 0.642,-0.999 2.156,-2.254 10.647,-2.357 1.122,-0.013 7.948,-0.037 10.801,1.134 2.854,1.172 2.884,2.665 3.114,3.283 0.227,0.619 1.394,5.14 1.613,6.196 0.219,1.055 0.935,4.937 1.002,5.343 0.066,0.406 0.868,3.582 0.868,3.582 0,0 1.017,2.334 1.434,-0.551 0.419,-2.883 0.419,-4.504 0.419,-5.88 0,-1.376 -0.247,-8.405 -1.062,-11.668 -0.817,-3.26 -1.452,-3.682 -2.752,-4.805 -1.171,-1.011 -4.306,-1.747 -7.497,-2.04 -3.193,-0.295 -8.297,-0.744 -14.614,-0.295 -1.475,0.105 -5.195,1.076 -7.796,3.678 -2.698,2.7 -2.806,6.419 -2.782,10.152 0.011,1.628 -0.004,13.296 -0.004,14.621 0,0.671 0.232,7.323 0.087,8.691 -0.076,0.719 -0.651,2.389 -0.663,3.138 -0.011,0.748 0.318,1.595 1.044,2.37 1.199,1.278 1.246,0.878 1.552,0.953 0.307,0.076 0.787,-0.02 1.319,-0.417 C -1.015,0.417 -0.471,0 0,0"
         id="path690"
         style="fill:#FFFFFF;fill-opacity:1;fill-rule:nonzero;stroke:none" /></g><text
       transform="matrix(1,0,0,-1,473.2861,209.3037)"
       id="text692"><tspan
         x="0 18.809175 37.300793 57.087067 77.532883 87.719154 108.23825 118.74208 139.26118 155.72531 166.22914 186.67496 204.38489 223.19406 233.38034 253.31317 274.24753 284.75137 304.31781 325.25217 345.69797 356.20181 366.38806 387.32245 408.25681 428.04309 445.6553 462.68127 481.17288 491.35916 511.87827"
         y="0"
         id="tspan694"
         style="font-size:24.42749977px;font-variant:normal;font-weight:bold;font-stretch:normal;writing-mode:lr-tb;fill:#FFFFFF;fill-opacity:1;fill-rule:nonzero;stroke:none;font-family:Teen;-inkscape-font-specification:Teen-Bold">STUDIO OF DESIGN AND INNOVATION</tspan></text>
</g></svg>