<?xml version="1.0" encoding="utf-8"?>
<!-- Generator: Adobe Illustrator 16.0.0, SVG Export Plug-In . SVG Version: 6.00 Build 0)  -->
<!DOCTYPE svg PUBLIC "-//W3C//DTD SVG 1.1//EN" "http://www.w3.org/Graphics/SVG/1.1/DTD/svg11.dtd">
<svg version="1.1" xmlns="http://www.w3.org/2000/svg" xmlns:xlink="http://www.w3.org/1999/xlink" x="0px" y="0px" viewBox="0 0 566.93 481.89" enable-background="new 0 0 566.93 481.89">

<g id="layer1">
	<path stroke="#231815" stroke-width="3" stroke-miterlimit="10" d="M305.66,128.438c0,0,9.807-7.327,15.572-10.734"/>
	<path stroke="#231815" stroke-width="3" stroke-miterlimit="10" d="M179.822,349.082
		c-10.939,13.229-24.145,13.193-31.873,9.142c-24.566-12.879-14.402-39.488-4.616-50.666c8.333-9.518,30.714-20.245,37.201-6.086
		c6.098,13.31-11.535,15.604-17.251,19.065c-5.243,3.176-7.617,23.318,16.791,11.357"/>
	<path stroke="#231815" stroke-width="3" stroke-miterlimit="10" d="M179.939,366.611c0,0-19.684,12.763-16.872,20.334
		C165.879,394.515,181.454,378.292,179.939,366.611z"/>
	<path stroke="#231815" stroke-width="3" stroke-miterlimit="10" d="M179.939,366.611c0,0-1.331-51.53,4.976-58.62
		c6.168-6.935,13.395,0.313,13.585,7.566c0.206,7.827-12.295,24.168-12.295,24.168"/>
	<path stroke="#231815" stroke-width="3" stroke-miterlimit="10" d="M186.862,325.512c0,0,10.228-7.472,4.759-12.114
		c-2.756-2.34-7.685,17.958-3.943,45.299c0.535,3.905,1.229,7.995,2.107,12.24c7.027,33.961-20.451,47.62-33.423,40.666
		c-10.744-5.76-17.028-33.046,23.46-49.408"/>
	<path stroke="#231815" stroke-width="3" stroke-miterlimit="10" d="M187.677,358.223c0,0,15.387-12.333,20.72-24.895
		c3.253-7.663,7.316-13.295,1.178-16.254c-3.342-1.611-9.932,10.112-0.63,15.304"/>
	<path stroke="#231815" stroke-width="3" stroke-miterlimit="10" d="M194.931,308.467c0,0,26.235-21.744,28.271,13.15
		c0.79,13.533-13.869,27.464-34.857,41.534"/>
	<path stroke="#231815" stroke-width="3" stroke-miterlimit="10" d="M189.938,334.458c0,0,0.615,7.599,6.647,14.623"/>
	<path stroke="#231815" stroke-width="3" stroke-miterlimit="10" d="M238.813,339.047
		c-26.606,23.703-37.733,14.15-37.733,14.15"/>
	<path stroke="#231815" stroke-width="3" stroke-miterlimit="10" d="M210.656,208.919c0,0-17.543,21.848-14.071,41.315
		c3.472,19.468,27.271,25.745,29.651,30.505"/>
	<path stroke="#231815" stroke-width="3" stroke-miterlimit="10" d="M239.318,260.996
		c-26.823-14.061-10.896-36.254-10.896-36.254"/>
	<path stroke="#231815" stroke-width="3" stroke-miterlimit="10" d="M240.291,282.682
		c-4.542-14.926,1.222-35.181,5.408-43.695c4.512-9.176,11.9-28.631,11.9-28.631"/>
	<path stroke="#231815" stroke-width="3" stroke-miterlimit="10" d="M271.557,234.685c0,0-8.336,22.904-9.851,29.394
		c-1.514,6.489-3.615,26.01-0.155,30.552"/>
	<path stroke="#231815" stroke-width="3" stroke-miterlimit="10" d="M202.191,262.728c0,0,4.295,17.56,28.977,18.439
		c28.605,1.02,43.813,30.334,42.731,30.118"/>
	<path stroke="#231815" stroke-width="3" stroke-miterlimit="10" d="M305.232,279.98c0,0,7.261,24.121-33.275,31.689
		s-36.612,46.97-32.964,52.994c4.174,6.894,18.792,12.868,26.873-15.582c2.917-10.271,4.817-16.216,35.966-23.03
		c31.148-6.813,30.003-49.063,24.487-53.39"/>
	<path stroke="#231815" stroke-width="3" stroke-miterlimit="10" d="M262.054,262.728c0,0,10.057,15.892,6.067,39.046"
		/>
	<path stroke="#231815" stroke-width="3" stroke-miterlimit="10" d="M285.291,254.132c0,0,5.425,12.515,6.884,28.168
		c0.738,7.921,0.233,15.561-2.587,23.874"/>
	<path stroke="#231815" stroke-width="3" stroke-miterlimit="10" d="M291.922,281.214c0,0,10.578,2.084,33.596-8.375
		c4.55-2.067,18.031-5.258,19.979-0.715"/>
	<path stroke="#231815" stroke-width="3" stroke-miterlimit="10" d="M288.443,263.565c0,0,14.911-1.966,21.176-5.651
		c3.439-2.023,13.445-5.278,19.377-3.007"/>
	<path stroke="#231815" stroke-width="3" stroke-miterlimit="10" d="M246.055,185.468c0,0,19.656,52.413,48.136,77.15"
		/>
	<path stroke="#231815" stroke-width="3" stroke-miterlimit="10" d="M264.533,164.882c0,0,25.252,77.594,53.73,90.076"
		/>
	<path stroke="#231815" stroke-width="3" stroke-miterlimit="10" d="M265.694,168.297
		c9.135-28.262,5.025-40.171,5.025-40.171s4.819,10.383-22.593,28.229c-21.682,14.115-41.117,33.219-24.783,60.678
		c4.317,7.257,11.157,16.857,21.065,23.584"/>
	<path stroke="#231815" stroke-width="3" stroke-miterlimit="10" d="M288.774,178.547c0,0-2.206,21.315-5.802,31.373"/>
	<path stroke="#231815" stroke-width="3" stroke-miterlimit="10" d="M254.689,217.842
		c-33.358-25.944,12.658-54.998,12.658-54.998"/>
	<path stroke="#231815" stroke-width="3" stroke-miterlimit="10" d="M197.484,234.91c0,0-6.6-1.19-13.455-25.99
		c-1.085-3.925-4.355-8.408-12.309-14.277c-9.886-7.295,4.542-29.626,19.792-10.271s5.475,11.769,15.659,29.469"/>
	<path stroke="#231815" stroke-width="3" stroke-miterlimit="10" d="M277.866,333.457c0,0,50.94,41.144,70.385-8.417"/>
	<path stroke="#231815" stroke-width="3" stroke-miterlimit="10" d="M315.871,319.29c0,0,11.583,4.728,16.754-9.65"/>
	<path stroke="#231815" stroke-width="3" stroke-miterlimit="10" d="M327.488,299.603c0,0,8.806,23.399,25.898,27.268"
		/>
	<path stroke="#231815" stroke-width="3" stroke-miterlimit="10" d="M304.174,243.699c0,0,1.963-10.12,20.252-31.211
		c18.289-21.09,18.324-44.348,10.502-57.431c-1.871-3.129-8.35-7.724-6.178-12.792c1.5-3.5,5.144-3.994,8.25-4.125
		c3.891-0.165,10.906,0.261,12.096-1.902"/>
	<path stroke="#231815" stroke-width="3" stroke-miterlimit="10" d="M367.504,112.806c0,0-18.491,4.039-11.919,11.21
		c2.29,2.499,5.624,3.786,10.708-0.973c4.59-4.297,1.949-10.887-1.394-13.32c-0.359-0.261-0.727-0.475-1.094-0.632
		c-3.785-1.623-13.195-2.596-16.765,0.974c-3.568,3.569,2.488,6.132,3.245,6.473"/>
	<path stroke="#231815" stroke-width="3" stroke-miterlimit="10" d="M364.899,109.723c0,0-17.604,2.438-18.976,15.72
		s9.64,14.234,11.414,14.533c8.388,1.414,23.676-2.404,26.521-12.965c1.824-6.771,8.019-31.102-20.859-35.861
		s-39.539,4.135-43,6.406c-3.46,2.271-9.949,12.15-1.08,18.98c0,0,4.182,2.214,7.715,3.549s2.414,4.622,0,5.357
		c-2.414,0.736-31.028,8.189-17.557,26.802c2.829,3.909,8.112,8.22,8.328,17.413c0.217,9.193-0.974,18.278-10.275,34.718
		c0,0-14.171,16.67-15.732,21.212"/>
	<path stroke="#231815" stroke-width="3" stroke-miterlimit="10" d="M339.598,169.541c0,0,32.268-27.499,33.509-28.868
		c1.19-1.313,10.707-8.544,16.872-0.433c6.165,8.112-4.845,17.846-4.845,17.846s-33.295,25.961-33.079,30.828"/>
	<path stroke="#231815" stroke-width="3" stroke-miterlimit="10" d="M339.439,176.04c0,0,15.372,7.005,20.841,33.88"/>
	<path stroke="#231815" stroke-width="3" stroke-miterlimit="10" d="M361.248,178.785c0,0,5.522,19.751-3.91,38.895
		c-9.432,19.144-6.512,29.852-6.512,29.852"/>
	<path stroke="#231815" stroke-width="3" stroke-miterlimit="10" d="M379.374,162.844c0,0,14.436,24.66,5.76,53.213
		c-8.675,28.553-19.685,40.963-15.467,57.511"/>
	<path stroke="#231815" stroke-width="3" stroke-miterlimit="10" d="M336.57,192.379c0,0,14.254,8.761,18.393,30.547"/>
	<path stroke="#231815" stroke-width="3" stroke-miterlimit="10" d="M385.688,214.11c0,0,13.16,15.899,12.835,33.421"/>
	<path stroke="#231815" stroke-width="3" stroke-miterlimit="10" d="M324.426,212.488c0,0,11.404,10.185,16.793,28.129"
		/>
	<path stroke="#231815" stroke-width="3" stroke-miterlimit="10" d="M294.444,190.316c0,0-5.69,17.229,0.8,28.423"/>
	<path stroke="#231815" stroke-width="3" stroke-miterlimit="10" d="M221.766,215.275c0,0-26.029-5.869-14.595-32.719
		c3.674-8.628,7.981-13.375,26.198-26.85c18.17-13.441,17.561-49.317,17.561-49.317s-4.15-26.284,10.397-27.582
		c14.547-1.298,15.619,12.248,14.321,24.45"/>
	<path stroke="#231815" stroke-width="3" stroke-miterlimit="10" d="M327.488,347.554c0,0,8.438,9.73,22.168,7.313"/>
	<path stroke="#231815" stroke-width="3" stroke-miterlimit="10" d="M373.214,347.554c0,0,10.25-6.698,12.304-12.143"/>
	<path stroke="#231815" stroke-width="3" stroke-miterlimit="10" d="M377.693,236.823c0,0,11.869,10.708,22.776,10.708
		c4.28,0,13.289,3.521,10.53,15.734c-2.906,12.864-17.218,9.574-17.218,9.574s-4.51-0.936-10.285-4.028
		c-4.208-2.253-9.089-7.044-13.388-12.063"/>
	<path stroke="#231815" stroke-width="3" stroke-miterlimit="10" d="M375.413,298.04c0,0,17.594-13.192,20.189-25.037"
		/>
	<path stroke="#231815" stroke-width="3" stroke-miterlimit="10" d="M306.803,236.823c0,0,6.385,11.702,23.582,18.668
		c17.196,6.965,29.202,46.819,22.063,75.887s1.22,45.291,4.179,52.105c2.96,6.813,10.141,14.729,19.832,9.733
		c9.042-4.66,6.958-14.243,4.543-21.415c-3.47-10.305-11.032-26.522-7.788-42.787c3.245-16.266,10.751-64.936-36.644-90.894
		c0,0-15.105-9.733-16.648-20.279"/>
	<path stroke="#231815" stroke-width="3" stroke-miterlimit="10" d="M307.131,204.376c0,0-24.736-15.463-26.035-68.138
		c-0.088-3.561-1.652-6.49-11.711-8.112c-10.059-1.623-7.743-17.01-4.852-20.179c2.814-3.084,14.083-10.97,31.207,3.955
		c0,0,9.536,6.052,10.6,26.796"/>
	<path stroke="#231815" stroke-width="3" stroke-miterlimit="10" d="M309.078,152.246c0,0,0.007,16.347,8.061,24.991"/>
	<path stroke="#231815" stroke-width="3" stroke-miterlimit="10" d="M296.561,112.806c0,0,11.937-11.991,19.665-10.855"
		/>
	<path stroke="#231815" stroke-width="3" stroke-miterlimit="10" d="M384.27,106.075
		c3.045-1.418,9.673-5.267,13.062-8.848c4.389-4.638,14.219-19.57,6.708-20.854c-0.763-0.13-6.708-1.859-6.708,20.854"/>
	<path stroke="#231815" stroke-width="3" stroke-miterlimit="10" d="M386.901,104.567
		c2.6-24.51,8.905-33.12,18.11-32.249c4.446,0.42,11.322,3.239,3.822,17.452c-2.644,5.01-6.188,8.383-9.745,11.454
		c-4.422,3.817-11.218,8.443-14.038,9.819"/>
	<path stroke="#231815" stroke-width="3" stroke-miterlimit="10" d="M386.988,111.042c0,0,2.937,42.555,21.917,32.983
		c18.981-9.572-11.303-27.88-9.816-42.802"/>
	<path stroke="#231815" stroke-width="3" stroke-miterlimit="10" d="M387.166,307.557
		c1.298-6.651-3.358-16.868-3.358-16.868"/>
	<path stroke="#231815" stroke-width="3" stroke-miterlimit="10" d="M336.379,270.145c0,0,9.512,21.14,16.359,24.084"/>
	<path stroke="#231815" stroke-width="3" stroke-miterlimit="10" d="M372.764,332.219c0,0,18.358,1.104,28.192,17.243
		c2.279,3.74,9.377,9.678,17.521,0c9.566-11.367-11.105-42.969-42.785-42.843"/>
	<path stroke="#231815" stroke-width="3" stroke-miterlimit="10" d="M204.484,163.387
		c-9.248,5.516-14.515,19.175-14.515,19.175"/>
	<path stroke="#231815" stroke-width="3" stroke-miterlimit="10" d="M195.492,189.613c0,0,2.997-11.519,9.486-14.115"/>
	<path stroke="#231815" stroke-width="3" stroke-miterlimit="10" d="M197.984,130.6c0,0-27.734,17.04-1.178,39.958"/>
	<path stroke="#231815" stroke-width="3" stroke-miterlimit="10" d="M250.995,108.495c0,0-15.518-4.703-12.759,13.467
		c2.758,18.17-3.852,33.051-6.365,34.605"/>
	<path stroke="#231815" stroke-width="3" stroke-miterlimit="10" d="M223.208,164.076
		c-2.279-4.055-0.384-14.472-0.384-14.472c6.651-21.677-13.303-41.27-17.251-45.36c-3.948-4.09-13.411-10.998-21.922-3.535
		c-8.511,7.462-2.483,16.229,1.211,19.377c6.602,5.626,22.279,12.908,20.711,27.833s-1.887,29.04,1.599,34.637"/>
	<path stroke="#231815" stroke-width="3" stroke-miterlimit="10" d="M215.713,116.392c0,0,7.11-18.727,17.655-8.444
		c10.545,10.282-6.129,22.612-9.909,25.857"/>
	<path stroke="#231815" stroke-width="3" stroke-miterlimit="10" d="M223.803,145.347c0,0,11.17-6.039,15.073-13.09"/>
	<path stroke="#231815" stroke-width="3" stroke-miterlimit="10" d="M251.539,197.957c0,0-1.44,15.365,3.15,19.885"/>
	<path stroke="#231815" stroke-width="3" stroke-miterlimit="10" d="M203.064,341.068"/>
	<path stroke="#231815" stroke-width="3" stroke-miterlimit="10" d="M341.68,138.051c0,0,10.529-0.167,21.175,11.586"/>
	<path stroke="#231815" stroke-width="3" stroke-miterlimit="10" d="M256.298,317.075"/>
	<path stroke="#231815" stroke-width="3" stroke-miterlimit="10" d="M190.884,228.146"/>
	<path stroke="#231815" stroke-width="3" stroke-miterlimit="10" d="M190.01,226.552c0,0-31.343,55.699,20.63,70.622
		c11.969,3.437,38.206-1.165,45.658,19.9"/>
	<path stroke="#231815" stroke-width="3" stroke-miterlimit="10" d="M231.871,299.908c0,0-0.531,19.115-8.638,23.232"/>
	<path stroke="#231815" stroke-width="3" stroke-miterlimit="10" d="M224.465,233.719c0,0,2.318,11.333,18.093,13.252"
		/>
	<path stroke="#231815" stroke-width="3" stroke-miterlimit="10" d="M232.398,243.699c0,0-4.518,7.049-0.875,12.037"/>
	<path stroke="#231815" stroke-width="3" stroke-miterlimit="10" d="M285.873,198.383c0,0,0.971,6.533,6.049,9.27"/>
</g>

<g id="layer2">
	<g>
		<path stroke="#F5E75B" stroke-width="2" stroke-linecap="round" stroke-miterlimit="10" stroke-dasharray="10,4" d="
			M303.685,201.784c0,0-1.712,2.232,0.489,5.981"/>
		<g>
			<g>
				<path stroke="#F5E75B" stroke-width="2" stroke-linecap="round" stroke-miterlimit="10" d="M302.043,120.086
					c0,0,1.839-1.248,4.134-2.816"/>
				<path stroke="#F5E75B" stroke-width="2" stroke-linecap="round" stroke-miterlimit="10" d="M310.998,113.958
					c2.27-1.571,4.074-2.845,4.061-2.916"/>
			</g>
		</g>
		<g>
			<g>
				<path stroke="#F5E75B" stroke-width="2" stroke-linecap="round" stroke-miterlimit="10" d="M220.757,125.443
					c0,0,1.514-1.748,3.16-3.872"/>
				<path stroke="#F5E75B" stroke-width="2" stroke-linecap="round" stroke-miterlimit="10" d="M224.59,120.689
					c1.075-1.429,2.126-2.938,2.776-4.152"/>
			</g>
		</g>
		<g>
			<g>
				<path stroke="#F5E75B" stroke-width="2" stroke-linecap="round" stroke-miterlimit="10" d="M263.238,93.015
					c0,0,0.446,2.105,0.789,4.936"/>
				<path stroke="#F5E75B" stroke-width="2" stroke-linecap="round" stroke-miterlimit="10" d="M264.409,104.049
					c-0.017,1.788-0.18,3.52-0.587,4.951"/>
			</g>
		</g>
		<g>
			<g>
				<path stroke="#F5E75B" stroke-width="2" stroke-linecap="round" stroke-miterlimit="10" d="M328.75,142.265
					c0,0,1.915,0.616,4.67,1.78"/>
				
					<path stroke="#F5E75B" stroke-width="2" stroke-linecap="round" stroke-miterlimit="10" stroke-dasharray="10.782,4.3128" d="
					M337.341,145.838c3.598,1.779,7.654,4.184,10.749,7.125"/>
				<path stroke="#F5E75B" stroke-width="2" stroke-linecap="round" stroke-miterlimit="10" d="M349.588,154.519
					c1.142,1.309,2.072,2.708,2.688,4.193"/>
			</g>
		</g>
		<g>
			<g>
				<path stroke="#F5E75B" stroke-width="2" stroke-linecap="round" stroke-miterlimit="10" d="M317.014,276.371
					c0,0,0.674,1.866,1.032,4.882"/>
				
					<path stroke="#F5E75B" stroke-width="2" stroke-linecap="round" stroke-miterlimit="10" stroke-dasharray="9.6995,3.8798" d="
					M318.263,285.122c-0.057,9.612-4.574,24.906-29.819,34.116c-9.945,3.628-30.886,5.945-35.852,22.988"/>
				<path stroke="#F5E75B" stroke-width="2" stroke-linecap="round" stroke-miterlimit="10" d="M252.121,344.116
					c-0.322,1.541-0.522,3.193-0.582,4.966"/>
			</g>
		</g>
		<g>
			<g>
				<path stroke="#F5E75B" stroke-width="2" stroke-linecap="round" stroke-miterlimit="10" d="M291.299,328.622
					c0,0,1.644,1.079,4.357,2.443"/>
				
					<path stroke="#F5E75B" stroke-width="2" stroke-linecap="round" stroke-miterlimit="10" stroke-dasharray="10.4499,4.1799" d="
					M299.451,332.813c10.085,4.235,27.162,8.15,37.309-7.492"/>
				<path stroke="#F5E75B" stroke-width="2" stroke-linecap="round" stroke-miterlimit="10" d="M337.842,323.53
					c0.771-1.369,1.493-2.868,2.161-4.507"/>
			</g>
		</g>
		<g>
			<g>
				<path stroke="#F5E75B" stroke-width="2" stroke-linecap="round" stroke-miterlimit="10" d="M332.038,201.992
					c0,0,1.234,1.483,3.072,3.942"/>
				
					<path stroke="#F5E75B" stroke-width="2" stroke-linecap="round" stroke-miterlimit="10" stroke-dasharray="9.5379,3.8152" d="
					M337.352,209.017c3.988,5.642,9.202,13.883,11.872,21.69"/>
				<path stroke="#F5E75B" stroke-width="2" stroke-linecap="round" stroke-miterlimit="10" d="M349.806,232.543
					c0.484,1.667,0.837,3.302,1.019,4.876"/>
			</g>
		</g>
		<path stroke="#F5E75B" stroke-width="2" stroke-linecap="round" stroke-miterlimit="10" stroke-dasharray="10,4" d="
			M382.296,224.71c0,0,6.031,8.639,5.613,19.562"/>
		<path stroke="#F5E75B" stroke-width="2" stroke-linecap="round" stroke-miterlimit="10" stroke-dasharray="10,4" d="
			M238.508,273.297c-48.562-18.819-16.742-58.022-16.742-58.022"/>
		<g>
			<g>
				<path stroke="#F5E75B" stroke-width="2" stroke-linecap="round" stroke-miterlimit="10" d="M263.04,222.926
					c0,0-0.896,1.641-2.237,4.467"/>
				
					<path stroke="#F5E75B" stroke-width="2" stroke-linecap="round" stroke-miterlimit="10" stroke-dasharray="9.4927,3.7971" d="
					M259.222,230.843c-4.979,11.24-12.7,32.378-9.542,49.673"/>
				<path stroke="#F5E75B" stroke-width="2" stroke-linecap="round" stroke-miterlimit="10" d="M250.066,282.38
					c0.381,1.636,0.869,3.232,1.473,4.776"/>
			</g>
		</g>
		<g>
			<g>
				<path stroke="#F5E75B" stroke-width="2" stroke-linecap="round" stroke-miterlimit="10" d="M267.607,245.8
					c0,0,0.799,1.655,2.005,4.575"/>
				
					<path stroke="#F5E75B" stroke-width="2" stroke-linecap="round" stroke-miterlimit="10" stroke-dasharray="9.2984,3.7194" d="
					M270.987,253.829c3.992,10.391,10.07,29.483,9.842,48.953"/>
				<path stroke="#F5E75B" stroke-width="2" stroke-linecap="round" stroke-miterlimit="10" d="M280.788,304.646
					c-0.055,1.665-0.157,3.331-0.313,4.993"/>
			</g>
		</g>
		<g>
			<g>
				<path stroke="#F5E75B" stroke-width="2" stroke-linecap="round" stroke-miterlimit="10" d="M344.404,178.785
					c0,0,1.435-1.303,3.701-3.359"/>
				
					<path stroke="#F5E75B" stroke-width="2" stroke-linecap="round" stroke-miterlimit="10" stroke-dasharray="10.3473,4.1389" d="
					M351.172,172.646c5.91-5.356,14.396-13.03,19.982-18.021"/>
				<path stroke="#F5E75B" stroke-width="2" stroke-linecap="round" stroke-miterlimit="10" d="M372.698,153.249
					c1.771-1.575,3.107-2.748,3.761-3.292"/>
			</g>
		</g>
		<path stroke="#F5E75B" stroke-width="2" stroke-linecap="round" stroke-miterlimit="10" stroke-dasharray="10,4" d="
			M373.214,281.167c-2.92,1.081,8.236-5.677,10.283-12.356"/>
		<g>
			<g>
				<path stroke="#F5E75B" stroke-width="2" stroke-linecap="round" stroke-miterlimit="10" d="M373.046,248.501
					c0,0,1.496,1.318,3.917,3.101"/>
				
					<path stroke="#F5E75B" stroke-width="2" stroke-linecap="round" stroke-miterlimit="10" stroke-dasharray="10.1778,4.0711" d="
					M380.302,253.923c3.099,2.032,6.906,4.185,10.836,5.58"/>
				<path stroke="#F5E75B" stroke-width="2" stroke-linecap="round" stroke-miterlimit="10" d="M393.084,260.126
					c1.648,0.467,3.301,0.778,4.916,0.869"/>
			</g>
		</g>
		<g>
			<g>
				<path stroke="#F5E75B" stroke-width="2" stroke-linecap="round" stroke-miterlimit="10" d="M328.819,278.865
					c0,0,0.829,1.766,2.357,4.403"/>
				
					<path stroke="#F5E75B" stroke-width="2" stroke-linecap="round" stroke-miterlimit="10" stroke-dasharray="8.6806,3.4722" d="
					M332.979,286.232c3.383,5.314,8.661,12.266,15.202,16.463"/>
				<path stroke="#F5E75B" stroke-width="2" stroke-linecap="round" stroke-miterlimit="10" d="M349.674,303.591
					c1.473,0.823,3.005,1.499,4.588,1.98"/>
			</g>
		</g>
		<g>
			<g>
				<path stroke="#F5E75B" stroke-width="2" stroke-linecap="round" stroke-miterlimit="10" d="M282.395,152.246
					c0,0-0.411,1.923-1.063,4.883"/>
				
					<path stroke="#F5E75B" stroke-width="2" stroke-linecap="round" stroke-miterlimit="10" stroke-dasharray="8.4273,3.3709" d="
					M280.601,160.419c-1.44,6.434-3.486,15.289-5.137,21.303"/>
				<path stroke="#F5E75B" stroke-width="2" stroke-linecap="round" stroke-miterlimit="10" d="M275.008,183.345
					c-0.665,2.306-1.242,4.011-1.653,4.711"/>
			</g>
		</g>
		<g>
			<g>
				<path stroke="#F5E75B" stroke-width="2" stroke-linecap="round" stroke-miterlimit="10" d="M375.127,316.536
					c0,0,1.928,0,4.97,0.496"/>
				
					<path stroke="#F5E75B" stroke-width="2" stroke-linecap="round" stroke-miterlimit="10" stroke-dasharray="10.8645,4.3458" d="
					M384.347,317.928c6.849,1.771,16.208,5.796,23.382,14.942"/>
				<path stroke="#F5E75B" stroke-width="2" stroke-linecap="round" stroke-miterlimit="10" d="M409.027,334.619
					c0.928,1.318,1.811,2.732,2.637,4.25"/>
			</g>
		</g>
		<g>
			<g>
				<path stroke="#F5E75B" stroke-width="2" stroke-linecap="round" stroke-miterlimit="10" d="M204.004,138.671
					c0,0-1.743,1.32-3.581,3.477"/>
				
					<path stroke="#F5E75B" stroke-width="2" stroke-linecap="round" stroke-miterlimit="10" stroke-dasharray="11.4659,4.5863" d="
					M197.822,145.915c-1.938,3.643-2.71,8.249,1.064,12.827"/>
				<path stroke="#F5E75B" stroke-width="2" stroke-linecap="round" stroke-miterlimit="10" d="M200.473,160.411
					c1.085,1.002,2.41,1.998,4.011,2.976"/>
			</g>
		</g>
		<g>
			<g>
				<path stroke="#F5E75B" stroke-width="2" stroke-linecap="round" stroke-miterlimit="10" d="M252.732,175.499
					c0,0,0.799,1.643,2.221,4.476"/>
				
					<path stroke="#F5E75B" stroke-width="2" stroke-linecap="round" stroke-miterlimit="10" stroke-dasharray="10.2577,4.1031" d="
					M256.803,183.632c8.616,16.917,29.145,55.62,44.246,71.295"/>
				<path stroke="#F5E75B" stroke-width="2" stroke-linecap="round" stroke-miterlimit="10" d="M302.506,256.384
					c1.331,1.276,2.613,2.354,3.834,3.197"/>
			</g>
		</g>
		<g>
			<g>
				<path stroke="#F5E75B" stroke-width="2" stroke-linecap="round" stroke-miterlimit="10" d="M269.973,152.246
					c0,0-1.656,0.903-4.29,2.564"/>
				
					<path stroke="#F5E75B" stroke-width="2" stroke-linecap="round" stroke-miterlimit="10" stroke-dasharray="10.3668,4.1467" d="
					M262.213,157.078c-12.733,8.619-36.168,27.746-31.045,48.995c0,0,3.139,12.482,12.118,19.759"/>
				<path stroke="#F5E75B" stroke-width="2" stroke-linecap="round" stroke-miterlimit="10" d="M244.953,227.071
					c1.35,0.919,2.817,1.717,4.408,2.346"/>
			</g>
		</g>
		<g>
			<g>
				<path stroke="#F5E75B" stroke-width="2" stroke-linecap="round" stroke-miterlimit="10" d="M180.421,187.348
					c0,0,1.55,0.44,4.127,2.769"/>
				
					<path stroke="#F5E75B" stroke-width="2" stroke-linecap="round" stroke-miterlimit="10" stroke-dasharray="9.8903,3.9561" d="
					M187.297,192.954c3.457,4,7.932,10.784,12.751,22.22"/>
				<path stroke="#F5E75B" stroke-width="2" stroke-linecap="round" stroke-miterlimit="10" d="M200.81,217.012
					c0.602,1.479,1.208,3.03,1.818,4.658"/>
			</g>
		</g>
		<g>
			<g>
				<path stroke="#F5E75B" stroke-width="2" stroke-linecap="round" stroke-miterlimit="10" d="M273.355,112.806
					c0,0,2.044-0.504,4.955,0.25"/>
				
					<path stroke="#F5E75B" stroke-width="2" stroke-linecap="round" stroke-miterlimit="10" stroke-dasharray="9.4986,3.7994" d="
					M281.817,114.488c5.403,3.06,11.907,10.966,14.743,30.859c3.604,25.278,8.139,35.445,12.182,40.419"/>
				<path stroke="#F5E75B" stroke-width="2" stroke-linecap="round" stroke-miterlimit="10" d="M310.01,187.185
					c1.398,1.42,2.716,2.314,3.887,3.131"/>
			</g>
		</g>
		<g>
			<g>
				<path stroke="#F5E75B" stroke-width="2" stroke-linecap="round" stroke-miterlimit="10" d="M370.109,170.765
					c0,0,0.893,1.582,1.853,4.634"/>
				
					<path stroke="#F5E75B" stroke-width="2" stroke-linecap="round" stroke-miterlimit="10" stroke-dasharray="9.2072,3.6829" d="
					M372.919,178.953c1.829,8.05,2.829,21.833-3.595,40.455c-5.859,16.982-7.578,27.407-7.934,33.366"/>
				<path stroke="#F5E75B" stroke-width="2" stroke-linecap="round" stroke-miterlimit="10" d="M361.318,254.616
					c-0.06,3.566,0.419,4.966,0.419,4.966"/>
			</g>
		</g>
		<g>
			<g>
				<path stroke="#F5E75B" stroke-width="2" stroke-linecap="round" stroke-miterlimit="10" d="M191.524,107.948
					c0,0,1.711,0.953,4.167,2.756"/>
				
					<path stroke="#F5E75B" stroke-width="2" stroke-linecap="round" stroke-miterlimit="10" stroke-dasharray="10.0295,4.0118" d="
					M198.838,113.188c6.122,5.19,13.894,14.015,14.089,25.483c0.208,12.173,0.031,19.311,0.94,24.112"/>
				<path stroke="#F5E75B" stroke-width="2" stroke-linecap="round" stroke-miterlimit="10" d="M214.337,164.737
					c0.52,1.729,1.262,3.126,2.331,4.381"/>
			</g>
		</g>
		<g>
			<g>
				<path stroke="#F5E75B" stroke-width="2" stroke-linecap="round" stroke-miterlimit="10" d="M240.769,161.441
					c0,0,1.31-1.339,3.324-3.729"/>
				
					<path stroke="#F5E75B" stroke-width="2" stroke-linecap="round" stroke-miterlimit="10" stroke-dasharray="10.8032,4.3213" d="
					M246.811,154.354c4.399-5.65,10.246-14.242,14.149-24.158"/>
				<path stroke="#F5E75B" stroke-width="2" stroke-linecap="round" stroke-miterlimit="10" d="M261.724,128.166
					c0.561-1.561,1.07-3.151,1.514-4.765"/>
			</g>
		</g>
		<g>
			<g>
				<path stroke="#F5E75B" stroke-width="2" stroke-linecap="round" stroke-miterlimit="10" d="M313.691,225.95
					c0,0,0.192,1.962,1.472,4.759"/>
				
					<path stroke="#F5E75B" stroke-width="2" stroke-linecap="round" stroke-miterlimit="10" stroke-dasharray="9.6118,3.8447" d="
					M317.046,234.054c2.673,3.966,7.445,8.56,15.935,11.746c18.008,6.76,40.436,38.424,29.02,84.703
					c-2.345,9.505-1.916,30.375,3.691,41.931"/>
				<path stroke="#F5E75B" stroke-width="2" stroke-linecap="round" stroke-miterlimit="10" d="M366.596,374.136
					c0.906,1.555,1.928,2.884,3.071,3.921"/>
			</g>
		</g>
		<path stroke="#F5E75B" stroke-width="2" stroke-linecap="round" stroke-miterlimit="10" stroke-dasharray="10,4" d="
			M290.719,272.662c0,0,13.64-0.28,28.709-7.285c13.395-6.227,20.541-2.105,20.541-2.105"/>
		<g>
			<g>
				<path stroke="#F5E75B" stroke-width="2" stroke-linecap="round" stroke-miterlimit="10" d="M296.541,233.719
					c0,0,1.083-1.619,2.815-4.13"/>
				
					<path stroke="#F5E75B" stroke-width="2" stroke-linecap="round" stroke-miterlimit="10" stroke-dasharray="10.0813,4.0325" d="
					M301.658,226.281c5.145-7.328,12.979-18.058,17.77-22.554c7.604-7.138,18.569-33.836,0-54.124c0,0-9.479-13.093,8.902-17.347
					c2.78-0.644,8.428-1.042,12.582-2.442"/>
				<path stroke="#F5E75B" stroke-width="2" stroke-linecap="round" stroke-miterlimit="10" d="M342.786,129.053
					c1.748-0.863,2.967-2.017,3.138-3.61"/>
			</g>
		</g>
		<g>
			<g>
				<path stroke="#F5E75B" stroke-width="2" stroke-linecap="round" stroke-miterlimit="10" d="M246.738,306.174
					c0,0-0.698,1.783-2.035,4.565"/>
				
					<path stroke="#F5E75B" stroke-width="2" stroke-linecap="round" stroke-miterlimit="10" stroke-dasharray="9.0675,3.627" d="
					M243.075,313.978c-4.417,8.418-12.66,21.324-23.806,26.602"/>
				<path stroke="#F5E75B" stroke-width="2" stroke-linecap="round" stroke-miterlimit="10" d="M217.602,341.302
					c-1.551,0.61-3.155,1.069-4.809,1.347"/>
			</g>
		</g>
		<path stroke="#F5E75B" stroke-width="2" stroke-linecap="round" stroke-miterlimit="10" stroke-dasharray="10,4" d="
			M341.68,337.15c0,0,6.119,3.479,8.72,0.484"/>
		<path stroke="#F5E75B" stroke-width="2" stroke-linecap="round" stroke-miterlimit="10" stroke-dasharray="10,4" d="
			M196.382,248.856c0,0-20.723,34.727,37.868,41.833c8.309,1.008,18.757,1.529,30.79,22.703"/>
	</g>
</g>
</svg>
