<?xml version="1.0" encoding="UTF-8" standalone="no"?>
<!-- Created with Inkscape (http://www.inkscape.org/) -->

<svg
	 xmlns:dc="http://purl.org/dc/elements/1.1/"
	 xmlns:cc="http://creativecommons.org/ns#"
	 xmlns:rdf="http://www.w3.org/1999/02/22-rdf-syntax-ns#"
	 xmlns:svg="http://www.w3.org/2000/svg"
	 xmlns="http://www.w3.org/2000/svg"
	 version="1.1"
	 width="100%"
	 height="100%"
	 viewBox="0 0 291.1521 344.1054"
	 id="svg2"
	 style="fill:none">
	<metadata
		 id="metadata412">
		<rdf:RDF>
			<cc:Work
				 rdf:about="">
				<dc:format>image/svg+xml</dc:format>
				<dc:type
					 rdf:resource="http://purl.org/dc/dcmitype/StillImage" />
				<dc:title></dc:title>
			</cc:Work>
		</rdf:RDF>
	</metadata>
	<defs
		 id="defs410" />
	<g
		 transform="translate(-131.17718,-70.758606)"
		 id="layer2">
		<g
			 id="g148">
			<path
				 d="m 303.685,201.784 c 0,0 -1.712,2.232 0.489,5.981"
				 id="path150"
				 style="stroke:#46d8d6;stroke-width:2;stroke-linecap:round;stroke-miterlimit:10;stroke-dasharray:10, 4" />
			<g
				 id="g152">
				<g
					 id="g154">
					<path
						 d="m 302.043,120.086 c 0,0 1.839,-1.248 4.134,-2.816"
						 id="path156"
						 style="stroke:#46d8d6;stroke-width:2;stroke-linecap:round;stroke-miterlimit:10" />
					<path
						 d="m 310.998,113.958 c 2.27,-1.571 4.074,-2.845 4.061,-2.916"
						 id="path158"
						 style="stroke:#46d8d6;stroke-width:2;stroke-linecap:round;stroke-miterlimit:10" />
				</g>
			</g>
			<g
				 id="g160">
				<g
					 id="g162">
					<path
						 d="m 220.757,125.443 c 0,0 1.514,-1.748 3.16,-3.872"
						 id="path164"
						 style="stroke:#46d8d6;stroke-width:2;stroke-linecap:round;stroke-miterlimit:10" />
					<path
						 d="m 224.59,120.689 c 1.075,-1.429 2.126,-2.938 2.776,-4.152"
						 id="path166"
						 style="stroke:#46d8d6;stroke-width:2;stroke-linecap:round;stroke-miterlimit:10" />
				</g>
			</g>
			<g
				 id="g168">
				<g
					 id="g170">
					<path
						 d="m 263.238,93.015 c 0,0 0.446,2.105 0.789,4.936"
						 id="path172"
						 style="stroke:#46d8d6;stroke-width:2;stroke-linecap:round;stroke-miterlimit:10" />
					<path
						 d="m 264.409,104.049 c -0.017,1.788 -0.18,3.52 -0.587,4.951"
						 id="path174"
						 style="stroke:#46d8d6;stroke-width:2;stroke-linecap:round;stroke-miterlimit:10" />
				</g>
			</g>
			<g
				 id="g176">
				<g
					 id="g178">
					<path
						 d="m 328.75,142.265 c 0,0 1.915,0.616 4.67,1.78"
						 id="path180"
						 style="stroke:#46d8d6;stroke-width:2;stroke-linecap:round;stroke-miterlimit:10" />
					<path
						 d="m 337.341,145.838 c 3.598,1.779 7.654,4.184 10.749,7.125"
						 id="path182"
						 style="stroke:#46d8d6;stroke-width:2;stroke-linecap:round;stroke-miterlimit:10;stroke-dasharray:10.782, 4.3128" />
					<path
						 d="m 349.588,154.519 c 1.142,1.309 2.072,2.708 2.688,4.193"
						 id="path184"
						 style="stroke:#46d8d6;stroke-width:2;stroke-linecap:round;stroke-miterlimit:10" />
				</g>
			</g>
			<g
				 id="g186">
				<g
					 id="g188">
					<path
						 d="m 317.014,276.371 c 0,0 0.674,1.866 1.032,4.882"
						 id="path190"
						 style="stroke:#46d8d6;stroke-width:2;stroke-linecap:round;stroke-miterlimit:10" />
					<path
						 d="m 318.263,285.122 c -0.057,9.612 -4.574,24.906 -29.819,34.116 -9.945,3.628 -30.886,5.945 -35.852,22.988"
						 id="path192"
						 style="stroke:#46d8d6;stroke-width:2;stroke-linecap:round;stroke-miterlimit:10;stroke-dasharray:9.6995, 3.8798" />
					<path
						 d="m 252.121,344.116 c -0.322,1.541 -0.522,3.193 -0.582,4.966"
						 id="path194"
						 style="stroke:#46d8d6;stroke-width:2;stroke-linecap:round;stroke-miterlimit:10" />
				</g>
			</g>
			<g
				 id="g196">
				<g
					 id="g198">
					<path
						 d="m 291.299,328.622 c 0,0 1.644,1.079 4.357,2.443"
						 id="path200"
						 style="stroke:#46d8d6;stroke-width:2;stroke-linecap:round;stroke-miterlimit:10" />
					<path
						 d="m 299.451,332.813 c 10.085,4.235 27.162,8.15 37.309,-7.492"
						 id="path202"
						 style="stroke:#46d8d6;stroke-width:2;stroke-linecap:round;stroke-miterlimit:10;stroke-dasharray:10.4499, 4.1799" />
					<path
						 d="m 337.842,323.53 c 0.771,-1.369 1.493,-2.868 2.161,-4.507"
						 id="path204"
						 style="stroke:#46d8d6;stroke-width:2;stroke-linecap:round;stroke-miterlimit:10" />
				</g>
			</g>
			<g
				 id="g206">
				<g
					 id="g208">
					<path
						 d="m 332.038,201.992 c 0,0 1.234,1.483 3.072,3.942"
						 id="path210"
						 style="stroke:#46d8d6;stroke-width:2;stroke-linecap:round;stroke-miterlimit:10" />
					<path
						 d="m 337.352,209.017 c 3.988,5.642 9.202,13.883 11.872,21.69"
						 id="path212"
						 style="stroke:#46d8d6;stroke-width:2;stroke-linecap:round;stroke-miterlimit:10;stroke-dasharray:9.5379, 3.8152" />
					<path
						 d="m 349.806,232.543 c 0.484,1.667 0.837,3.302 1.019,4.876"
						 id="path214"
						 style="stroke:#46d8d6;stroke-width:2;stroke-linecap:round;stroke-miterlimit:10" />
				</g>
			</g>
			<path
				 d="m 382.296,224.71 c 0,0 6.031,8.639 5.613,19.562"
				 id="path216"
				 style="stroke:#46d8d6;stroke-width:2;stroke-linecap:round;stroke-miterlimit:10;stroke-dasharray:10, 4" />
			<path
				 d="M 238.508,273.297 C 189.946,254.478 221.766,215.275 221.766,215.275"
				 id="path218"
				 style="stroke:#46d8d6;stroke-width:2;stroke-linecap:round;stroke-miterlimit:10;stroke-dasharray:10, 4" />
			<g
				 id="g220">
				<g
					 id="g222">
					<path
						 d="m 263.04,222.926 c 0,0 -0.896,1.641 -2.237,4.467"
						 id="path224"
						 style="stroke:#46d8d6;stroke-width:2;stroke-linecap:round;stroke-miterlimit:10" />
					<path
						 d="m 259.222,230.843 c -4.979,11.24 -12.7,32.378 -9.542,49.673"
						 id="path226"
						 style="stroke:#46d8d6;stroke-width:2;stroke-linecap:round;stroke-miterlimit:10;stroke-dasharray:9.4927, 3.7971" />
					<path
						 d="m 250.066,282.38 c 0.381,1.636 0.869,3.232 1.473,4.776"
						 id="path228"
						 style="stroke:#46d8d6;stroke-width:2;stroke-linecap:round;stroke-miterlimit:10" />
				</g>
			</g>
			<g
				 id="g230">
				<g
					 id="g232">
					<path
						 d="m 267.607,245.8 c 0,0 0.799,1.655 2.005,4.575"
						 id="path234"
						 style="stroke:#46d8d6;stroke-width:2;stroke-linecap:round;stroke-miterlimit:10" />
					<path
						 d="m 270.987,253.829 c 3.992,10.391 10.07,29.483 9.842,48.953"
						 id="path236"
						 style="stroke:#46d8d6;stroke-width:2;stroke-linecap:round;stroke-miterlimit:10;stroke-dasharray:9.2984, 3.7194" />
					<path
						 d="m 280.788,304.646 c -0.055,1.665 -0.157,3.331 -0.313,4.993"
						 id="path238"
						 style="stroke:#46d8d6;stroke-width:2;stroke-linecap:round;stroke-miterlimit:10" />
				</g>
			</g>
			<g
				 id="g240">
				<g
					 id="g242">
					<path
						 d="m 344.404,178.785 c 0,0 1.435,-1.303 3.701,-3.359"
						 id="path244"
						 style="stroke:#46d8d6;stroke-width:2;stroke-linecap:round;stroke-miterlimit:10" />
					<path
						 d="m 351.172,172.646 c 5.91,-5.356 14.396,-13.03 19.982,-18.021"
						 id="path246"
						 style="stroke:#46d8d6;stroke-width:2;stroke-linecap:round;stroke-miterlimit:10;stroke-dasharray:10.3473, 4.1389" />
					<path
						 d="m 372.698,153.249 c 1.771,-1.575 3.107,-2.748 3.761,-3.292"
						 id="path248"
						 style="stroke:#46d8d6;stroke-width:2;stroke-linecap:round;stroke-miterlimit:10" />
				</g>
			</g>
			<path
				 d="m 373.214,281.167 c -2.92,1.081 8.236,-5.677 10.283,-12.356"
				 id="path250"
				 style="stroke:#46d8d6;stroke-width:2;stroke-linecap:round;stroke-miterlimit:10;stroke-dasharray:10, 4" />
			<g
				 id="g252">
				<g
					 id="g254">
					<path
						 d="m 373.046,248.501 c 0,0 1.496,1.318 3.917,3.101"
						 id="path256"
						 style="stroke:#46d8d6;stroke-width:2;stroke-linecap:round;stroke-miterlimit:10" />
					<path
						 d="m 380.302,253.923 c 3.099,2.032 6.906,4.185 10.836,5.58"
						 id="path258"
						 style="stroke:#46d8d6;stroke-width:2;stroke-linecap:round;stroke-miterlimit:10;stroke-dasharray:10.1778, 4.0711" />
					<path
						 d="m 393.084,260.126 c 1.648,0.467 3.301,0.778 4.916,0.869"
						 id="path260"
						 style="stroke:#46d8d6;stroke-width:2;stroke-linecap:round;stroke-miterlimit:10" />
				</g>
			</g>
			<g
				 id="g262">
				<g
					 id="g264">
					<path
						 d="m 328.819,278.865 c 0,0 0.829,1.766 2.357,4.403"
						 id="path266"
						 style="stroke:#46d8d6;stroke-width:2;stroke-linecap:round;stroke-miterlimit:10" />
					<path
						 d="m 332.979,286.232 c 3.383,5.314 8.661,12.266 15.202,16.463"
						 id="path268"
						 style="stroke:#46d8d6;stroke-width:2;stroke-linecap:round;stroke-miterlimit:10;stroke-dasharray:8.6806, 3.4722" />
					<path
						 d="m 349.674,303.591 c 1.473,0.823 3.005,1.499 4.588,1.98"
						 id="path270"
						 style="stroke:#46d8d6;stroke-width:2;stroke-linecap:round;stroke-miterlimit:10" />
				</g>
			</g>
			<g
				 id="g272">
				<g
					 id="g274">
					<path
						 d="m 282.395,152.246 c 0,0 -0.411,1.923 -1.063,4.883"
						 id="path276"
						 style="stroke:#46d8d6;stroke-width:2;stroke-linecap:round;stroke-miterlimit:10" />
					<path
						 d="m 280.601,160.419 c -1.44,6.434 -3.486,15.289 -5.137,21.303"
						 id="path278"
						 style="stroke:#46d8d6;stroke-width:2;stroke-linecap:round;stroke-miterlimit:10;stroke-dasharray:8.4273, 3.3709" />
					<path
						 d="m 275.008,183.345 c -0.665,2.306 -1.242,4.011 -1.653,4.711"
						 id="path280"
						 style="stroke:#46d8d6;stroke-width:2;stroke-linecap:round;stroke-miterlimit:10" />
				</g>
			</g>
			<g
				 id="g282">
				<g
					 id="g284">
					<path
						 d="m 375.127,316.536 c 0,0 1.928,0 4.97,0.496"
						 id="path286"
						 style="stroke:#46d8d6;stroke-width:2;stroke-linecap:round;stroke-miterlimit:10" />
					<path
						 d="m 384.347,317.928 c 6.849,1.771 16.208,5.796 23.382,14.942"
						 id="path288"
						 style="stroke:#46d8d6;stroke-width:2;stroke-linecap:round;stroke-miterlimit:10;stroke-dasharray:10.8645, 4.3458" />
					<path
						 d="m 409.027,334.619 c 0.928,1.318 1.811,2.732 2.637,4.25"
						 id="path290"
						 style="stroke:#46d8d6;stroke-width:2;stroke-linecap:round;stroke-miterlimit:10" />
				</g>
			</g>
			<g
				 id="g292">
				<g
					 id="g294">
					<path
						 d="m 204.004,138.671 c 0,0 -1.743,1.32 -3.581,3.477"
						 id="path296"
						 style="stroke:#46d8d6;stroke-width:2;stroke-linecap:round;stroke-miterlimit:10" />
					<path
						 d="m 197.822,145.915 c -1.938,3.643 -2.71,8.249 1.064,12.827"
						 id="path298"
						 style="stroke:#46d8d6;stroke-width:2;stroke-linecap:round;stroke-miterlimit:10;stroke-dasharray:11.4659, 4.5863" />
					<path
						 d="m 200.473,160.411 c 1.085,1.002 2.41,1.998 4.011,2.976"
						 id="path300"
						 style="stroke:#46d8d6;stroke-width:2;stroke-linecap:round;stroke-miterlimit:10" />
				</g>
			</g>
			<g
				 id="g302">
				<g
					 id="g304">
					<path
						 d="m 252.732,175.499 c 0,0 0.799,1.643 2.221,4.476"
						 id="path306"
						 style="stroke:#46d8d6;stroke-width:2;stroke-linecap:round;stroke-miterlimit:10" />
					<path
						 d="m 256.803,183.632 c 8.616,16.917 29.145,55.62 44.246,71.295"
						 id="path308"
						 style="stroke:#46d8d6;stroke-width:2;stroke-linecap:round;stroke-miterlimit:10;stroke-dasharray:10.2577, 4.1031" />
					<path
						 d="m 302.506,256.384 c 1.331,1.276 2.613,2.354 3.834,3.197"
						 id="path310"
						 style="stroke:#46d8d6;stroke-width:2;stroke-linecap:round;stroke-miterlimit:10" />
				</g>
			</g>
			<g
				 id="g312">
				<g
					 id="g314">
					<path
						 d="m 269.973,152.246 c 0,0 -1.656,0.903 -4.29,2.564"
						 id="path316"
						 style="stroke:#46d8d6;stroke-width:2;stroke-linecap:round;stroke-miterlimit:10" />
					<path
						 d="m 262.213,157.078 c -12.733,8.619 -36.168,27.746 -31.045,48.995 0,0 3.139,12.482 12.118,19.759"
						 id="path318"
						 style="stroke:#46d8d6;stroke-width:2;stroke-linecap:round;stroke-miterlimit:10;stroke-dasharray:10.3668, 4.1467" />
					<path
						 d="m 244.953,227.071 c 1.35,0.919 2.817,1.717 4.408,2.346"
						 id="path320"
						 style="stroke:#46d8d6;stroke-width:2;stroke-linecap:round;stroke-miterlimit:10" />
				</g>
			</g>
			<g
				 id="g322">
				<g
					 id="g324">
					<path
						 d="m 180.421,187.348 c 0,0 1.55,0.44 4.127,2.769"
						 id="path326"
						 style="stroke:#46d8d6;stroke-width:2;stroke-linecap:round;stroke-miterlimit:10" />
					<path
						 d="m 187.297,192.954 c 3.457,4 7.932,10.784 12.751,22.22"
						 id="path328"
						 style="stroke:#46d8d6;stroke-width:2;stroke-linecap:round;stroke-miterlimit:10;stroke-dasharray:9.8903, 3.9561" />
					<path
						 d="m 200.81,217.012 c 0.602,1.479 1.208,3.03 1.818,4.658"
						 id="path330"
						 style="stroke:#46d8d6;stroke-width:2;stroke-linecap:round;stroke-miterlimit:10" />
				</g>
			</g>
			<g
				 id="g332">
				<g
					 id="g334">
					<path
						 d="m 273.355,112.806 c 0,0 2.044,-0.504 4.955,0.25"
						 id="path336"
						 style="stroke:#46d8d6;stroke-width:2;stroke-linecap:round;stroke-miterlimit:10" />
					<path
						 d="m 281.817,114.488 c 5.403,3.06 11.907,10.966 14.743,30.859 3.604,25.278 8.139,35.445 12.182,40.419"
						 id="path338"
						 style="stroke:#46d8d6;stroke-width:2;stroke-linecap:round;stroke-miterlimit:10;stroke-dasharray:9.4986, 3.7994" />
					<path
						 d="m 310.01,187.185 c 1.398,1.42 2.716,2.314 3.887,3.131"
						 id="path340"
						 style="stroke:#46d8d6;stroke-width:2;stroke-linecap:round;stroke-miterlimit:10" />
				</g>
			</g>
			<g
				 id="g342">
				<g
					 id="g344">
					<path
						 d="m 370.109,170.765 c 0,0 0.893,1.582 1.853,4.634"
						 id="path346"
						 style="stroke:#46d8d6;stroke-width:2;stroke-linecap:round;stroke-miterlimit:10" />
					<path
						 d="m 372.919,178.953 c 1.829,8.05 2.829,21.833 -3.595,40.455 -5.859,16.982 -7.578,27.407 -7.934,33.366"
						 id="path348"
						 style="stroke:#46d8d6;stroke-width:2;stroke-linecap:round;stroke-miterlimit:10;stroke-dasharray:9.2072, 3.6829" />
					<path
						 d="m 361.318,254.616 c -0.06,3.566 0.419,4.966 0.419,4.966"
						 id="path350"
						 style="stroke:#46d8d6;stroke-width:2;stroke-linecap:round;stroke-miterlimit:10" />
				</g>
			</g>
			<g
				 id="g352">
				<g
					 id="g354">
					<path
						 d="m 191.524,107.948 c 0,0 1.711,0.953 4.167,2.756"
						 id="path356"
						 style="stroke:#46d8d6;stroke-width:2;stroke-linecap:round;stroke-miterlimit:10" />
					<path
						 d="m 198.838,113.188 c 6.122,5.19 13.894,14.015 14.089,25.483 0.208,12.173 0.031,19.311 0.94,24.112"
						 id="path358"
						 style="stroke:#46d8d6;stroke-width:2;stroke-linecap:round;stroke-miterlimit:10;stroke-dasharray:10.0295, 4.0118" />
					<path
						 d="m 214.337,164.737 c 0.52,1.729 1.262,3.126 2.331,4.381"
						 id="path360"
						 style="stroke:#46d8d6;stroke-width:2;stroke-linecap:round;stroke-miterlimit:10" />
				</g>
			</g>
			<g
				 id="g362">
				<g
					 id="g364">
					<path
						 d="m 240.769,161.441 c 0,0 1.31,-1.339 3.324,-3.729"
						 id="path366"
						 style="stroke:#46d8d6;stroke-width:2;stroke-linecap:round;stroke-miterlimit:10" />
					<path
						 d="m 246.811,154.354 c 4.399,-5.65 10.246,-14.242 14.149,-24.158"
						 id="path368"
						 style="stroke:#46d8d6;stroke-width:2;stroke-linecap:round;stroke-miterlimit:10;stroke-dasharray:10.8032, 4.3213" />
					<path
						 d="m 261.724,128.166 c 0.561,-1.561 1.07,-3.151 1.514,-4.765"
						 id="path370"
						 style="stroke:#46d8d6;stroke-width:2;stroke-linecap:round;stroke-miterlimit:10" />
				</g>
			</g>
			<g
				 id="g372">
				<g
					 id="g374">
					<path
						 d="m 313.691,225.95 c 0,0 0.192,1.962 1.472,4.759"
						 id="path376"
						 style="stroke:#46d8d6;stroke-width:2;stroke-linecap:round;stroke-miterlimit:10" />
					<path
						 d="m 317.046,234.054 c 2.673,3.966 7.445,8.56 15.935,11.746 18.008,6.76 40.436,38.424 29.02,84.703 -2.345,9.505 -1.916,30.375 3.691,41.931"
						 id="path378"
						 style="stroke:#46d8d6;stroke-width:2;stroke-linecap:round;stroke-miterlimit:10;stroke-dasharray:9.6118, 3.8447" />
					<path
						 d="m 366.596,374.136 c 0.906,1.555 1.928,2.884 3.071,3.921"
						 id="path380"
						 style="stroke:#46d8d6;stroke-width:2;stroke-linecap:round;stroke-miterlimit:10" />
				</g>
			</g>
			<path
				 d="m 290.719,272.662 c 0,0 13.64,-0.28 28.709,-7.285 13.395,-6.227 20.541,-2.105 20.541,-2.105"
				 id="path382"
				 style="stroke:#46d8d6;stroke-width:2;stroke-linecap:round;stroke-miterlimit:10;stroke-dasharray:10, 4" />
			<g
				 id="g384">
				<g
					 id="g386">
					<path
						 d="m 296.541,233.719 c 0,0 1.083,-1.619 2.815,-4.13"
						 id="path388"
						 style="stroke:#46d8d6;stroke-width:2;stroke-linecap:round;stroke-miterlimit:10" />
					<path
						 d="m 301.658,226.281 c 5.145,-7.328 12.979,-18.058 17.77,-22.554 7.604,-7.138 18.569,-33.836 0,-54.124 0,0 -9.479,-13.093 8.902,-17.347 2.78,-0.644 8.428,-1.042 12.582,-2.442"
						 id="path390"
						 style="stroke:#46d8d6;stroke-width:2;stroke-linecap:round;stroke-miterlimit:10;stroke-dasharray:10.0813, 4.0325" />
					<path
						 d="m 342.786,129.053 c 1.748,-0.863 2.967,-2.017 3.138,-3.61"
						 id="path392"
						 style="stroke:#46d8d6;stroke-width:2;stroke-linecap:round;stroke-miterlimit:10" />
				</g>
			</g>
			<g
				 id="g394">
				<g
					 id="g396">
					<path
						 d="m 246.738,306.174 c 0,0 -0.698,1.783 -2.035,4.565"
						 id="path398"
						 style="stroke:#46d8d6;stroke-width:2;stroke-linecap:round;stroke-miterlimit:10" />
					<path
						 d="m 243.075,313.978 c -4.417,8.418 -12.66,21.324 -23.806,26.602"
						 id="path400"
						 style="stroke:#46d8d6;stroke-width:2;stroke-linecap:round;stroke-miterlimit:10;stroke-dasharray:9.0675, 3.627" />
					<path
						 d="m 217.602,341.302 c -1.551,0.61 -3.155,1.069 -4.809,1.347"
						 id="path402"
						 style="stroke:#46d8d6;stroke-width:2;stroke-linecap:round;stroke-miterlimit:10" />
				</g>
			</g>
			<path
				 d="m 341.68,337.15 c 0,0 6.119,3.479 8.72,0.484"
				 id="path404"
				 style="stroke:#46d8d6;stroke-width:2;stroke-linecap:round;stroke-miterlimit:10;stroke-dasharray:10, 4" />
			<path
				 d="m 196.382,248.856 c 0,0 -20.723,34.727 37.868,41.833 8.309,1.008 18.757,1.529 30.79,22.703"
				 id="path406"
				 style="stroke:#46d8d6;stroke-width:2;stroke-linecap:round;stroke-miterlimit:10;stroke-dasharray:10, 4" />
		</g>
	</g>
	<g
		 transform="translate(-131.17718,-70.758606)"
		 id="layer1">
		<path
			 d="m 305.66,128.438 c 0,0 9.807,-7.327 15.572,-10.734"
			 id="path5"
			 style="stroke:#231815;stroke-width:3;stroke-miterlimit:10" />
		<path
			 d="m 179.822,349.082 c -10.939,13.229 -24.145,13.193 -31.873,9.142 -24.566,-12.879 -14.402,-39.488 -4.616,-50.666 8.333,-9.518 30.714,-20.245 37.201,-6.086 6.098,13.31 -11.535,15.604 -17.251,19.065 -5.243,3.176 -7.617,23.318 16.791,11.357"
			 id="path7"
			 style="stroke:#231815;stroke-width:3;stroke-miterlimit:10" />
		<path
			 d="m 179.939,366.611 c 0,0 -19.684,12.763 -16.872,20.334 2.812,7.57 18.387,-8.653 16.872,-20.334 z"
			 id="path9"
			 style="stroke:#231815;stroke-width:3;stroke-miterlimit:10" />
		<path
			 d="m 179.939,366.611 c 0,0 -1.331,-51.53 4.976,-58.62 6.168,-6.935 13.395,0.313 13.585,7.566 0.206,7.827 -12.295,24.168 -12.295,24.168"
			 id="path11"
			 style="stroke:#231815;stroke-width:3;stroke-miterlimit:10" />
		<path
			 d="m 186.862,325.512 c 0,0 10.228,-7.472 4.759,-12.114 -2.756,-2.34 -7.685,17.958 -3.943,45.299 0.535,3.905 1.229,7.995 2.107,12.24 7.027,33.961 -20.451,47.62 -33.423,40.666 -10.744,-5.76 -17.028,-33.046 23.46,-49.408"
			 id="path13"
			 style="stroke:#231815;stroke-width:3;stroke-miterlimit:10" />
		<path
			 d="m 187.677,358.223 c 0,0 15.387,-12.333 20.72,-24.895 3.253,-7.663 7.316,-13.295 1.178,-16.254 -3.342,-1.611 -9.932,10.112 -0.63,15.304"
			 id="path15"
			 style="stroke:#231815;stroke-width:3;stroke-miterlimit:10" />
		<path
			 d="m 194.931,308.467 c 0,0 26.235,-21.744 28.271,13.15 0.79,13.533 -13.869,27.464 -34.857,41.534"
			 id="path17"
			 style="stroke:#231815;stroke-width:3;stroke-miterlimit:10" />
		<path
			 d="m 189.938,334.458 c 0,0 0.615,7.599 6.647,14.623"
			 id="path19"
			 style="stroke:#231815;stroke-width:3;stroke-miterlimit:10" />
		<path
			 d="m 238.813,339.047 c -26.606,23.703 -37.733,14.15 -37.733,14.15"
			 id="path21"
			 style="stroke:#231815;stroke-width:3;stroke-miterlimit:10" />
		<path
			 d="m 210.656,208.919 c 0,0 -17.543,21.848 -14.071,41.315 3.472,19.468 27.271,25.745 29.651,30.505"
			 id="path23"
			 style="stroke:#231815;stroke-width:3;stroke-miterlimit:10" />
		<path
			 d="M 239.318,260.996 C 212.495,246.935 228.422,224.742 228.422,224.742"
			 id="path25"
			 style="stroke:#231815;stroke-width:3;stroke-miterlimit:10" />
		<path
			 d="m 240.291,282.682 c -4.542,-14.926 1.222,-35.181 5.408,-43.695 4.512,-9.176 11.9,-28.631 11.9,-28.631"
			 id="path27"
			 style="stroke:#231815;stroke-width:3;stroke-miterlimit:10" />
		<path
			 d="m 271.557,234.685 c 0,0 -8.336,22.904 -9.851,29.394 -1.514,6.489 -3.615,26.01 -0.155,30.552"
			 id="path29"
			 style="stroke:#231815;stroke-width:3;stroke-miterlimit:10" />
		<path
			 d="m 202.191,262.728 c 0,0 4.295,17.56 28.977,18.439 28.605,1.02 43.813,30.334 42.731,30.118"
			 id="path31"
			 style="stroke:#231815;stroke-width:3;stroke-miterlimit:10" />
		<path
			 d="m 305.232,279.98 c 0,0 7.261,24.121 -33.275,31.689 -40.536,7.568 -36.612,46.97 -32.964,52.994 4.174,6.894 18.792,12.868 26.873,-15.582 2.917,-10.271 4.817,-16.216 35.966,-23.03 31.148,-6.813 30.003,-49.063 24.487,-53.39"
			 id="path33"
			 style="stroke:#231815;stroke-width:3;stroke-miterlimit:10" />
		<path
			 d="m 262.054,262.728 c 0,0 10.057,15.892 6.067,39.046"
			 id="path35"
			 style="stroke:#231815;stroke-width:3;stroke-miterlimit:10" />
		<path
			 d="m 285.291,254.132 c 0,0 5.425,12.515 6.884,28.168 0.738,7.921 0.233,15.561 -2.587,23.874"
			 id="path37"
			 style="stroke:#231815;stroke-width:3;stroke-miterlimit:10" />
		<path
			 d="m 291.922,281.214 c 0,0 10.578,2.084 33.596,-8.375 4.55,-2.067 18.031,-5.258 19.979,-0.715"
			 id="path39"
			 style="stroke:#231815;stroke-width:3;stroke-miterlimit:10" />
		<path
			 d="m 288.443,263.565 c 0,0 14.911,-1.966 21.176,-5.651 3.439,-2.023 13.445,-5.278 19.377,-3.007"
			 id="path41"
			 style="stroke:#231815;stroke-width:3;stroke-miterlimit:10" />
		<path
			 d="m 246.055,185.468 c 0,0 19.656,52.413 48.136,77.15"
			 id="path43"
			 style="stroke:#231815;stroke-width:3;stroke-miterlimit:10" />
		<path
			 d="m 264.533,164.882 c 0,0 25.252,77.594 53.73,90.076"
			 id="path45"
			 style="stroke:#231815;stroke-width:3;stroke-miterlimit:10" />
		<path
			 d="m 265.694,168.297 c 9.135,-28.262 5.025,-40.171 5.025,-40.171 0,0 4.819,10.383 -22.593,28.229 -21.682,14.115 -41.117,33.219 -24.783,60.678 4.317,7.257 11.157,16.857 21.065,23.584"
			 id="path47"
			 style="stroke:#231815;stroke-width:3;stroke-miterlimit:10" />
		<path
			 d="m 288.774,178.547 c 0,0 -2.206,21.315 -5.802,31.373"
			 id="path49"
			 style="stroke:#231815;stroke-width:3;stroke-miterlimit:10" />
		<path
			 d="m 254.689,217.842 c -33.358,-25.944 12.658,-54.998 12.658,-54.998"
			 id="path51"
			 style="stroke:#231815;stroke-width:3;stroke-miterlimit:10" />
		<path
			 d="m 197.484,234.91 c 0,0 -6.6,-1.19 -13.455,-25.99 -1.085,-3.925 -4.355,-8.408 -12.309,-14.277 -9.886,-7.295 4.542,-29.626 19.792,-10.271 15.25,19.355 5.475,11.769 15.659,29.469"
			 id="path53"
			 style="stroke:#231815;stroke-width:3;stroke-miterlimit:10" />
		<path
			 d="m 277.866,333.457 c 0,0 50.94,41.144 70.385,-8.417"
			 id="path55"
			 style="stroke:#231815;stroke-width:3;stroke-miterlimit:10" />
		<path
			 d="m 315.871,319.29 c 0,0 11.583,4.728 16.754,-9.65"
			 id="path57"
			 style="stroke:#231815;stroke-width:3;stroke-miterlimit:10" />
		<path
			 d="m 327.488,299.603 c 0,0 8.806,23.399 25.898,27.268"
			 id="path59"
			 style="stroke:#231815;stroke-width:3;stroke-miterlimit:10" />
		<path
			 d="m 304.174,243.699 c 0,0 1.963,-10.12 20.252,-31.211 18.289,-21.09 18.324,-44.348 10.502,-57.431 -1.871,-3.129 -8.35,-7.724 -6.178,-12.792 1.5,-3.5 5.144,-3.994 8.25,-4.125 3.891,-0.165 10.906,0.261 12.096,-1.902"
			 id="path61"
			 style="stroke:#231815;stroke-width:3;stroke-miterlimit:10" />
		<path
			 d="m 367.504,112.806 c 0,0 -18.491,4.039 -11.919,11.21 2.29,2.499 5.624,3.786 10.708,-0.973 4.59,-4.297 1.949,-10.887 -1.394,-13.32 -0.359,-0.261 -0.727,-0.475 -1.094,-0.632 -3.785,-1.623 -13.195,-2.596 -16.765,0.974 -3.568,3.569 2.488,6.132 3.245,6.473"
			 id="path63"
			 style="stroke:#231815;stroke-width:3;stroke-miterlimit:10" />
		<path
			 d="m 364.899,109.723 c 0,0 -17.604,2.438 -18.976,15.72 -1.372,13.282 9.64,14.234 11.414,14.533 8.388,1.414 23.676,-2.404 26.521,-12.965 1.824,-6.771 8.019,-31.102 -20.859,-35.861 -28.878,-4.759 -39.539,4.135 -43,6.406 -3.46,2.271 -9.949,12.15 -1.08,18.98 0,0 4.182,2.214 7.715,3.549 3.533,1.335 2.414,4.622 0,5.357 -2.414,0.736 -31.028,8.189 -17.557,26.802 2.829,3.909 8.112,8.22 8.328,17.413 0.217,9.193 -0.974,18.278 -10.275,34.718 0,0 -14.171,16.67 -15.732,21.212"
			 id="path65"
			 style="stroke:#231815;stroke-width:3;stroke-miterlimit:10" />
		<path
			 d="m 339.598,169.541 c 0,0 32.268,-27.499 33.509,-28.868 1.19,-1.313 10.707,-8.544 16.872,-0.433 6.165,8.112 -4.845,17.846 -4.845,17.846 0,0 -33.295,25.961 -33.079,30.828"
			 id="path67"
			 style="stroke:#231815;stroke-width:3;stroke-miterlimit:10" />
		<path
			 d="m 339.439,176.04 c 0,0 15.372,7.005 20.841,33.88"
			 id="path69"
			 style="stroke:#231815;stroke-width:3;stroke-miterlimit:10" />
		<path
			 d="m 361.248,178.785 c 0,0 5.522,19.751 -3.91,38.895 -9.432,19.144 -6.512,29.852 -6.512,29.852"
			 id="path71"
			 style="stroke:#231815;stroke-width:3;stroke-miterlimit:10" />
		<path
			 d="m 379.374,162.844 c 0,0 14.436,24.66 5.76,53.213 -8.675,28.553 -19.685,40.963 -15.467,57.511"
			 id="path73"
			 style="stroke:#231815;stroke-width:3;stroke-miterlimit:10" />
		<path
			 d="m 336.57,192.379 c 0,0 14.254,8.761 18.393,30.547"
			 id="path75"
			 style="stroke:#231815;stroke-width:3;stroke-miterlimit:10" />
		<path
			 d="m 385.688,214.11 c 0,0 13.16,15.899 12.835,33.421"
			 id="path77"
			 style="stroke:#231815;stroke-width:3;stroke-miterlimit:10" />
		<path
			 d="m 324.426,212.488 c 0,0 11.404,10.185 16.793,28.129"
			 id="path79"
			 style="stroke:#231815;stroke-width:3;stroke-miterlimit:10" />
		<path
			 d="m 294.444,190.316 c 0,0 -5.69,17.229 0.8,28.423"
			 id="path81"
			 style="stroke:#231815;stroke-width:3;stroke-miterlimit:10" />
		<path
			 d="m 221.766,215.275 c 0,0 -26.029,-5.869 -14.595,-32.719 3.674,-8.628 7.981,-13.375 26.198,-26.85 18.17,-13.441 17.561,-49.317 17.561,-49.317 0,0 -4.15,-26.284 10.397,-27.582 14.547,-1.298 15.619,12.248 14.321,24.45"
			 id="path83"
			 style="stroke:#231815;stroke-width:3;stroke-miterlimit:10" />
		<path
			 d="m 327.488,347.554 c 0,0 8.438,9.73 22.168,7.313"
			 id="path85"
			 style="stroke:#231815;stroke-width:3;stroke-miterlimit:10" />
		<path
			 d="m 373.214,347.554 c 0,0 10.25,-6.698 12.304,-12.143"
			 id="path87"
			 style="stroke:#231815;stroke-width:3;stroke-miterlimit:10" />
		<path
			 d="m 377.693,236.823 c 0,0 11.869,10.708 22.776,10.708 4.28,0 13.289,3.521 10.53,15.734 -2.906,12.864 -17.218,9.574 -17.218,9.574 0,0 -4.51,-0.936 -10.285,-4.028 -4.208,-2.253 -9.089,-7.044 -13.388,-12.063"
			 id="path89"
			 style="stroke:#231815;stroke-width:3;stroke-miterlimit:10" />
		<path
			 d="m 375.413,298.04 c 0,0 17.594,-13.192 20.189,-25.037"
			 id="path91"
			 style="stroke:#231815;stroke-width:3;stroke-miterlimit:10" />
		<path
			 d="m 306.803,236.823 c 0,0 6.385,11.702 23.582,18.668 17.196,6.965 29.202,46.819 22.063,75.887 -7.139,29.068 1.22,45.291 4.179,52.105 2.96,6.813 10.141,14.729 19.832,9.733 9.042,-4.66 6.958,-14.243 4.543,-21.415 -3.47,-10.305 -11.032,-26.522 -7.788,-42.787 3.245,-16.266 10.751,-64.936 -36.644,-90.894 0,0 -15.105,-9.733 -16.648,-20.279"
			 id="path93"
			 style="stroke:#231815;stroke-width:3;stroke-miterlimit:10" />
		<path
			 d="m 307.131,204.376 c 0,0 -24.736,-15.463 -26.035,-68.138 -0.088,-3.561 -1.652,-6.49 -11.711,-8.112 -10.059,-1.623 -7.743,-17.01 -4.852,-20.179 2.814,-3.084 14.083,-10.97 31.207,3.955 0,0 9.536,6.052 10.6,26.796"
			 id="path95"
			 style="stroke:#231815;stroke-width:3;stroke-miterlimit:10" />
		<path
			 d="m 309.078,152.246 c 0,0 0.007,16.347 8.061,24.991"
			 id="path97"
			 style="stroke:#231815;stroke-width:3;stroke-miterlimit:10" />
		<path
			 d="m 296.561,112.806 c 0,0 11.937,-11.991 19.665,-10.855"
			 id="path99"
			 style="stroke:#231815;stroke-width:3;stroke-miterlimit:10" />
		<path
			 d="m 384.27,106.075 c 3.045,-1.418 9.673,-5.267 13.062,-8.848 4.389,-4.638 14.219,-19.57 6.708,-20.854 -0.763,-0.13 -6.708,-1.859 -6.708,20.854"
			 id="path101"
			 style="stroke:#231815;stroke-width:3;stroke-miterlimit:10" />
		<path
			 d="m 386.901,104.567 c 2.6,-24.51 8.905,-33.12 18.11,-32.249 4.446,0.42 11.322,3.239 3.822,17.452 -2.644,5.01 -6.188,8.383 -9.745,11.454 -4.422,3.817 -11.218,8.443 -14.038,9.819"
			 id="path103"
			 style="stroke:#231815;stroke-width:3;stroke-miterlimit:10" />
		<path
			 d="m 386.988,111.042 c 0,0 2.937,42.555 21.917,32.983 18.981,-9.572 -11.303,-27.88 -9.816,-42.802"
			 id="path105"
			 style="stroke:#231815;stroke-width:3;stroke-miterlimit:10" />
		<path
			 d="m 387.166,307.557 c 1.298,-6.651 -3.358,-16.868 -3.358,-16.868"
			 id="path107"
			 style="stroke:#231815;stroke-width:3;stroke-miterlimit:10" />
		<path
			 d="m 336.379,270.145 c 0,0 9.512,21.14 16.359,24.084"
			 id="path109"
			 style="stroke:#231815;stroke-width:3;stroke-miterlimit:10" />
		<path
			 d="m 372.764,332.219 c 0,0 18.358,1.104 28.192,17.243 2.279,3.74 9.377,9.678 17.521,0 9.566,-11.367 -11.105,-42.969 -42.785,-42.843"
			 id="path111"
			 style="stroke:#231815;stroke-width:3;stroke-miterlimit:10" />
		<path
			 d="m 204.484,163.387 c -9.248,5.516 -14.515,19.175 -14.515,19.175"
			 id="path113"
			 style="stroke:#231815;stroke-width:3;stroke-miterlimit:10" />
		<path
			 d="m 195.492,189.613 c 0,0 2.997,-11.519 9.486,-14.115"
			 id="path115"
			 style="stroke:#231815;stroke-width:3;stroke-miterlimit:10" />
		<path
			 d="m 197.984,130.6 c 0,0 -27.734,17.04 -1.178,39.958"
			 id="path117"
			 style="stroke:#231815;stroke-width:3;stroke-miterlimit:10" />
		<path
			 d="m 250.995,108.495 c 0,0 -15.518,-4.703 -12.759,13.467 2.758,18.17 -3.852,33.051 -6.365,34.605"
			 id="path119"
			 style="stroke:#231815;stroke-width:3;stroke-miterlimit:10" />
		<path
			 d="m 223.208,164.076 c -2.279,-4.055 -0.384,-14.472 -0.384,-14.472 6.651,-21.677 -13.303,-41.27 -17.251,-45.36 -3.948,-4.09 -13.411,-10.998 -21.922,-3.535 -8.511,7.462 -2.483,16.229 1.211,19.377 6.602,5.626 22.279,12.908 20.711,27.833 -1.568,14.925 -1.887,29.04 1.599,34.637"
			 id="path121"
			 style="stroke:#231815;stroke-width:3;stroke-miterlimit:10" />
		<path
			 d="m 215.713,116.392 c 0,0 7.11,-18.727 17.655,-8.444 10.545,10.282 -6.129,22.612 -9.909,25.857"
			 id="path123"
			 style="stroke:#231815;stroke-width:3;stroke-miterlimit:10" />
		<path
			 d="m 223.803,145.347 c 0,0 11.17,-6.039 15.073,-13.09"
			 id="path125"
			 style="stroke:#231815;stroke-width:3;stroke-miterlimit:10" />
		<path
			 d="m 251.539,197.957 c 0,0 -1.44,15.365 3.15,19.885"
			 id="path127"
			 style="stroke:#231815;stroke-width:3;stroke-miterlimit:10" />
		<path
			 d="M 203.064,341.068"
			 id="path129"
			 style="stroke:#231815;stroke-width:3;stroke-miterlimit:10" />
		<path
			 d="m 341.68,138.051 c 0,0 10.529,-0.167 21.175,11.586"
			 id="path131"
			 style="stroke:#231815;stroke-width:3;stroke-miterlimit:10" />
		<path
			 d="M 256.298,317.075"
			 id="path133"
			 style="stroke:#231815;stroke-width:3;stroke-miterlimit:10" />
		<path
			 d="M 190.884,228.146"
			 id="path135"
			 style="stroke:#231815;stroke-width:3;stroke-miterlimit:10" />
		<path
			 d="m 190.01,226.552 c 0,0 -31.343,55.699 20.63,70.622 11.969,3.437 38.206,-1.165 45.658,19.9"
			 id="path137"
			 style="stroke:#231815;stroke-width:3;stroke-miterlimit:10" />
		<path
			 d="m 231.871,299.908 c 0,0 -0.531,19.115 -8.638,23.232"
			 id="path139"
			 style="stroke:#231815;stroke-width:3;stroke-miterlimit:10" />
		<path
			 d="m 224.465,233.719 c 0,0 2.318,11.333 18.093,13.252"
			 id="path141"
			 style="stroke:#231815;stroke-width:3;stroke-miterlimit:10" />
		<path
			 d="m 232.398,243.699 c 0,0 -4.518,7.049 -0.875,12.037"
			 id="path143"
			 style="stroke:#231815;stroke-width:3;stroke-miterlimit:10" />
		<path
			 d="m 285.873,198.383 c 0,0 0.971,6.533 6.049,9.27"
			 id="path145"
			 style="stroke:#231815;stroke-width:3;stroke-miterlimit:10" />
	</g>
</svg>
